<?xml version="1.0" encoding="UTF-8" standalone="no"?>
<!-- Created with Inkscape (http://www.inkscape.org/) -->
<svg
   xmlns:dc="http://purl.org/dc/elements/1.1/"
   xmlns:cc="http://web.resource.org/cc/"
   xmlns:rdf="http://www.w3.org/1999/02/22-rdf-syntax-ns#"
   xmlns:svg="http://www.w3.org/2000/svg"
   xmlns="http://www.w3.org/2000/svg"
   xmlns:xlink="http://www.w3.org/1999/xlink"
   xmlns:sodipodi="http://sodipodi.sourceforge.net/DTD/sodipodi-0.dtd"
   xmlns:inkscape="http://www.inkscape.org/namespaces/inkscape"
   width="1024px"
   height="768px"
   id="svg1871"
   sodipodi:version="0.32"
   inkscape:version="0.45.1"
   sodipodi:docbase="/mnt/sda8/files/art/wallpapers/_new/svg"
   sodipodi:docname="wolvix-medium-howl_transparent.svg"
   inkscape:output_extension="org.inkscape.output.svg.inkscape"
   inkscape:export-filename="/usr/share/fluxbox/backgrounds/wolvix-howl-dark.png"
   inkscape:export-xdpi="140.625"
   inkscape:export-ydpi="140.625">
  <defs
     id="defs1873">
    <linearGradient
       id="linearGradient9084">
      <stop
         style="stop-color:white;stop-opacity:1;"
         offset="0"
         id="stop11959" />
      <stop
         id="stop11963"
         offset="0"
         style="stop-color:white;stop-opacity:0.49803922;" />
      <stop
         style="stop-color:#bfbfbf;stop-opacity:0.37254902;"
         offset="0"
         id="stop11967" />
      <stop
         id="stop11969"
         offset="0"
         style="stop-color:#9f9f9f;stop-opacity:0.30980392;" />
      <stop
         style="stop-color:#8f8f8f;stop-opacity:0.27843137;"
         offset="0"
         id="stop11971" />
      <stop
         id="stop11973"
         offset="0"
         style="stop-color:#878787;stop-opacity:0.2627451;" />
      <stop
         style="stop-color:#838383;stop-opacity:0.25490196;"
         offset="0"
         id="stop11975" />
      <stop
         id="stop11977"
         offset="0"
         style="stop-color:#818181;stop-opacity:0.25098039;" />
      <stop
         style="stop-color:gray;stop-opacity:0.24705882;"
         offset="0"
         id="stop11979" />
      <stop
         id="stop11981"
         offset="0"
         style="stop-color:#7f7f7f;stop-opacity:0.24705882;" />
      <stop
         style="stop-color:#7f7f7f;stop-opacity:0.24705882;"
         offset="0"
         id="stop11983" />
      <stop
         style="stop-color:#7f7f7f;stop-opacity:0.24705882;"
         offset="0"
         id="stop11965" />
      <stop
         id="stop11961"
         offset="1"
         style="stop-color:black;stop-opacity:0;" />
    </linearGradient>
    <radialGradient
       inkscape:collect="always"
       xlink:href="#linearGradient9084"
       id="radialGradient11026"
       cx="1.6814751e-12"
       cy="-128.32663"
       fx="1.6814751e-12"
       fy="-128.32663"
       r="513.89429"
       gradientTransform="matrix(0,1.500572,-2,0,-256.6532,-7.073602e-6)"
       gradientUnits="userSpaceOnUse" />
  </defs>
  <sodipodi:namedview
     id="base"
     pagecolor="white"
     bordercolor="#666666"
     borderopacity="1.0"
     inkscape:pageopacity="0"
     inkscape:pageshadow="2"
     inkscape:zoom="1.2135417"
     inkscape:cx="512"
     inkscape:cy="384"
     inkscape:current-layer="layer1"
     inkscape:document-units="px"
     showgrid="false"
     gridcolor="blue"
     gridopacity="0.14509804"
     gridempcolor="blue"
     gridempopacity="0.37647059"
     inkscape:window-width="1600"
     inkscape:window-height="1113"
     inkscape:window-x="0"
     inkscape:window-y="25" />
  <metadata
     id="metadata1876">
    <rdf:RDF>
      <cc:Work
         rdf:about="">
        <dc:format>image/svg+xml</dc:format>
        <dc:type
           rdf:resource="http://purl.org/dc/dcmitype/StillImage" />
      </cc:Work>
    </rdf:RDF>
  </metadata>
  <g
     id="layer1"
     inkscape:label="Layer 1"
     inkscape:groupmode="layer">
    <path
       style="opacity:1;fill:#2e3436;fill-opacity:1"
       d="M 891.81962,476.27996 C 891.67072,476.28535 891.51602,476.31807 891.35082,476.34246 C 886.81762,477.01187 881.19452,484.73241 881.19462,490.27996 C 881.19462,497.98125 874.21542,506.15497 867.66332,506.15496 C 864.40762,506.15495 861.57692,504.93813 860.94462,503.27996 C 859.64452,499.87143 854.53832,499.39586 854.53832,502.68621 C 854.53832,503.94545 856.83652,508.31489 859.63212,512.37371 C 863.14212,517.46992 865.00072,522.99889 865.60082,530.27996 C 866.36162,539.51175 865.88622,541.49199 861.75712,545.99871 C 856.24032,552.01982 850.76742,565.23312 850.72582,572.68621 C 850.70982,575.55971 849.96502,579.07712 849.06962,580.49871 C 848.16192,581.93999 848.18272,586.4663 849.13212,590.71746 C 850.10512,595.07512 850.13602,600.9412 849.19462,604.40496 C 847.28602,611.42703 849.21592,618.55939 856.00712,629.43621 C 861.61782,638.42228 861.05962,647.26855 853.78832,663.81121 C 851.20232,669.69455 847.70142,679.84187 846.03832,686.3737 C 842.49192,700.3018 831.66692,712.9048 821.85082,714.9362 C 819.76662,716.8142 817.47832,718.6459 815.03832,720.4362 C 731.90952,734.2568 680.53302,734.3973 644.03831,738.0925 C 609.68211,741.5711 566.89471,740.1077 521.94461,737.9987 C 478.93412,735.9807 420.50495,751.3568 377.38207,745.3425 C 333.84499,739.2703 186.47582,747.6237 186.47582,747.6237 C 186.47582,747.6237 151.78438,743.2307 87.03832,751.5925 C 20.36884,760.2027 0.03832,760.3737 0.03832,760.3737 L 0,768 L 1024.0383,767.9987 L 1024.0383,677.62371 C 1023.7227,677.27366 1023.3478,677.12372 1022.9133,677.12371 C 1021.3441,677.1237 1020.0697,677.71892 1020.0695,678.43621 C 1020.0698,679.81397 1008.9137,684.9653 1001.2571,687.1237 C 996.50802,688.4624 996.39942,687.2782 1000.2571,674.18621 C 1000.7856,672.39274 999.44052,669.16413 997.28832,666.99871 C 995.14242,664.83951 993.41332,662.23885 993.41332,661.18621 C 993.41332,660.13356 992.10762,659.2487 990.53832,659.24871 C 988.96902,659.2487 987.69452,658.34331 987.69462,657.21746 C 987.69462,656.09153 985.80212,655.44362 983.47582,655.77996 C 979.83282,656.30668 978.67332,654.71111 975.10082,644.40496 C 972.81952,637.82365 967.97852,627.92009 964.31962,622.37371 C 957.84352,612.55713 953.86282,608.61351 924.25712,582.68621 C 916.44392,575.84391 909.97352,569.18955 909.88212,567.87371 C 909.79062,566.55788 908.82922,565.46748 907.75712,565.46746 C 906.68492,565.46745 905.00152,563.31789 904.00712,560.68621 C 903.01272,558.05455 901.41872,555.90493 900.44462,555.90496 C 899.47042,555.90495 899.11612,554.1978 899.66332,552.09246 C 900.84552,547.54373 901.48522,547.44434 908.25712,550.99871 C 917.89372,556.05679 917.51242,546.36025 907.44462,530.49871 C 904.12132,525.26303 901.23982,517.67892 900.69462,512.81121 C 900.17002,508.12808 898.53602,503.32212 897.10082,502.12371 C 895.39602,500.70009 894.47582,495.7693 894.47582,487.90496 C 894.47582,478.42751 894.05252,476.19901 891.81962,476.27996 z M 878.97582,653.52996 C 879.86922,653.52995 882.82522,655.44276 885.50712,657.81121 C 888.18892,660.17972 892.65372,664.06768 895.44462,666.43621 C 898.23542,668.80465 900.03842,670.74868 899.41332,670.74871 C 898.78822,670.7487 900.43442,674.21773 903.10082,678.46746 C 905.76712,682.71724 907.43242,687.0439 906.78832,688.0925 C 906.14422,689.1411 902.49362,689.7657 898.69462,689.4675 C 892.75622,689.0012 891.44222,689.6808 889.19462,694.3112 C 887.75672,697.2735 885.15492,700.1505 883.41332,700.6862 C 881.67162,701.2219 878.75822,702.4195 876.97582,703.3737 C 872.43032,705.8074 871.00612,702.5277 873.35082,695.0925 C 875.01532,689.8139 876.70132,673.54731 877.22582,657.81121 C 877.30482,655.44275 878.08252,653.52998 878.97582,653.52996 z M 862.28832,678.40496 C 864.31972,678.40495 863.46572,695.8093 861.25712,699.405 C 859.16302,702.8141 852.63212,701.6769 852.63212,697.905 C 852.63202,693.1109 859.91972,678.40491 862.28832,678.40496 z "
       id="path32519"
       sodipodi:nodetypes="csssssssssssssssccssscsccccssssssssssssssssssssssccsssssssssssccssc" />
    <path
       style="opacity:0.05;fill:#2e3436;fill-opacity:1;fill-rule:nonzero;stroke:none;stroke-width:2;stroke-linejoin:round;stroke-miterlimit:4;stroke-dasharray:none;stroke-opacity:1"
       d="M 0 1.09375 L 0 760.75 C 1.8947806e-14 760.75 20.33052 760.57898 87 751.96875 C 151.74606 743.60694 186.4375 748.00002 186.4375 748 C 186.4375 748 333.80667 739.64659 377.34375 745.71875 C 420.46663 751.73311 478.8958 736.35697 521.90625 738.375 C 566.85644 740.48403 609.64382 741.94742 644 738.46875 C 680.49466 734.77354 731.87118 734.63308 815 720.8125 C 817.43998 719.02218 819.72828 717.19053 821.8125 715.3125 C 831.62864 713.28113 842.45357 700.67812 846 686.75 C 846.9902 682.86104 848.6316 677.69548 850.34375 672.90625 C 522.9358 561.62522 281.24152 307.19144 233.21875 1.09375 L 0 1.09375 z M 862.25 678.78125 C 859.88142 678.7812 852.59373 693.48714 852.59375 698.28125 C 852.59375 702.05316 859.12467 703.19041 861.21875 699.78125 C 863.42743 696.18556 864.28141 678.78124 862.25 678.78125 z M 875.625 681.15625 C 874.93888 687.65044 874.1269 692.88612 873.3125 695.46875 C 870.96779 702.904 872.39196 706.18364 876.9375 703.75 C 878.71994 702.79579 881.63328 701.59819 883.375 701.0625 C 885.11664 700.52679 887.71836 697.64974 889.15625 694.6875 C 891.40391 690.05711 892.71788 689.37752 898.65625 689.84375 C 900.60003 689.99635 902.48552 689.88876 903.96875 689.625 C 894.45649 686.92124 885.00699 684.09485 875.625 681.15625 z M 0 768.375 L 0 776.96875 L 1023.8438 776.96875 L 1023.8438 768.375 L 0 768.375 z "
       id="rect13763" />
    <path
       style="opacity:1;fill:#eeeeec;fill-opacity:0.94117647"
       d="M 692.58043,83.581998 C 693.15213,83.581998 693.70555,83.600166 694.27409,83.613362 C 661.04483,86.442013 634.93333,114.32859 634.93333,148.28601 C 634.93333,184.12014 664.02277,213.20958 699.85689,213.20958 C 735.10984,213.20958 763.79545,185.04277 764.71772,150.01104 C 764.8806,151.99206 765,153.97876 765,156.00157 C 765,195.9849 732.56375,228.4525 692.58043,228.4525 C 652.5971,228.4525 620.12952,195.9849 620.1295,156.00157 C 620.1295,116.01824 652.59709,83.582 692.58043,83.581998 z "
       id="path4662" />
  </g>
</svg>
