<?xml version="1.0" encoding="UTF-8" standalone="no"?>
<!-- Created with Inkscape (http://www.inkscape.org/) -->
<svg
   xmlns:dc="http://purl.org/dc/elements/1.1/"
   xmlns:cc="http://creativecommons.org/ns#"
   xmlns:rdf="http://www.w3.org/1999/02/22-rdf-syntax-ns#"
   xmlns:svg="http://www.w3.org/2000/svg"
   xmlns="http://www.w3.org/2000/svg"
   xmlns:xlink="http://www.w3.org/1999/xlink"
   xmlns:sodipodi="http://sodipodi.sourceforge.net/DTD/sodipodi-0.dtd"
   xmlns:inkscape="http://www.inkscape.org/namespaces/inkscape"
   width="1600"
   height="1200"
   id="svg3333"
   sodipodi:version="0.32"
   inkscape:version="0.46"
   version="1.0"
   sodipodi:docname="wolvix-draw_the_line.svg"
   inkscape:output_extension="org.inkscape.output.svg.inkscape"
   inkscape:export-filename="/home/wolven/images/wolvix/wallpapers/wolvix-draw_the_line.png"
   inkscape:export-xdpi="90"
   inkscape:export-ydpi="90">
  <defs
     id="defs3335">
    <linearGradient
       id="linearGradient3345">
      <stop
         style="stop-color:#eeeeec;stop-opacity:1;"
         offset="0"
         id="stop3347" />
      <stop
         style="stop-color:#babdb6;stop-opacity:1;"
         offset="1"
         id="stop3349" />
    </linearGradient>
    <inkscape:perspective
       sodipodi:type="inkscape:persp3d"
       inkscape:vp_x="0 : 526.18109 : 1"
       inkscape:vp_y="0 : 1000 : 0"
       inkscape:vp_z="744.09448 : 526.18109 : 1"
       inkscape:persp3d-origin="372.04724 : 350.78739 : 1"
       id="perspective3341" />
    <linearGradient
       inkscape:collect="always"
       xlink:href="#linearGradient3345"
       id="linearGradient3351"
       x1="-644.57141"
       y1="1058.8571"
       x2="2040"
       y2="440"
       gradientUnits="userSpaceOnUse"
       gradientTransform="translate(-1600,-1200)" />
    <filter
       inkscape:collect="always"
       id="filter3966">
      <feGaussianBlur
         inkscape:collect="always"
         stdDeviation="1.2800001"
         id="feGaussianBlur3968" />
    </filter>
    <filter
       inkscape:collect="always"
       id="filter3986"
       x="-0.0134391"
       width="1.0268782"
       y="-0.11206256"
       height="1.2241251">
      <feGaussianBlur
         inkscape:collect="always"
         stdDeviation="2.8920313"
         id="feGaussianBlur3988" />
    </filter>
    <filter
       inkscape:collect="always"
       id="filter3298"
       x="-0.020158649"
       width="1.0403173"
       y="-0.16809384"
       height="1.3361877">
      <feGaussianBlur
         inkscape:collect="always"
         stdDeviation="3.795791"
         id="feGaussianBlur3300" />
    </filter>
  </defs>
  <sodipodi:namedview
     id="base"
     pagecolor="#ffffff"
     bordercolor="#666666"
     borderopacity="1.0"
     gridtolerance="10000"
     guidetolerance="10"
     objecttolerance="10"
     inkscape:pageopacity="0.0"
     inkscape:pageshadow="2"
     inkscape:zoom="0.5"
     inkscape:cx="659.72831"
     inkscape:cy="517.33747"
     inkscape:document-units="px"
     inkscape:current-layer="layer1"
     showgrid="false"
     showguides="true"
     inkscape:guide-bbox="true"
     inkscape:window-width="1600"
     inkscape:window-height="1114"
     inkscape:window-x="0"
     inkscape:window-y="27">
    <inkscape:grid
       type="xygrid"
       id="grid3864"
       visible="true"
       enabled="true" />
  </sodipodi:namedview>
  <metadata
     id="metadata3338">
    <rdf:RDF>
      <cc:Work
         rdf:about="">
        <dc:format>image/svg+xml</dc:format>
        <dc:type
           rdf:resource="http://purl.org/dc/dcmitype/StillImage" />
      </cc:Work>
    </rdf:RDF>
  </metadata>
  <g
     inkscape:label="Layer 1"
     inkscape:groupmode="layer"
     id="layer1">
    <rect
       style="opacity:1;fill:url(#linearGradient3351);fill-opacity:1;fill-rule:nonzero;stroke:none;stroke-width:16.44891930000000002;stroke-linejoin:miter;stroke-miterlimit:4;stroke-dasharray:none;stroke-opacity:1"
       id="rect3343"
       width="1600"
       height="1200"
       x="-1600"
       y="-1200"
       ry="0"
       transform="scale(-1,-1)" />
    <g
       transform="matrix(1.1718749,0,0,1.1718742,-1332.3123,-179.69)"
       id="g3956"
       style="opacity:0.6;fill:#2e3436;filter:url(#filter3966)">
      <path
         style="fill:#2e3436;fill-opacity:1;stroke:none;stroke-width:4;stroke-miterlimit:4;stroke-dasharray:none;stroke-opacity:1"
         d="M 1821.7438,559.2386 C 1821.8047,559.2408 1821.8679,559.25418 1821.9354,559.26415 C 1823.7886,559.5378 1826.0873,562.69388 1826.0872,564.96167 C 1826.0873,568.1099 1828.9402,571.4512 1831.6187,571.4512 C 1832.9496,571.4512 1834.1068,570.9538 1834.3652,570.2759 C 1834.8967,568.8826 1836.984,568.6882 1836.9841,570.0332 C 1836.984,570.548 1836.0446,572.3342 1834.9018,573.9934 C 1833.467,576.0767 1832.7071,578.3369 1832.4618,581.3133 C 1832.1508,585.0871 1832.3452,585.8967 1834.0331,587.739 C 1836.2883,590.2003 1838.5256,595.6018 1838.5425,598.6486 C 1838.5491,599.8232 1838.8536,601.2611 1839.2196,601.8422 C 1839.5907,602.4314 1839.5822,604.2817 1839.1941,606.0196 C 1838.7964,607.8009 1838.7837,610.1989 1839.1685,611.6149 C 1839.9488,614.4854 1839.1598,617.4011 1836.3836,621.8474 C 1834.0901,625.5208 1834.3182,629.1371 1837.2907,635.8996 C 1838.3478,638.3046 1839.7789,642.4528 1840.4588,645.1229 C 1841.9085,650.8166 1846.3336,655.9686 1850.3464,656.799 C 1851.1984,657.5667 1847.8584,659.3843 1848.8559,660.1162 C 1849.1915,660.172 1840.7419,660.001 1846.8467,659.6282 C 1841.3768,663.8866 1839.9213,653.8624 1841.03,667.3744 C 1821.5014,664.4529 1810.5786,665.8342 1782.4442,658.6098 L 1767.6941,641.546 C 1767.8231,641.4029 1767.9763,641.3416 1768.154,641.3416 C 1768.7954,641.3416 1769.3164,641.5849 1769.3165,641.8781 C 1769.3163,642.4413 1773.8769,644.5472 1777.0068,645.4295 C 1778.9483,645.9767 1778.9926,645.4927 1777.4156,640.1408 C 1777.1996,639.4076 1777.7494,638.0878 1778.6292,637.2026 C 1779.5064,636.3199 1780.2133,635.2568 1780.2133,634.8265 C 1780.2133,634.3962 1780.747,634.0345 1781.3886,634.0345 C 1782.03,634.0345 1782.5511,633.6644 1782.5511,633.2041 C 1782.5511,632.7438 1783.3247,632.479 1784.2756,632.6165 C 1785.7648,632.8318 1786.2389,632.1795 1787.6992,627.9665 C 1788.6318,625.2761 1790.6108,621.2276 1792.1065,618.9603 C 1794.7539,614.9474 1796.3812,613.3353 1808.4837,602.7365 C 1811.6777,599.9394 1814.3227,597.2192 1814.3601,596.6813 C 1814.3975,596.1433 1814.7905,595.6976 1815.2287,595.6976 C 1815.6671,595.6976 1816.3552,594.8189 1816.7617,593.7431 C 1817.1682,592.6673 1817.8198,591.7885 1818.218,591.7885 C 1818.6163,591.7885 1818.7611,591.0907 1818.5374,590.23 C 1818.0541,588.3705 1817.7926,588.3299 1815.0243,589.7829 C 1811.085,591.8506 1811.2409,587.8868 1815.3565,581.4027 C 1816.7151,579.2624 1817.8929,576.1621 1818.1158,574.1722 C 1818.3303,572.2578 1818.9982,570.2932 1819.5849,569.8033 C 1820.2818,569.2213 1820.658,567.20566 1820.658,563.99079 C 1820.658,560.1165 1820.831,559.20551 1821.7438,559.2386 z M 1826.9942,631.6967 C 1826.629,631.6967 1825.4207,632.4786 1824.3243,633.4468 C 1823.2281,634.4151 1821.4029,636.0044 1820.262,636.9727 C 1819.1212,637.9408 1818.384,638.7355 1818.6396,638.7356 C 1818.8951,638.7356 1818.2222,640.1537 1817.1321,641.8909 C 1816.0422,643.6282 1815.3614,645.3969 1815.6248,645.8255 C 1815.888,646.2542 1817.3804,646.5095 1818.9334,646.3876 C 1821.361,646.197 1821.8981,646.4748 1822.8169,648.3677 C 1823.4047,649.5786 1824.4683,650.7547 1825.1802,650.9737 C 1825.8922,651.1927 1827.0832,651.6823 1827.8118,652.0723 C 1829.6699,653.0672 1830.2522,651.7265 1829.2937,648.687 C 1828.6132,646.5292 1827.924,639.8796 1827.7096,633.4468 C 1827.6773,632.4786 1827.3594,631.6967 1826.9942,631.6967 z M 1833.8159,641.8654 C 1832.9855,641.8654 1833.3346,648.9801 1834.2375,650.45 C 1835.0936,651.8436 1837.7633,651.3787 1837.7633,649.8368 C 1837.7634,647.877 1834.7842,641.8653 1833.8159,641.8654 z"
         id="path3958"
         sodipodi:nodetypes="csssssssssssssssccccccssssssssssscssssssssssccsssssssssssccssc" />
      <path
         style="fill:#2e3436;fill-opacity:1;stroke:none"
         d="M 1819.9861,547.99999 C 1819.481,547.99999 1818.9921,548.01604 1818.4897,548.02771 C 1847.8494,550.52695 1870.9201,575.1661 1870.9201,605.1691 C 1870.9201,636.8302 1845.2182,662.5322 1813.557,662.5322 C 1782.4094,662.5322 1757.0643,637.6454 1756.2494,606.6932 C 1756.1055,608.4436 1756,610.1989 1756,611.9861 C 1756,647.3133 1784.659,676 1819.9861,676 C 1855.3133,676 1884,647.3133 1884,611.9861 C 1884,576.659 1855.3133,547.99999 1819.9861,547.99999 z"
         id="path3960" />
    </g>
    <g
       id="g3868"
       transform="matrix(1.1718749,0,0,1.1718742,-1332.8123,-184.19)">
      <path
         sodipodi:nodetypes="csssssssssssssssccccccssssssssssscssssssssssccsssssssssssccssc"
         id="path3166"
         d="M 1821.7438,559.2386 C 1821.8047,559.2408 1821.8679,559.25418 1821.9354,559.26415 C 1823.7886,559.5378 1826.0873,562.69388 1826.0872,564.96167 C 1826.0873,568.1099 1828.9402,571.4512 1831.6187,571.4512 C 1832.9496,571.4512 1834.1068,570.9538 1834.3652,570.2759 C 1834.8967,568.8826 1836.984,568.6882 1836.9841,570.0332 C 1836.984,570.548 1836.0446,572.3342 1834.9018,573.9934 C 1833.467,576.0767 1832.7071,578.3369 1832.4618,581.3133 C 1832.1508,585.0871 1832.3452,585.8967 1834.0331,587.739 C 1836.2883,590.2003 1838.5256,595.6018 1838.5425,598.6486 C 1838.5491,599.8232 1838.8536,601.2611 1839.2196,601.8422 C 1839.5907,602.4314 1839.5822,604.2817 1839.1941,606.0196 C 1838.7964,607.8009 1838.7837,610.1989 1839.1685,611.6149 C 1839.9488,614.4854 1839.1598,617.4011 1836.3836,621.8474 C 1834.0901,625.5208 1834.3182,629.1371 1837.2907,635.8996 C 1838.3478,638.3046 1839.7789,642.4528 1840.4588,645.1229 C 1841.9085,650.8166 1846.3336,655.9686 1850.3464,656.799 C 1851.1984,657.5667 1847.8584,659.3843 1848.8559,660.1162 C 1849.1915,660.172 1840.7419,660.001 1846.8467,659.6282 C 1841.3768,663.8866 1839.9213,653.8624 1841.03,667.3744 C 1821.5014,664.4529 1810.5786,665.8342 1782.4442,658.6098 L 1767.6941,641.546 C 1767.8231,641.4029 1767.9763,641.3416 1768.154,641.3416 C 1768.7954,641.3416 1769.3164,641.5849 1769.3165,641.8781 C 1769.3163,642.4413 1773.8769,644.5472 1777.0068,645.4295 C 1778.9483,645.9767 1778.9926,645.4927 1777.4156,640.1408 C 1777.1996,639.4076 1777.7494,638.0878 1778.6292,637.2026 C 1779.5064,636.3199 1780.2133,635.2568 1780.2133,634.8265 C 1780.2133,634.3962 1780.747,634.0345 1781.3886,634.0345 C 1782.03,634.0345 1782.5511,633.6644 1782.5511,633.2041 C 1782.5511,632.7438 1783.3247,632.479 1784.2756,632.6165 C 1785.7648,632.8318 1786.2389,632.1795 1787.6992,627.9665 C 1788.6318,625.2761 1790.6108,621.2276 1792.1065,618.9603 C 1794.7539,614.9474 1796.3812,613.3353 1808.4837,602.7365 C 1811.6777,599.9394 1814.3227,597.2192 1814.3601,596.6813 C 1814.3975,596.1433 1814.7905,595.6976 1815.2287,595.6976 C 1815.6671,595.6976 1816.3552,594.8189 1816.7617,593.7431 C 1817.1682,592.6673 1817.8198,591.7885 1818.218,591.7885 C 1818.6163,591.7885 1818.7611,591.0907 1818.5374,590.23 C 1818.0541,588.3705 1817.7926,588.3299 1815.0243,589.7829 C 1811.085,591.8506 1811.2409,587.8868 1815.3565,581.4027 C 1816.7151,579.2624 1817.8929,576.1621 1818.1158,574.1722 C 1818.3303,572.2578 1818.9982,570.2932 1819.5849,569.8033 C 1820.2818,569.2213 1820.658,567.20566 1820.658,563.99079 C 1820.658,560.1165 1820.831,559.20551 1821.7438,559.2386 z M 1826.9942,631.6967 C 1826.629,631.6967 1825.4207,632.4786 1824.3243,633.4468 C 1823.2281,634.4151 1821.4029,636.0044 1820.262,636.9727 C 1819.1212,637.9408 1818.384,638.7355 1818.6396,638.7356 C 1818.8951,638.7356 1818.2222,640.1537 1817.1321,641.8909 C 1816.0422,643.6282 1815.3614,645.3969 1815.6248,645.8255 C 1815.888,646.2542 1817.3804,646.5095 1818.9334,646.3876 C 1821.361,646.197 1821.8981,646.4748 1822.8169,648.3677 C 1823.4047,649.5786 1824.4683,650.7547 1825.1802,650.9737 C 1825.8922,651.1927 1827.0832,651.6823 1827.8118,652.0723 C 1829.6699,653.0672 1830.2522,651.7265 1829.2937,648.687 C 1828.6132,646.5292 1827.924,639.8796 1827.7096,633.4468 C 1827.6773,632.4786 1827.3594,631.6967 1826.9942,631.6967 z M 1833.8159,641.8654 C 1832.9855,641.8654 1833.3346,648.9801 1834.2375,650.45 C 1835.0936,651.8436 1837.7633,651.3787 1837.7633,649.8368 C 1837.7634,647.877 1834.7842,641.8653 1833.8159,641.8654 z"
         style="fill:#555753;fill-opacity:1;stroke:none;stroke-width:4;stroke-miterlimit:4;stroke-dasharray:none;stroke-opacity:1" />
      <path
         id="path4662"
         d="M 1819.9861,547.99999 C 1819.481,547.99999 1818.9921,548.01604 1818.4897,548.02771 C 1847.8494,550.52695 1870.9201,575.1661 1870.9201,605.1691 C 1870.9201,636.8302 1845.2182,662.5322 1813.557,662.5322 C 1782.4094,662.5322 1757.0643,637.6454 1756.2494,606.6932 C 1756.1055,608.4436 1756,610.1989 1756,611.9861 C 1756,647.3133 1784.659,676 1819.9861,676 C 1855.3133,676 1884,647.3133 1884,611.9861 C 1884,576.659 1855.3133,547.99999 1819.9861,547.99999 z"
         style="fill:#babdb6;fill-opacity:1;stroke:none" />
    </g>
    <text
       sodipodi:linespacing="100%"
       id="text2516"
       y="667.4375"
       x="570.19354"
       style="font-size:55.99998856px;font-style:normal;font-variant:normal;font-weight:normal;font-stretch:normal;text-align:start;line-height:100%;writing-mode:lr-tb;text-anchor:start;opacity:0.6;fill:#2e3436;fill-opacity:1;stroke:none;stroke-width:1px;stroke-linecap:butt;stroke-linejoin:miter;stroke-opacity:1;filter:url(#filter3298);font-family:DejaVu Sans;-inkscape-font-specification:DejaVu Sans"
       xml:space="preserve"><tspan
         y="667.4375"
         x="570.19354"
         id="tspan2518"
         sodipodi:role="line">wolvix gnu/linux</tspan></text>
    <text
       xml:space="preserve"
       style="font-size:55.99998856px;font-style:normal;font-variant:normal;font-weight:normal;font-stretch:normal;text-align:start;line-height:100%;writing-mode:lr-tb;text-anchor:start;fill:#555753;fill-opacity:1;stroke:none;stroke-width:1px;stroke-linecap:butt;stroke-linejoin:miter;stroke-opacity:1;font-family:DejaVu Sans;-inkscape-font-specification:DejaVu Sans"
       x="571.69354"
       y="664.4375"
       id="text3938"
       sodipodi:linespacing="100%"><tspan
         sodipodi:role="line"
         id="tspan3940"
         x="571.69354"
         y="664.4375">wolvix gnu/linux</tspan></text>
    <rect
       style="opacity:0.6;fill:#555753;fill-opacity:1;fill-rule:nonzero;stroke:none;stroke-width:9.02999973;stroke-linejoin:miter;stroke-miterlimit:4;stroke-dasharray:none;stroke-opacity:1"
       id="rect3954"
       width="1200"
       height="1.9999995"
       x="200"
       y="698" />
  </g>
</svg>
