<?xml version="1.0" encoding="UTF-8" standalone="no"?>
<!-- Created with Inkscape (http://www.inkscape.org/) -->
<svg
   xmlns:svg="http://www.w3.org/2000/svg"
   xmlns="http://www.w3.org/2000/svg"
   xmlns:xlink="http://www.w3.org/1999/xlink"
   xmlns:inkscape="http://www.inkscape.org/namespaces/inkscape"
   version="1.0"
   width="1600"
   height="1200"
   id="svg2">
  <defs
     id="defs4">
    <linearGradient
       id="linearGradient4764">
      <stop
         id="stop4766"
         style="stop-color:#000000;stop-opacity:1"
         offset="0" />
      <stop
         id="stop4768"
         style="stop-color:#ffffff;stop-opacity:1"
         offset="1" />
    </linearGradient>
    <linearGradient
       id="linearGradient3253">
      <stop
         id="stop3255"
         style="stop-color:#2e3436;stop-opacity:1"
         offset="0" />
      <stop
         id="stop3257"
         style="stop-color:#171a22;stop-opacity:1"
         offset="0.63879418" />
      <stop
         id="stop3259"
         style="stop-color:#00000f;stop-opacity:0.94117647"
         offset="1" />
    </linearGradient>
    <linearGradient
       id="linearGradient3330">
      <stop
         id="stop3332"
         style="stop-color:#000000;stop-opacity:1"
         offset="0" />
      <stop
         id="stop3334"
         style="stop-color:#ffffff;stop-opacity:0"
         offset="1" />
    </linearGradient>
    <linearGradient
       id="linearGradient3189">
      <stop
         id="stop3191"
         style="stop-color:#2e3436;stop-opacity:1"
         offset="0" />
      <stop
         id="stop3197"
         style="stop-color:#171a22;stop-opacity:1"
         offset="0.60263157" />
      <stop
         id="stop3193"
         style="stop-color:#00000f;stop-opacity:0.94117647"
         offset="1" />
    </linearGradient>
    <linearGradient
       id="linearGradient3179">
      <stop
         id="stop3181"
         style="stop-color:#000000;stop-opacity:1"
         offset="0" />
      <stop
         id="stop3183"
         style="stop-color:#2e3436;stop-opacity:1"
         offset="1" />
    </linearGradient>
    <linearGradient
       x1="7.5714598"
       y1="11.933593"
       x2="7.5714598"
       y2="781.93359"
       id="linearGradient3195"
       xlink:href="#linearGradient3189"
       gradientUnits="userSpaceOnUse"
       gradientTransform="matrix(1.5625,0,0,1.5625,252.77316,-438.11973)" />
    <linearGradient
       x1="57.571461"
       y1="541.93359"
       x2="57.571461"
       y2="391.93359"
       id="linearGradient3350"
       xlink:href="#linearGradient3330"
       gradientUnits="userSpaceOnUse"
       gradientTransform="matrix(0.3100395,0,0,0.3100395,-112.94877,-713.67452)" />
    <mask
       id="mask3346">
      <rect
         width="114.71461"
         height="37.204739"
         x="-147.80606"
         y="-573.55725"
         transform="scale(1,-1)"
         id="rect3348"
         style="opacity:1;fill:url(#linearGradient3350);fill-opacity:1;stroke:none;stroke-width:1;stroke-miterlimit:4;stroke-dasharray:none;stroke-opacity:1" />
    </mask>
    <linearGradient
       x1="7.5714598"
       y1="11.933593"
       x2="7.5714598"
       y2="694.36914"
       id="linearGradient2443"
       xlink:href="#linearGradient3253"
       gradientUnits="userSpaceOnUse"
       gradientTransform="matrix(1.5625,0,0,1.5625,705.20169,-20.05332)" />
    <filter
       id="filter3249">
      <feGaussianBlur
         id="feGaussianBlur3251"
         stdDeviation="0.10016622"
         inkscape:collect="always" />
    </filter>
    <linearGradient
       x1="760"
       y1="1000.0265"
       x2="760"
       y2="689.97559"
       id="linearGradient4812"
       xlink:href="#linearGradient4764"
       gradientUnits="userSpaceOnUse"
       gradientTransform="matrix(0.2020998,0,0,0.1984253,-257.02631,-745.80676)" />
    <mask
       id="mask4808">
      <rect
         width="109.1339"
         height="35.716549"
         ry="0"
         x="-145.87141"
         y="-572.18463"
         transform="scale(1,-1)"
         id="rect4810"
         style="opacity:1;fill:url(#linearGradient4812);fill-opacity:1;stroke:none;stroke-width:2;stroke-miterlimit:4;stroke-dasharray:none;stroke-opacity:1" />
    </mask>
  </defs>
  <rect
     width="1600"
     height="1200"
     x="0"
     y="0"
     id="rect2385"
     style="fill:url(#linearGradient2443);fill-opacity:1;stroke:none;stroke-width:2.19888568;stroke-miterlimit:4;stroke-dasharray:none;stroke-opacity:1" />
  <g
     transform="matrix(5.0396805,0,0,5.0396805,1276.1453,-2011.4575)"
     id="g2520">
    <g
       id="g2516">
      <path
         d="M -126.44655,540.64969 C -126.43021,540.65028 -126.41327,540.65388 -126.39514,540.65655 C -125.89795,540.72996 -125.28121,541.57675 -125.28122,542.18519 C -125.28121,543.02986 -124.51577,543.92634 -123.79713,543.92633 C -123.44007,543.92633 -123.12959,543.79287 -123.06023,543.611 C -122.91763,543.23717 -122.35761,543.18501 -122.3576,543.54588 C -122.35761,543.68399 -122.60967,544.16323 -122.91628,544.60839 C -123.30124,545.16733 -123.50511,545.77374 -123.57093,546.57232 C -123.65437,547.58485 -123.60222,547.80203 -123.14935,548.29632 C -122.54427,548.9567 -121.94402,550.40592 -121.93947,551.22336 C -121.93771,551.53852 -121.85602,551.9243 -121.75781,552.08022 C -121.65824,552.2383 -121.66054,552.73473 -121.76467,553.20099 C -121.87137,553.67893 -121.87477,554.32232 -121.77152,554.70222 C -121.56217,555.47238 -121.77385,556.25465 -122.5187,557.44759 C -123.13406,558.43317 -123.07285,559.40341 -122.27535,561.21779 C -121.99173,561.86306 -121.60775,562.976 -121.42535,563.6924 C -121.03639,565.22 -119.84912,566.60228 -118.77251,566.82508 C -118.54391,567.03106 -119.44002,567.51872 -119.1724,567.71509 C -119.08237,567.73006 -121.34938,567.68418 -119.71145,567.58416 C -121.17905,568.72669 -121.56956,566.03721 -121.27209,569.66246 C -126.51159,568.87861 -129.44218,569.24923 -136.99061,567.31092 L -140.94806,562.73272 C -140.91346,562.69432 -140.87234,562.67787 -140.82467,562.67787 C -140.65258,562.67787 -140.5128,562.74316 -140.51278,562.82183 C -140.51281,562.97294 -139.28922,563.53793 -138.44946,563.77466 C -137.92858,563.92148 -137.91667,563.7916 -138.33978,562.3557 C -138.39773,562.15899 -138.25022,561.80488 -138.01417,561.56739 C -137.77883,561.33057 -137.58917,561.04534 -137.58917,560.92988 C -137.58918,560.81443 -137.44597,560.71737 -137.27384,560.71737 C -137.10173,560.71737 -136.96194,560.61808 -136.96195,560.49459 C -136.96194,560.37111 -136.75439,560.30004 -136.49925,560.33693 C -136.09969,560.39471 -135.97251,560.2197 -135.58069,559.08934 C -135.33049,558.36751 -134.79952,557.28132 -134.39822,556.673 C -133.68792,555.59633 -133.25134,555.16381 -130.00424,552.32014 C -129.14728,551.56969 -128.43764,550.83985 -128.42761,550.69553 C -128.41756,550.55121 -128.31213,550.43162 -128.19455,550.43162 C -128.07694,550.43162 -127.89232,550.19586 -127.78325,549.90722 C -127.67418,549.61858 -127.49937,549.38282 -127.39252,549.38282 C -127.28567,549.38282 -127.24683,549.19559 -127.30684,548.96467 C -127.43651,548.46577 -127.50666,548.45488 -128.24938,548.84472 C -129.3063,549.39947 -129.2645,548.33597 -128.16027,546.59631 C -127.79577,546.02207 -127.47974,545.19026 -127.41994,544.65638 C -127.3624,544.14274 -127.1832,543.61563 -127.02579,543.48419 C -126.83882,543.32805 -126.73789,542.78725 -126.73789,541.9247 C -126.73789,540.88523 -126.69145,540.64082 -126.44655,540.64969 z M -125.03788,560.09016 C -125.13586,560.09015 -125.46006,560.29995 -125.75421,560.55971 C -126.04833,560.81949 -126.53803,561.24591 -126.84414,561.50569 C -127.15022,561.76545 -127.34799,561.97868 -127.27942,561.97868 C -127.21086,561.97868 -127.39141,562.35915 -127.68387,562.82526 C -127.9763,563.29137 -128.15894,563.7659 -128.08829,563.88091 C -128.01765,563.99591 -127.61726,564.06442 -127.20059,564.03172 C -126.54926,563.98057 -126.40516,564.05512 -126.15864,564.56297 C -126.00093,564.88787 -125.71559,565.20341 -125.52456,565.26217 C -125.33355,565.32092 -125.01401,565.45227 -124.81852,565.55693 C -124.31998,565.82385 -124.16377,565.46413 -124.42093,564.64865 C -124.60349,564.06971 -124.78841,562.28562 -124.84594,560.55971 C -124.85461,560.29994 -124.93989,560.09016 -125.03788,560.09016 z M -123.20761,562.8184 C -123.43042,562.8184 -123.33675,564.72727 -123.09451,565.12165 C -122.86482,565.49555 -122.14853,565.37082 -122.14853,564.95713 C -122.14851,564.43132 -122.94783,562.81839 -123.20761,562.8184 z"
         id="path3166"
         style="fill:#eeeeec;fill-opacity:1;stroke:none;stroke-width:4;stroke-miterlimit:4;stroke-dasharray:none;stroke-opacity:1" />
      <path
         d="M -126.91814,537.63438 C -127.05366,537.63438 -127.18484,537.63869 -127.31964,537.64181 C -119.44246,538.31236 -113.25259,544.92302 -113.25259,552.97281 C -113.25259,561.46748 -120.1484,568.36329 -128.64307,568.36329 C -136.99996,568.36329 -143.80003,561.6862 -144.01866,553.38174 C -144.05728,553.85135 -144.08558,554.32231 -144.08558,554.80183 C -144.08558,564.28009 -136.39639,571.9767 -126.91814,571.9767 C -117.43988,571.9767 -109.74326,564.28009 -109.74326,554.80183 C -109.74326,545.32356 -117.43988,537.63438 -126.91814,537.63438 z"
         id="path4662"
         style="fill:#888a85;fill-opacity:1;stroke:none" />
    </g>
    <g
       transform="matrix(1.00077,0,0,1.00077,-0.646021,3.5351)"
       id="g2488">
      <g
         id="g2481">
        <g
           id="g2475">
          <g
             id="g2470">
            <path
               d="M -56.378542,539.73746 C -56.39557,539.74226 -56.413627,539.75479 -56.433015,539.77148 C -56.528647,539.85373 -56.544233,539.94179 -56.480653,540.00961 C -56.378281,540.11884 -56.261649,540.01251 -56.249206,539.79869 L -56.249206,539.74426 L -56.317254,539.73746 C -56.34551,539.73559 -56.361515,539.73265 -56.378542,539.73746 z M -56.868696,540.00281 C -57.018032,540.01843 -57.185205,540.06743 -57.331617,540.13888 C -57.446726,540.19506 -57.496395,540.23524 -57.64477,540.37702 C -57.872181,540.59434 -57.896635,540.62967 -57.896635,540.79885 C -57.896635,540.90721 -57.889236,540.94368 -57.855806,541.01658 C -57.802211,541.13348 -57.694398,541.24505 -57.583509,541.30234 C -57.504425,541.34319 -57.487837,541.35092 -57.420132,541.34316 C -57.199398,541.31786 -56.841401,541.08428 -56.684901,540.86689 C -56.584993,540.72816 -56.46009,540.46792 -56.460241,540.39743 C -56.46055,540.2672 -56.589928,540.07866 -56.712127,540.02322 C -56.762324,540.00044 -56.795006,539.9951 -56.868696,540.00281 z M -58.025999,540.21373 C -58.095145,540.21099 -58.243829,540.31149 -58.243829,540.37021 C -58.243829,540.38477 -58.234371,540.4121 -58.216603,540.43145 C -58.181381,540.46976 -58.11872,540.47484 -58.080451,540.44505 C -58.039924,540.41353 -57.978355,540.31098 -57.978334,540.27496 C -57.978334,540.25625 -57.986412,540.23101 -57.998772,540.22053 C -58.004558,540.21561 -58.016129,540.21412 -58.025999,540.21373 z M -58.556975,540.5335 C -58.662036,540.5368 -58.771051,540.55743 -58.856525,540.60154 C -59.095796,540.72501 -59.220987,540.96245 -59.210527,541.26832 C -59.205943,541.40189 -59.203019,541.42655 -59.16289,541.49284 C -59.128327,541.54986 -59.093695,541.57663 -59.013087,541.62212 C -58.876963,541.69897 -58.821372,541.69519 -58.6659,541.6017 C -58.531869,541.52112 -58.321945,541.31751 -58.250637,541.19348 C -58.133002,540.98888 -58.091473,540.76986 -58.155356,540.66278 C -58.210048,540.57105 -58.381923,540.528 -58.556975,540.5335 z M -55.377823,540.55392 C -55.454265,540.55154 -55.576395,540.59802 -55.636503,540.65597 C -55.706322,540.72328 -55.707331,540.75882 -55.629715,540.83968 C -55.594562,540.87628 -55.552312,540.90771 -55.534393,540.90771 C -55.416079,540.90771 -55.25176,540.64749 -55.323371,540.57433 C -55.33462,540.56282 -55.352347,540.55471 -55.377823,540.55392 z M -55.976903,540.85328 C -56.208157,540.89647 -56.631327,541.1442 -56.807408,541.34996 C -56.937074,541.50145 -56.994038,541.69105 -56.950395,541.82623 C -56.915483,541.9343 -56.816447,542.02444 -56.678092,542.07117 C -56.595233,542.09913 -56.50105,542.08364 -56.344508,542.02354 C -56.144144,541.94661 -56.054127,541.88845 -55.861162,541.69696 C -55.635103,541.47262 -55.609277,541.41351 -55.609277,541.20708 C -55.609277,541.0741 -55.613052,541.06023 -55.650147,541.00297 C -55.700605,540.92499 -55.800663,540.86426 -55.895224,540.85328 C -55.919025,540.85052 -55.94387,540.84711 -55.976903,540.85328 z M -76.665273,541.26151 L -76.665273,554.66504 L -73.669912,554.66504 L -73.669912,541.26151 L -76.665273,541.26151 z M -58.768017,541.90788 C -58.836656,541.90572 -58.915363,541.91136 -59.013087,541.93509 C -59.283819,542.00082 -59.467155,542.13428 -59.564509,542.33652 C -59.658582,542.53191 -59.692466,542.82127 -59.632578,542.92165 C -59.590507,542.99219 -59.527716,543.01344 -59.339843,543.03731 C -59.247883,543.049 -59.147125,543.07475 -59.108417,543.09174 C -59.01643,543.1321 -58.925321,543.22955 -58.842901,543.3707 C -58.782011,543.47499 -58.767949,543.48294 -58.679524,543.52719 C -58.551429,543.59127 -58.464343,543.68468 -58.380001,543.84016 C -58.301136,543.98556 -58.230789,544.05562 -58.155356,544.0783 C -57.993138,544.12703 -57.718741,544.01925 -57.542639,543.84016 C -57.44943,543.74536 -57.405369,543.65326 -57.338432,543.36389 C -57.309545,543.23909 -57.270075,543.10803 -57.215884,542.98288 C -57.169969,542.87681 -57.122325,542.74683 -57.113766,542.69712 C -57.089711,542.5576 -57.112195,542.39489 -57.168219,542.28209 C -57.229898,542.15794 -57.298214,542.11503 -57.569859,542.03715 L -57.780922,541.98272 L -57.90345,542.01674 C -58.02534,542.0492 -58.034989,542.0464 -58.121301,542.02354 C -58.170949,542.01039 -58.268083,542.00317 -58.332316,542.00313 C -58.428229,542.00308 -58.466154,541.98806 -58.563811,541.9487 C -58.635901,541.91963 -58.699392,541.91003 -58.768017,541.90788 z M -55.595674,541.98952 C -55.612008,541.98955 -55.629365,541.99028 -55.656942,541.99633 C -55.865054,542.04195 -55.965791,542.18625 -55.854354,542.28209 C -55.79973,542.32908 -55.754797,542.32867 -55.690955,542.28889 C -55.632138,542.25222 -55.605372,542.21492 -55.568448,542.10519 C -55.54048,542.02211 -55.546726,541.98945 -55.595674,541.98952 z M -56.031376,542.24807 C -56.058382,542.2479 -56.089363,542.24936 -56.126657,542.25487 C -56.368172,542.29057 -56.560739,542.38159 -56.698483,542.52022 C -56.866486,542.68925 -56.945241,542.8647 -56.977622,543.16658 C -56.98666,543.25086 -56.984471,543.27225 -56.950395,543.34348 C -56.907123,543.43385 -56.879478,543.4591 -56.793826,543.50678 C -56.745859,543.53347 -56.723808,543.53367 -56.657674,543.52719 C -56.516307,543.51333 -56.383587,543.46043 -56.242391,543.36389 C -55.859069,543.1018 -55.669686,542.61073 -55.854354,542.35013 C -55.906644,542.27634 -55.950267,542.24856 -56.031376,542.24807 z M -84.08559,544.7995 C -85.712741,544.7995 -86.977683,545.19793 -87.89786,546.09223 C -88.81243,546.98652 -89.259394,548.25212 -89.259386,549.83433 C -89.259386,551.41656 -88.81243,552.68213 -87.89786,553.57643 C -86.977683,554.47072 -85.712743,554.86915 -84.08559,554.86915 C -82.464061,554.86915 -81.182265,554.47072 -80.273313,553.57643 C -79.358771,552.68213 -78.911805,551.41654 -78.911783,549.83433 C -78.911783,548.25212 -79.358749,546.98652 -80.273313,546.09223 C -81.182287,545.19793 -82.464061,544.7995 -84.08559,544.7995 z M -105.32538,545.00361 L -102.80656,554.66504 L -99.538903,554.66504 L -97.97315,547.9973 L -96.339319,554.66504 L -93.071658,554.66504 L -90.620911,545.00361 L -93.548193,545.00361 L -95.113946,551.60332 L -96.6797,545.00361 L -99.198522,545.00361 L -100.83235,551.67136 L -102.3981,545.00361 L -105.32538,545.00361 z M -71.968005,545.00361 L -68.223815,554.66504 L -64.956152,554.66504 L -61.211958,545.00361 L -64.275397,545.00361 L -66.589983,551.67136 L -68.972666,545.00361 L -71.968005,545.00361 z M -59.510057,545.00361 L -59.510057,554.66504 L -56.514694,554.66504 L -56.514694,545.00361 L -59.510057,545.00361 z M -54.608558,545.00361 L -51.204747,549.69825 L -54.812785,554.66504 L -51.613202,554.66504 L -49.502838,551.60332 L -47.392482,554.66504 L -44.192892,554.66504 L -47.732861,549.69825 L -44.329043,545.00361 L -47.528633,545.00361 L -49.502838,547.86122 L -51.408974,545.00361 L -54.608558,545.00361 z M -84.08559,546.97672 C -83.429125,546.97672 -82.935786,547.23213 -82.58792,547.72514 C -82.240033,548.21243 -82.043317,548.91136 -82.043295,549.83433 C -82.043295,550.7573 -82.240033,551.4505 -82.58792,551.94351 C -82.935786,552.4308 -83.429147,552.69193 -84.08559,552.69193 C -84.753286,552.69193 -85.229789,552.4308 -85.583268,551.94351 C -85.931145,551.4505 -86.127887,550.75727 -86.127878,549.83433 C -86.127882,548.91138 -85.931145,548.21243 -85.583268,547.72514 C -85.229789,547.23213 -84.753288,546.97672 -84.08559,546.97672 z"
               id="rect5593"
               style="fill:#eeeeec;fill-opacity:1;stroke:none" />
            <text
               x="-87.085602"
               y="561.97699"
               id="text2453"
               xml:space="preserve"
               style="font-size:8px;font-style:normal;font-variant:normal;font-weight:normal;font-stretch:normal;text-align:start;line-height:125%;text-anchor:start;fill:#eeeeec;fill-opacity:1;stroke:none;stroke-width:1px;stroke-linecap:butt;stroke-linejoin:miter;stroke-opacity:1;font-family:Sans"><tspan
                 x="-87.085602"
                 y="561.97699"
                 id="tspan2463">-gnu/linux-</tspan></text>
          </g>
        </g>
      </g>
    </g>
  </g>
  <g
     transform="matrix(5.0396805,0,0,-5.0396805,1275.1453,3758.6278)"
     mask="url(#mask4808)"
     id="g4738">
    <g
       id="g4740">
      <path
         d="M -126.44655,540.64969 C -126.43021,540.65028 -126.41327,540.65388 -126.39514,540.65655 C -125.89795,540.72996 -125.28121,541.57675 -125.28122,542.18519 C -125.28121,543.02986 -124.51577,543.92634 -123.79713,543.92633 C -123.44007,543.92633 -123.12959,543.79287 -123.06023,543.611 C -122.91763,543.23717 -122.35761,543.18501 -122.3576,543.54588 C -122.35761,543.68399 -122.60967,544.16323 -122.91628,544.60839 C -123.30124,545.16733 -123.50511,545.77374 -123.57093,546.57232 C -123.65437,547.58485 -123.60222,547.80203 -123.14935,548.29632 C -122.54427,548.9567 -121.94402,550.40592 -121.93947,551.22336 C -121.93771,551.53852 -121.85602,551.9243 -121.75781,552.08022 C -121.65824,552.2383 -121.66054,552.73473 -121.76467,553.20099 C -121.87137,553.67893 -121.87477,554.32232 -121.77152,554.70222 C -121.56217,555.47238 -121.77385,556.25465 -122.5187,557.44759 C -123.13406,558.43317 -123.07285,559.40341 -122.27535,561.21779 C -121.99173,561.86306 -121.60775,562.976 -121.42535,563.6924 C -121.03639,565.22 -119.84912,566.60228 -118.77251,566.82508 C -118.54391,567.03106 -119.44002,567.51872 -119.1724,567.71509 C -119.08237,567.73006 -121.34938,567.68418 -119.71145,567.58416 C -121.17905,568.72669 -121.56956,566.03721 -121.27209,569.66246 C -126.51159,568.87861 -129.44218,569.24923 -136.99061,567.31092 L -140.94806,562.73272 C -140.91346,562.69432 -140.87234,562.67787 -140.82467,562.67787 C -140.65258,562.67787 -140.5128,562.74316 -140.51278,562.82183 C -140.51281,562.97294 -139.28922,563.53793 -138.44946,563.77466 C -137.92858,563.92148 -137.91667,563.7916 -138.33978,562.3557 C -138.39773,562.15899 -138.25022,561.80488 -138.01417,561.56739 C -137.77883,561.33057 -137.58917,561.04534 -137.58917,560.92988 C -137.58918,560.81443 -137.44597,560.71737 -137.27384,560.71737 C -137.10173,560.71737 -136.96194,560.61808 -136.96195,560.49459 C -136.96194,560.37111 -136.75439,560.30004 -136.49925,560.33693 C -136.09969,560.39471 -135.97251,560.2197 -135.58069,559.08934 C -135.33049,558.36751 -134.79952,557.28132 -134.39822,556.673 C -133.68792,555.59633 -133.25134,555.16381 -130.00424,552.32014 C -129.14728,551.56969 -128.43764,550.83985 -128.42761,550.69553 C -128.41756,550.55121 -128.31213,550.43162 -128.19455,550.43162 C -128.07694,550.43162 -127.89232,550.19586 -127.78325,549.90722 C -127.67418,549.61858 -127.49937,549.38282 -127.39252,549.38282 C -127.28567,549.38282 -127.24683,549.19559 -127.30684,548.96467 C -127.43651,548.46577 -127.50666,548.45488 -128.24938,548.84472 C -129.3063,549.39947 -129.2645,548.33597 -128.16027,546.59631 C -127.79577,546.02207 -127.47974,545.19026 -127.41994,544.65638 C -127.3624,544.14274 -127.1832,543.61563 -127.02579,543.48419 C -126.83882,543.32805 -126.73789,542.78725 -126.73789,541.9247 C -126.73789,540.88523 -126.69145,540.64082 -126.44655,540.64969 z M -125.03788,560.09016 C -125.13586,560.09015 -125.46006,560.29995 -125.75421,560.55971 C -126.04833,560.81949 -126.53803,561.24591 -126.84414,561.50569 C -127.15022,561.76545 -127.34799,561.97868 -127.27942,561.97868 C -127.21086,561.97868 -127.39141,562.35915 -127.68387,562.82526 C -127.9763,563.29137 -128.15894,563.7659 -128.08829,563.88091 C -128.01765,563.99591 -127.61726,564.06442 -127.20059,564.03172 C -126.54926,563.98057 -126.40516,564.05512 -126.15864,564.56297 C -126.00093,564.88787 -125.71559,565.20341 -125.52456,565.26217 C -125.33355,565.32092 -125.01401,565.45227 -124.81852,565.55693 C -124.31998,565.82385 -124.16377,565.46413 -124.42093,564.64865 C -124.60349,564.06971 -124.78841,562.28562 -124.84594,560.55971 C -124.85461,560.29994 -124.93989,560.09016 -125.03788,560.09016 z M -123.20761,562.8184 C -123.43042,562.8184 -123.33675,564.72727 -123.09451,565.12165 C -122.86482,565.49555 -122.14853,565.37082 -122.14853,564.95713 C -122.14851,564.43132 -122.94783,562.81839 -123.20761,562.8184 z"
         id="path4742"
         style="fill:#eeeeec;fill-opacity:1;stroke:none;stroke-width:4;stroke-miterlimit:4;stroke-dasharray:none;stroke-opacity:1" />
      <path
         d="M -126.91814,537.63438 C -127.05366,537.63438 -127.18484,537.63869 -127.31964,537.64181 C -119.44246,538.31236 -113.25259,544.92302 -113.25259,552.97281 C -113.25259,561.46748 -120.1484,568.36329 -128.64307,568.36329 C -136.99996,568.36329 -143.80003,561.6862 -144.01866,553.38174 C -144.05728,553.85135 -144.08558,554.32231 -144.08558,554.80183 C -144.08558,564.28009 -136.39639,571.9767 -126.91814,571.9767 C -117.43988,571.9767 -109.74326,564.28009 -109.74326,554.80183 C -109.74326,545.32356 -117.43988,537.63438 -126.91814,537.63438 z"
         id="path4744"
         style="fill:#888a85;fill-opacity:1;stroke:none" />
    </g>
    <g
       transform="matrix(1.00077,0,0,1.00077,-0.646021,3.5351)"
       id="g4746">
      <g
         id="g4748">
        <g
           id="g4750">
          <g
             id="g4752">
            <path
               d="M -56.378542,539.73746 C -56.39557,539.74226 -56.413627,539.75479 -56.433015,539.77148 C -56.528647,539.85373 -56.544233,539.94179 -56.480653,540.00961 C -56.378281,540.11884 -56.261649,540.01251 -56.249206,539.79869 L -56.249206,539.74426 L -56.317254,539.73746 C -56.34551,539.73559 -56.361515,539.73265 -56.378542,539.73746 z M -56.868696,540.00281 C -57.018032,540.01843 -57.185205,540.06743 -57.331617,540.13888 C -57.446726,540.19506 -57.496395,540.23524 -57.64477,540.37702 C -57.872181,540.59434 -57.896635,540.62967 -57.896635,540.79885 C -57.896635,540.90721 -57.889236,540.94368 -57.855806,541.01658 C -57.802211,541.13348 -57.694398,541.24505 -57.583509,541.30234 C -57.504425,541.34319 -57.487837,541.35092 -57.420132,541.34316 C -57.199398,541.31786 -56.841401,541.08428 -56.684901,540.86689 C -56.584993,540.72816 -56.46009,540.46792 -56.460241,540.39743 C -56.46055,540.2672 -56.589928,540.07866 -56.712127,540.02322 C -56.762324,540.00044 -56.795006,539.9951 -56.868696,540.00281 z M -58.025999,540.21373 C -58.095145,540.21099 -58.243829,540.31149 -58.243829,540.37021 C -58.243829,540.38477 -58.234371,540.4121 -58.216603,540.43145 C -58.181381,540.46976 -58.11872,540.47484 -58.080451,540.44505 C -58.039924,540.41353 -57.978355,540.31098 -57.978334,540.27496 C -57.978334,540.25625 -57.986412,540.23101 -57.998772,540.22053 C -58.004558,540.21561 -58.016129,540.21412 -58.025999,540.21373 z M -58.556975,540.5335 C -58.662036,540.5368 -58.771051,540.55743 -58.856525,540.60154 C -59.095796,540.72501 -59.220987,540.96245 -59.210527,541.26832 C -59.205943,541.40189 -59.203019,541.42655 -59.16289,541.49284 C -59.128327,541.54986 -59.093695,541.57663 -59.013087,541.62212 C -58.876963,541.69897 -58.821372,541.69519 -58.6659,541.6017 C -58.531869,541.52112 -58.321945,541.31751 -58.250637,541.19348 C -58.133002,540.98888 -58.091473,540.76986 -58.155356,540.66278 C -58.210048,540.57105 -58.381923,540.528 -58.556975,540.5335 z M -55.377823,540.55392 C -55.454265,540.55154 -55.576395,540.59802 -55.636503,540.65597 C -55.706322,540.72328 -55.707331,540.75882 -55.629715,540.83968 C -55.594562,540.87628 -55.552312,540.90771 -55.534393,540.90771 C -55.416079,540.90771 -55.25176,540.64749 -55.323371,540.57433 C -55.33462,540.56282 -55.352347,540.55471 -55.377823,540.55392 z M -55.976903,540.85328 C -56.208157,540.89647 -56.631327,541.1442 -56.807408,541.34996 C -56.937074,541.50145 -56.994038,541.69105 -56.950395,541.82623 C -56.915483,541.9343 -56.816447,542.02444 -56.678092,542.07117 C -56.595233,542.09913 -56.50105,542.08364 -56.344508,542.02354 C -56.144144,541.94661 -56.054127,541.88845 -55.861162,541.69696 C -55.635103,541.47262 -55.609277,541.41351 -55.609277,541.20708 C -55.609277,541.0741 -55.613052,541.06023 -55.650147,541.00297 C -55.700605,540.92499 -55.800663,540.86426 -55.895224,540.85328 C -55.919025,540.85052 -55.94387,540.84711 -55.976903,540.85328 z M -76.665273,541.26151 L -76.665273,554.66504 L -73.669912,554.66504 L -73.669912,541.26151 L -76.665273,541.26151 z M -58.768017,541.90788 C -58.836656,541.90572 -58.915363,541.91136 -59.013087,541.93509 C -59.283819,542.00082 -59.467155,542.13428 -59.564509,542.33652 C -59.658582,542.53191 -59.692466,542.82127 -59.632578,542.92165 C -59.590507,542.99219 -59.527716,543.01344 -59.339843,543.03731 C -59.247883,543.049 -59.147125,543.07475 -59.108417,543.09174 C -59.01643,543.1321 -58.925321,543.22955 -58.842901,543.3707 C -58.782011,543.47499 -58.767949,543.48294 -58.679524,543.52719 C -58.551429,543.59127 -58.464343,543.68468 -58.380001,543.84016 C -58.301136,543.98556 -58.230789,544.05562 -58.155356,544.0783 C -57.993138,544.12703 -57.718741,544.01925 -57.542639,543.84016 C -57.44943,543.74536 -57.405369,543.65326 -57.338432,543.36389 C -57.309545,543.23909 -57.270075,543.10803 -57.215884,542.98288 C -57.169969,542.87681 -57.122325,542.74683 -57.113766,542.69712 C -57.089711,542.5576 -57.112195,542.39489 -57.168219,542.28209 C -57.229898,542.15794 -57.298214,542.11503 -57.569859,542.03715 L -57.780922,541.98272 L -57.90345,542.01674 C -58.02534,542.0492 -58.034989,542.0464 -58.121301,542.02354 C -58.170949,542.01039 -58.268083,542.00317 -58.332316,542.00313 C -58.428229,542.00308 -58.466154,541.98806 -58.563811,541.9487 C -58.635901,541.91963 -58.699392,541.91003 -58.768017,541.90788 z M -55.595674,541.98952 C -55.612008,541.98955 -55.629365,541.99028 -55.656942,541.99633 C -55.865054,542.04195 -55.965791,542.18625 -55.854354,542.28209 C -55.79973,542.32908 -55.754797,542.32867 -55.690955,542.28889 C -55.632138,542.25222 -55.605372,542.21492 -55.568448,542.10519 C -55.54048,542.02211 -55.546726,541.98945 -55.595674,541.98952 z M -56.031376,542.24807 C -56.058382,542.2479 -56.089363,542.24936 -56.126657,542.25487 C -56.368172,542.29057 -56.560739,542.38159 -56.698483,542.52022 C -56.866486,542.68925 -56.945241,542.8647 -56.977622,543.16658 C -56.98666,543.25086 -56.984471,543.27225 -56.950395,543.34348 C -56.907123,543.43385 -56.879478,543.4591 -56.793826,543.50678 C -56.745859,543.53347 -56.723808,543.53367 -56.657674,543.52719 C -56.516307,543.51333 -56.383587,543.46043 -56.242391,543.36389 C -55.859069,543.1018 -55.669686,542.61073 -55.854354,542.35013 C -55.906644,542.27634 -55.950267,542.24856 -56.031376,542.24807 z M -84.08559,544.7995 C -85.712741,544.7995 -86.977683,545.19793 -87.89786,546.09223 C -88.81243,546.98652 -89.259394,548.25212 -89.259386,549.83433 C -89.259386,551.41656 -88.81243,552.68213 -87.89786,553.57643 C -86.977683,554.47072 -85.712743,554.86915 -84.08559,554.86915 C -82.464061,554.86915 -81.182265,554.47072 -80.273313,553.57643 C -79.358771,552.68213 -78.911805,551.41654 -78.911783,549.83433 C -78.911783,548.25212 -79.358749,546.98652 -80.273313,546.09223 C -81.182287,545.19793 -82.464061,544.7995 -84.08559,544.7995 z M -105.32538,545.00361 L -102.80656,554.66504 L -99.538903,554.66504 L -97.97315,547.9973 L -96.339319,554.66504 L -93.071658,554.66504 L -90.620911,545.00361 L -93.548193,545.00361 L -95.113946,551.60332 L -96.6797,545.00361 L -99.198522,545.00361 L -100.83235,551.67136 L -102.3981,545.00361 L -105.32538,545.00361 z M -71.968005,545.00361 L -68.223815,554.66504 L -64.956152,554.66504 L -61.211958,545.00361 L -64.275397,545.00361 L -66.589983,551.67136 L -68.972666,545.00361 L -71.968005,545.00361 z M -59.510057,545.00361 L -59.510057,554.66504 L -56.514694,554.66504 L -56.514694,545.00361 L -59.510057,545.00361 z M -54.608558,545.00361 L -51.204747,549.69825 L -54.812785,554.66504 L -51.613202,554.66504 L -49.502838,551.60332 L -47.392482,554.66504 L -44.192892,554.66504 L -47.732861,549.69825 L -44.329043,545.00361 L -47.528633,545.00361 L -49.502838,547.86122 L -51.408974,545.00361 L -54.608558,545.00361 z M -84.08559,546.97672 C -83.429125,546.97672 -82.935786,547.23213 -82.58792,547.72514 C -82.240033,548.21243 -82.043317,548.91136 -82.043295,549.83433 C -82.043295,550.7573 -82.240033,551.4505 -82.58792,551.94351 C -82.935786,552.4308 -83.429147,552.69193 -84.08559,552.69193 C -84.753286,552.69193 -85.229789,552.4308 -85.583268,551.94351 C -85.931145,551.4505 -86.127887,550.75727 -86.127878,549.83433 C -86.127882,548.91138 -85.931145,548.21243 -85.583268,547.72514 C -85.229789,547.23213 -84.753288,546.97672 -84.08559,546.97672 z"
               id="path4754"
               style="fill:#eeeeec;fill-opacity:1;stroke:none" />
            <text
               x="-87.085602"
               y="561.97699"
               id="text4756"
               xml:space="preserve"
               style="font-size:8px;font-style:normal;font-variant:normal;font-weight:normal;font-stretch:normal;text-align:start;line-height:125%;text-anchor:start;fill:#eeeeec;fill-opacity:1;stroke:none;stroke-width:1px;stroke-linecap:butt;stroke-linejoin:miter;stroke-opacity:1;font-family:Sans"><tspan
                 x="-87.085602"
                 y="561.97699"
                 id="tspan4758">-gnu/linux-</tspan></text>
          </g>
        </g>
      </g>
    </g>
  </g>
  <path
     d="M 0,5.6843419e-14 C -0.03,0.02259 -0.0638,0.03991 -0.0938,0.0625 L -0.0938,209 C 98.4624,85.1597 250.4767,5.71875 420.9062,5.71875 C 712.9149,5.71875 950.5165,239.04192 958.1562,529.21875 C 959.5052,512.80876 960.5,496.34875 960.5,479.59375 C 960.5,283.69326 866.4968,109.56503 721.1562,5.6843419e-14 L 0,5.6843419e-14 z M -0.0938,877.96875 L -0.0938,958.9375 C 100.3475,1034.5945 225.2926,1079.4688 360.625,1079.4688 C 365.3603,1079.4687 369.9462,1079.2969 374.6562,1079.1875 C 223.1059,1066.2868 89.4477,990.46507 -0.0938,877.96875 z"
     id="rect2788"
     style="opacity:0.03999999;fill:#eeeeec;fill-opacity:0.94117647;stroke-width:1.46800005;stroke-miterlimit:4;stroke-dasharray:none" />
</svg>
