<?xml version="1.0" encoding="UTF-8" standalone="no"?>
<!-- Created with Inkscape (http://www.inkscape.org/) -->
<svg
   xmlns:dc="http://purl.org/dc/elements/1.1/"
   xmlns:cc="http://web.resource.org/cc/"
   xmlns:rdf="http://www.w3.org/1999/02/22-rdf-syntax-ns#"
   xmlns:svg="http://www.w3.org/2000/svg"
   xmlns="http://www.w3.org/2000/svg"
   xmlns:sodipodi="http://sodipodi.sourceforge.net/DTD/sodipodi-0.dtd"
   xmlns:inkscape="http://www.inkscape.org/namespaces/inkscape"
   width="1600px"
   height="1200px"
   id="svg2236"
   sodipodi:version="0.32"
   inkscape:version="0.45.1"
   sodipodi:docbase="/mnt/sda8/files/art/wallpapers/_new/svg"
   sodipodi:docname="wolvix-dark.svg"
   inkscape:output_extension="org.inkscape.output.svg.inkscape"
   inkscape:export-filename="/usr/share/fluxbox/backgrounds/wolvix-medium-moon.png"
   inkscape:export-xdpi="90"
   inkscape:export-ydpi="90">
  <defs
     id="defs2238" />
  <sodipodi:namedview
     id="base"
     pagecolor="#ffffff"
     bordercolor="#666666"
     borderopacity="1.0"
     inkscape:pageopacity="0.0"
     inkscape:pageshadow="2"
     inkscape:zoom="0.77666667"
     inkscape:cx="800"
     inkscape:cy="600"
     inkscape:current-layer="layer1"
     inkscape:document-units="px"
     showgrid="false"
     inkscape:window-width="1598"
     inkscape:window-height="1142"
     inkscape:window-x="0"
     inkscape:window-y="0" />
  <metadata
     id="metadata2241">
    <rdf:RDF>
      <cc:Work
         rdf:about="">
        <dc:format>image/svg+xml</dc:format>
        <dc:type
           rdf:resource="http://purl.org/dc/dcmitype/StillImage" />
      </cc:Work>
    </rdf:RDF>
  </metadata>
  <g
     id="layer1"
     inkscape:label="Layer 1"
     inkscape:groupmode="layer">
    <rect
       style="opacity:1;fill:#2e3436;fill-opacity:0.94117647;stroke-width:1.46800005;stroke-miterlimit:4;stroke-dasharray:none"
       id="rect7670"
       width="1600"
       height="1200"
       x="0"
       y="0" />
    <path
       style="fill:#eeeeec;fill-opacity:1;stroke:none;stroke-width:4;stroke-miterlimit:4;stroke-dasharray:none;stroke-opacity:1"
       d="M 1193.7438,991.2386 C 1193.8047,991.2408 1193.8679,991.25418 1193.9354,991.26415 C 1195.7886,991.5378 1198.0873,994.69388 1198.0872,996.96167 C 1198.0873,1000.1099 1200.9402,1003.4512 1203.6187,1003.4512 C 1204.9496,1003.4512 1206.1068,1002.9538 1206.3652,1002.2759 C 1206.8967,1000.8826 1208.984,1000.6882 1208.9841,1002.0332 C 1208.984,1002.548 1208.0446,1004.3342 1206.9018,1005.9934 C 1205.467,1008.0767 1204.7071,1010.3369 1204.4618,1013.3133 C 1204.1508,1017.0871 1204.3452,1017.8967 1206.0331,1019.739 C 1208.2883,1022.2003 1210.5256,1027.6018 1210.5425,1030.6486 C 1210.5491,1031.8232 1210.8536,1033.2611 1211.2196,1033.8422 C 1211.5907,1034.4314 1211.5822,1036.2817 1211.1941,1038.0196 C 1210.7964,1039.8009 1210.7837,1042.1989 1211.1685,1043.6149 C 1211.9488,1046.4854 1211.1598,1049.4011 1208.3836,1053.8474 C 1206.0901,1057.5208 1206.3182,1061.1371 1209.2907,1067.8996 C 1210.3478,1070.3046 1211.7789,1074.4528 1212.4588,1077.1229 C 1213.9085,1082.8166 1218.3336,1087.9686 1222.3464,1088.799 C 1223.1984,1089.5667 1219.8584,1091.3843 1220.8559,1092.1162 C 1221.1915,1092.172 1212.7419,1092.001 1218.8467,1091.6282 C 1213.3768,1095.8866 1211.9213,1085.8624 1213.03,1099.3744 C 1193.5014,1096.4529 1182.5786,1097.8342 1154.4442,1090.6098 L 1139.6941,1073.546 C 1139.8231,1073.4029 1139.9763,1073.3416 1140.154,1073.3416 C 1140.7954,1073.3416 1141.3164,1073.5849 1141.3165,1073.8781 C 1141.3163,1074.4413 1145.8769,1076.5472 1149.0068,1077.4295 C 1150.9483,1077.9767 1150.9926,1077.4927 1149.4156,1072.1408 C 1149.1996,1071.4076 1149.7494,1070.0878 1150.6292,1069.2026 C 1151.5064,1068.3199 1152.2133,1067.2568 1152.2133,1066.8265 C 1152.2133,1066.3962 1152.747,1066.0345 1153.3886,1066.0345 C 1154.03,1066.0345 1154.5511,1065.6644 1154.5511,1065.2041 C 1154.5511,1064.7438 1155.3247,1064.479 1156.2756,1064.6165 C 1157.7648,1064.8318 1158.2389,1064.1795 1159.6992,1059.9665 C 1160.6318,1057.2761 1162.6108,1053.2276 1164.1065,1050.9603 C 1166.7539,1046.9474 1168.3812,1045.3353 1180.4837,1034.7365 C 1183.6777,1031.9394 1186.3227,1029.2192 1186.3601,1028.6813 C 1186.3975,1028.1433 1186.7905,1027.6976 1187.2287,1027.6976 C 1187.6671,1027.6976 1188.3552,1026.8189 1188.7617,1025.7431 C 1189.1682,1024.6673 1189.8198,1023.7885 1190.218,1023.7885 C 1190.6163,1023.7885 1190.7611,1023.0907 1190.5374,1022.23 C 1190.0541,1020.3705 1189.7926,1020.3299 1187.0243,1021.7829 C 1183.085,1023.8506 1183.2409,1019.8868 1187.3565,1013.4027 C 1188.7151,1011.2624 1189.8929,1008.1621 1190.1158,1006.1722 C 1190.3303,1004.2578 1190.9982,1002.2932 1191.5849,1001.8033 C 1192.2818,1001.2213 1192.658,999.20566 1192.658,995.99079 C 1192.658,992.1165 1192.831,991.20551 1193.7438,991.2386 z M 1198.9942,1063.6967 C 1198.629,1063.6967 1197.4207,1064.4786 1196.3243,1065.4468 C 1195.2281,1066.4151 1193.4029,1068.0044 1192.262,1068.9727 C 1191.1212,1069.9408 1190.384,1070.7355 1190.6396,1070.7356 C 1190.8951,1070.7356 1190.2222,1072.1537 1189.1321,1073.8909 C 1188.0422,1075.6282 1187.3614,1077.3969 1187.6248,1077.8255 C 1187.888,1078.2542 1189.3804,1078.5095 1190.9334,1078.3876 C 1193.361,1078.197 1193.8981,1078.4748 1194.8169,1080.3677 C 1195.4047,1081.5786 1196.4683,1082.7547 1197.1802,1082.9737 C 1197.8922,1083.1927 1199.0832,1083.6823 1199.8118,1084.0723 C 1201.6699,1085.0672 1202.2522,1083.7265 1201.2937,1080.687 C 1200.6132,1078.5292 1199.924,1071.8796 1199.7096,1065.4468 C 1199.6773,1064.4786 1199.3594,1063.6967 1198.9942,1063.6967 z M 1205.8159,1073.8654 C 1204.9855,1073.8654 1205.3346,1080.9801 1206.2375,1082.45 C 1207.0936,1083.8436 1209.7633,1083.3787 1209.7633,1081.8368 C 1209.7634,1079.877 1206.7842,1073.8653 1205.8159,1073.8654 z "
       id="path3166"
       sodipodi:nodetypes="csssssssssssssssccccccssssssssssscssssssssssccsssssssssssccssc" />
    <path
       style="fill:#888a85;fill-opacity:1;stroke:none"
       d="M 1191.9861,979.99999 C 1191.481,979.99999 1190.9921,980.01604 1190.4897,980.02771 C 1219.8494,982.52695 1242.9201,1007.1661 1242.9201,1037.1691 C 1242.9201,1068.8302 1217.2182,1094.5322 1185.557,1094.5322 C 1154.4094,1094.5322 1129.0643,1069.6454 1128.2494,1038.6932 C 1128.1055,1040.4436 1128,1042.1989 1128,1043.9861 C 1128,1079.3133 1156.659,1108 1191.9861,1108 C 1227.3133,1108 1256,1079.3133 1256,1043.9861 C 1256,1008.659 1227.3133,979.99999 1191.9861,979.99999 z "
       id="path4662" />
    <path
       style="fill:#eeeeec;fill-opacity:1;stroke:none"
       d="M 1452.6152,1023.5298 C 1452.5517,1023.5477 1452.4843,1023.5944 1452.412,1023.6567 C 1452.0553,1023.9635 1451.9971,1024.2919 1452.2343,1024.5449 C 1452.6162,1024.9523 1453.0512,1024.5557 1453.0976,1023.7582 L 1453.0976,1023.5552 L 1452.8438,1023.5298 C 1452.7384,1023.5228 1452.6787,1023.5119 1452.6152,1023.5298 z M 1450.7869,1024.5195 C 1450.2298,1024.5778 1449.6063,1024.7606 1449.0602,1025.0271 C 1448.6308,1025.2367 1448.4455,1025.3865 1447.8921,1025.9154 C 1447.0438,1026.726 1446.9526,1026.8578 1446.9526,1027.4888 C 1446.9526,1027.893 1446.9802,1028.029 1447.1049,1028.301 C 1447.3048,1028.737 1447.707,1029.1532 1448.1206,1029.3669 C 1448.4156,1029.5192 1448.4775,1029.5481 1448.73,1029.5191 C 1449.5533,1029.4248 1450.8887,1028.5535 1451.4724,1027.7426 C 1451.8451,1027.2251 1452.311,1026.2544 1452.3104,1025.9915 C 1452.3093,1025.5057 1451.8267,1024.8025 1451.3709,1024.5957 C 1451.1837,1024.5107 1451.0617,1024.4908 1450.7869,1024.5195 z M 1446.4701,1025.3063 C 1446.2122,1025.2961 1445.6576,1025.6709 1445.6576,1025.89 C 1445.6576,1025.9443 1445.6928,1026.0462 1445.7591,1026.1184 C 1445.8905,1026.2613 1446.1242,1026.2802 1446.267,1026.1691 C 1446.4181,1026.0515 1446.6478,1025.669 1446.6479,1025.5347 C 1446.6479,1025.4649 1446.6177,1025.3708 1446.5716,1025.3317 C 1446.5501,1025.3133 1446.5069,1025.3077 1446.4701,1025.3063 z M 1444.4895,1026.4991 C 1444.0976,1026.5114 1443.691,1026.5883 1443.3722,1026.7529 C 1442.4797,1027.2134 1442.0127,1028.0991 1442.0517,1029.24 C 1442.0688,1029.7382 1442.0797,1029.8302 1442.2294,1030.0775 C 1442.3583,1030.2901 1442.4875,1030.39 1442.7882,1030.5596 C 1443.2959,1030.8463 1443.5033,1030.8322 1444.0832,1030.4835 C 1444.5832,1030.1829 1445.3662,1029.4234 1445.6322,1028.9608 C 1446.0709,1028.1976 1446.2259,1027.3807 1445.9876,1026.9813 C 1445.7836,1026.6391 1445.1425,1026.4786 1444.4895,1026.4991 z M 1456.3479,1026.5752 C 1456.0628,1026.5663 1455.6072,1026.7397 1455.383,1026.9559 C 1455.1226,1027.2069 1455.1188,1027.3395 1455.4083,1027.6411 C 1455.5395,1027.7776 1455.6971,1027.8949 1455.7639,1027.8949 C 1456.2052,1027.8949 1456.8181,1026.9243 1456.551,1026.6513 C 1456.5091,1026.6084 1456.4429,1026.5782 1456.3479,1026.5752 z M 1454.1133,1027.6919 C 1453.2507,1027.853 1451.6723,1028.777 1451.0155,1029.5445 C 1450.5318,1030.1096 1450.3193,1030.8168 1450.4821,1031.321 C 1450.6124,1031.7241 1450.9818,1032.0603 1451.4978,1032.2346 C 1451.8069,1032.339 1452.1582,1032.2812 1452.7421,1032.057 C 1453.4895,1031.77 1453.8253,1031.5531 1454.545,1030.8388 C 1455.3882,1030.002 1455.4846,1029.7815 1455.4846,1029.0116 C 1455.4846,1028.5155 1455.4705,1028.4638 1455.3321,1028.2502 C 1455.1439,1027.9593 1454.7707,1027.7328 1454.418,1027.6919 C 1454.3292,1027.6815 1454.2365,1027.6689 1454.1133,1027.6919 z M 1376.9446,1029.2146 L 1376.9446,1079.2105 L 1388.1174,1079.2105 L 1388.1174,1029.2146 L 1376.9446,1029.2146 z M 1443.7023,1031.6256 C 1443.4463,1031.6175 1443.1527,1031.6386 1442.7882,1031.7271 C 1441.7783,1031.9722 1441.0945,1032.4701 1440.7314,1033.2244 C 1440.3805,1033.9532 1440.2541,1035.0326 1440.4775,1035.407 C 1440.6344,1035.6701 1440.8686,1035.7494 1441.5694,1035.8384 C 1441.9124,1035.882 1442.2882,1035.978 1442.4326,1036.0414 C 1442.7757,1036.192 1443.1156,1036.5555 1443.423,1037.082 C 1443.6501,1037.471 1443.7026,1037.5006 1444.0324,1037.6657 C 1444.5102,1037.9047 1444.835,1038.2531 1445.1496,1038.8331 C 1445.4438,1039.3754 1445.7062,1039.6368 1445.9876,1039.7213 C 1446.5927,1039.9031 1447.6162,1039.5011 1448.273,1038.8331 C 1448.6207,1038.4795 1448.7851,1038.1359 1449.0347,1037.0566 C 1449.1425,1036.5911 1449.2897,1036.1022 1449.4919,1035.6354 C 1449.6631,1035.2397 1449.8408,1034.7549 1449.8728,1034.5695 C 1449.9625,1034.0491 1449.8786,1033.4421 1449.6696,1033.0214 C 1449.4396,1032.5583 1449.1848,1032.3982 1448.1715,1032.1077 L 1447.3842,1031.9047 L 1446.9272,1032.0316 C 1446.4725,1032.1527 1446.4365,1032.1423 1446.1146,1032.057 C 1445.9294,1032.008 1445.5671,1031.981 1445.3275,1031.9809 C 1444.9697,1031.9807 1444.8283,1031.9246 1444.464,1031.7778 C 1444.1951,1031.6694 1443.9583,1031.6336 1443.7023,1031.6256 z M 1455.5353,1031.9301 C 1455.4744,1031.9302 1455.4096,1031.9329 1455.3068,1031.9555 C 1454.5305,1032.1257 1454.1548,1032.6639 1454.5704,1033.0214 C 1454.7742,1033.1967 1454.9418,1033.1951 1455.1799,1033.0468 C 1455.3993,1032.91 1455.4991,1032.7708 1455.6369,1032.3615 C 1455.7412,1032.0517 1455.7179,1031.9298 1455.5353,1031.9301 z M 1453.9101,1032.8945 C 1453.8094,1032.8939 1453.6938,1032.8993 1453.5547,1032.9199 C 1452.6539,1033.053 1451.9356,1033.3925 1451.4218,1033.9096 C 1450.7951,1034.5401 1450.5014,1035.1946 1450.3806,1036.3206 C 1450.3469,1036.6349 1450.355,1036.7147 1450.4821,1036.9804 C 1450.6435,1037.3175 1450.7467,1037.4117 1451.0661,1037.5895 C 1451.2451,1037.6891 1451.3273,1037.6898 1451.574,1037.6657 C 1452.1013,1037.614 1452.5964,1037.4167 1453.123,1037.0566 C 1454.5528,1036.079 1455.2592,1034.2472 1454.5704,1033.2752 C 1454.3754,1033 1454.2127,1032.8963 1453.9101,1032.8945 z M 1349.2664,1042.4115 C 1343.197,1042.4115 1338.4787,1043.8976 1335.0464,1047.2334 C 1331.635,1050.5692 1329.9678,1055.2899 1329.9679,1061.1916 C 1329.9679,1067.0934 1331.635,1071.8141 1335.0464,1075.1499 C 1338.4787,1078.4856 1343.197,1079.9718 1349.2664,1079.9718 C 1355.3148,1079.9718 1360.0959,1078.4856 1363.4864,1075.1499 C 1366.8977,1071.8141 1368.5649,1067.0934 1368.565,1061.1916 C 1368.565,1055.2899 1366.8978,1050.5692 1363.4864,1047.2334 C 1360.0959,1043.8976 1355.3148,1042.4115 1349.2664,1042.4115 z M 1270.0408,1043.1728 L 1279.4361,1079.2105 L 1291.6247,1079.2105 L 1297.465,1054.3394 L 1303.5593,1079.2105 L 1315.7479,1079.2105 L 1324.8893,1043.1728 L 1313.9704,1043.1728 L 1308.13,1067.7901 L 1302.2897,1043.1728 L 1292.8943,1043.1728 L 1286.8001,1068.0439 L 1280.9597,1043.1728 L 1270.0408,1043.1728 z M 1394.4656,1043.1728 L 1408.4317,1079.2105 L 1420.6202,1079.2105 L 1434.5863,1043.1728 L 1423.1595,1043.1728 L 1414.5259,1068.0439 L 1405.6384,1043.1728 L 1394.4656,1043.1728 z M 1440.9345,1043.1728 L 1440.9345,1079.2105 L 1452.1073,1079.2105 L 1452.1073,1043.1728 L 1440.9345,1043.1728 z M 1459.2173,1043.1728 L 1471.9137,1060.6841 L 1458.4555,1079.2105 L 1470.3902,1079.2105 L 1478.2619,1067.7901 L 1486.1337,1079.2105 L 1498.0683,1079.2105 L 1484.864,1060.6841 L 1497.5605,1043.1728 L 1485.6258,1043.1728 L 1478.2619,1053.8318 L 1471.1519,1043.1728 L 1459.2173,1043.1728 z M 1349.2664,1050.5326 C 1351.715,1050.5326 1353.5552,1051.4853 1354.8528,1053.3243 C 1356.1504,1055.1419 1356.8842,1057.7489 1356.8843,1061.1916 C 1356.8843,1064.6344 1356.1504,1067.2201 1354.8528,1069.059 C 1353.5552,1070.8766 1351.715,1071.8507 1349.2664,1071.8507 C 1346.7758,1071.8507 1344.9985,1070.8766 1343.68,1069.059 C 1342.3824,1067.2201 1341.6485,1064.6343 1341.6485,1061.1916 C 1341.6485,1057.749 1342.3824,1055.1419 1343.68,1053.3243 C 1344.9985,1051.4853 1346.7758,1050.5326 1349.2664,1050.5326 z "
       id="rect5593" />
  </g>
</svg>
