<?xml version="1.0" encoding="UTF-8" standalone="no"?>
<!-- Created with Inkscape (http://www.inkscape.org/) -->
<svg
   xmlns:dc="http://purl.org/dc/elements/1.1/"
   xmlns:cc="http://creativecommons.org/ns#"
   xmlns:rdf="http://www.w3.org/1999/02/22-rdf-syntax-ns#"
   xmlns:svg="http://www.w3.org/2000/svg"
   xmlns="http://www.w3.org/2000/svg"
   xmlns:sodipodi="http://sodipodi.sourceforge.net/DTD/sodipodi-0.dtd"
   xmlns:inkscape="http://www.inkscape.org/namespaces/inkscape"
   width="24.000000pt"
   height="24.000000pt"
   id="svg2792"
   sodipodi:version="0.32"
   inkscape:version="0.46"
   sodipodi:docbase="/home/pinuz/Desktop/newcursor/misc"
   sodipodi:docname="AppStarting01.svg"
   inkscape:output_extension="org.inkscape.output.svg.inkscape">
  <defs
     id="defs3">
    <inkscape:perspective
       sodipodi:type="inkscape:persp3d"
       inkscape:vp_x="0 : 15 : 1"
       inkscape:vp_y="0 : 1000 : 0"
       inkscape:vp_z="30 : 15 : 1"
       inkscape:persp3d-origin="15 : 10 : 1"
       id="perspective10" />
  </defs>
  <sodipodi:namedview
     id="base"
     pagecolor="#ffffff"
     bordercolor="#666666"
     borderopacity="1.0"
     inkscape:pageopacity="0.0"
     inkscape:pageshadow="2"
     inkscape:zoom="31.989511"
     inkscape:cx="20.524145"
     inkscape:cy="9.4114325"
     inkscape:current-layer="layer2"
     inkscape:window-width="1600"
     inkscape:window-height="1111"
     inkscape:window-x="0"
     inkscape:window-y="27"
     showgrid="true">
    <inkscape:grid
       type="xygrid"
       id="grid2739" />
  </sodipodi:namedview>
  <metadata
     id="metadata4">
    <rdf:RDF>
      <cc:Work
         rdf:about="">
        <dc:format>image/svg+xml</dc:format>
        <dc:type
           rdf:resource="http://purl.org/dc/dcmitype/StillImage" />
      </cc:Work>
    </rdf:RDF>
  </metadata>
  <g
     inkscape:label="shadow"
     inkscape:groupmode="layer"
     id="layer1">
    <path
       style="opacity:0.24999994;fill:#000000;fill-opacity:1;fill-rule:evenodd;stroke:#000000;stroke-width:1.875;stroke-linecap:butt;stroke-linejoin:round;stroke-miterlimit:4;stroke-opacity:1;display:block"
       d="M 3.15625,2.25 C 2.687164,2.4254352 2.303224,2.9171785 2.3125,3.875 L 2.375,18.96875 C 2.47191,19.855447 3.394037,20.23545 3.96875,19.9375 L 8.15625,18 L 10.8125,23.21875 C 10.831233,23.263412 12.434655,25.937367 12.78125,26.15625 C 14.506692,27.923097 16.899718,29.0625 19.5625,29.0625 C 24.806523,29.0625 29.0625,24.806522 29.0625,19.5625 C 29.0625,14.318477 24.806524,10.0625 19.5625,10.0625 C 18.351181,10.0625 17.190608,10.304855 16.125,10.71875 C 12.292521,7.9925308 8.426229,5.2887193 4.59375,2.5625 C 4.17768,2.2211073 3.625336,2.0745648 3.15625,2.25 z"
       id="path3404"
       sodipodi:nodetypes="ccccccccccccc" />
  </g>
  <g
     inkscape:groupmode="layer"
     id="layer2"
     inkscape:label="cursor">
    <path
       style="fill:#ffffff;fill-opacity:1;fill-rule:evenodd;stroke:#4b4b4b;stroke-width:1.875;stroke-linecap:butt;stroke-linejoin:round;stroke-miterlimit:4;stroke-opacity:1;display:block"
       d="M 1.75,1.03125 C 1.280914,1.2066852 0.896974,1.6984285 0.90625,2.65625 L 0.96875,17.75 C 1.06566,18.636697 1.987787,19.0167 2.5625,18.71875 L 6.75,16.78125 L 9.40625,22 C 9.424983,22.044662 9.449357,22.080687 9.46875,22.125 C 9.46875,22.125 11.028405,24.718617 11.375,24.9375 C 13.100442,26.704347 15.493468,27.84375 18.15625,27.84375 C 23.400273,27.84375 27.65625,23.587772 27.65625,18.34375 C 27.65625,13.099727 23.400274,8.84375 18.15625,8.84375 C 16.944931,8.84375 15.784358,9.0861046 14.71875,9.5 C 10.886271,6.7737808 7.019979,4.0699693 3.1875,1.34375 C 2.77143,1.0023573 2.219086,0.85581483 1.75,1.03125 z"
       id="path2760"
       sodipodi:nodetypes="cccccccccccccc" />
    <path
       id="path4816"
       d="M 16.425471,25.60567 C 16.182988,25.532783 15.970387,25.301125 15.716972,24.833678 C 15.445957,24.333775 15.164929,24.043145 14.753301,23.837085 C 14.469161,23.694843 14.424572,23.650463 14.228923,23.315145 C 13.964136,22.861345 13.674455,22.559618 13.378959,22.429845 C 13.254567,22.375222 12.910961,22.299776 12.615384,22.262193 C 12.011758,22.185447 11.828899,22.110317 11.693684,21.883501 C 11.501289,21.560779 11.607878,20.637977 11.910115,20.009755 C 12.222932,19.359541 12.813727,18.929197 13.683661,18.717884 C 14.31184,18.565296 14.648126,18.57587 15.111624,18.762797 C 15.425423,18.889343 15.561007,18.916977 15.869145,18.917154 C 16.075573,18.917284 16.374982,18.951976 16.534511,18.994255 C 16.811825,19.067751 16.84254,19.066333 17.234161,18.961974 L 17.643768,18.852827 L 18.30992,19.043915 C 19.182846,19.294313 19.412216,19.43341 19.61037,19.832556 C 19.790414,20.195229 19.855661,20.710155 19.778406,21.158716 C 19.750878,21.318557 19.607637,21.728343 19.460093,22.069361 C 19.285997,22.471726 19.141634,22.906409 19.04884,23.307661 C 18.83369,24.237986 18.709637,24.535665 18.410098,24.840464 C 17.844254,25.416239 16.946625,25.762341 16.425471,25.60567 z M 20.797003,23.752944 C 20.52175,23.599672 20.453165,23.526189 20.314175,23.235641 C 20.204615,23.006611 20.193922,22.940201 20.222965,22.669245 C 20.327008,21.698659 20.568559,21.13063 21.108356,20.587183 C 21.551073,20.141467 22.177288,19.853493 22.953331,19.738736 C 23.432845,19.667831 23.602802,19.727108 23.82682,20.043399 C 24.420259,20.881265 23.817014,22.469519 22.585282,23.312164 C 22.131605,23.622533 21.705827,23.78898 21.251632,23.833519 C 21.03911,23.85436 20.951122,23.838769 20.797003,23.752944 z M 23.834467,19.817023 C 23.476408,19.508875 23.783391,19.059447 24.452124,18.912767 C 24.806562,18.835021 24.854116,18.891437 24.734323,19.247554 C 24.615646,19.600353 24.530848,19.730054 24.341798,19.847945 C 24.136735,19.975831 24.010014,19.968105 23.834467,19.817023 z M 21.179213,19.144966 C 20.73455,18.994738 20.407229,18.702165 20.295112,18.354708 C 20.154866,17.920085 20.336396,17.314605 20.75298,16.82755 C 21.399629,16.071506 23.091812,15.151063 23.704309,15.222224 C 24.008082,15.257515 24.326572,15.452985 24.488791,15.703701 C 24.607908,15.887791 24.619102,15.945309 24.619102,16.372884 C 24.619102,17.036547 24.521642,17.222355 23.795217,17.943621 C 23.175137,18.559294 22.889388,18.75441 22.245541,19.001755 C 21.742567,19.194978 21.445393,19.234891 21.179213,19.144966 z M 13.678334,17.7065 C 13.419354,17.560242 13.311561,17.464219 13.200571,17.280903 C 13.071535,17.067786 13.055614,16.996629 13.040926,16.567176 C 13.007291,15.583798 13.416113,14.816267 14.184977,14.419309 C 14.917471,14.041131 16.142732,14.154365 16.424019,14.626234 C 16.629236,14.970501 16.510947,15.656558 16.132947,16.31436 C 15.903793,16.713134 15.231556,17.383344 14.800844,17.642446 C 14.301227,17.943002 14.115824,17.953584 13.678334,17.7065 z M 18.258638,16.67266 C 17.902317,16.488472 17.561835,16.127723 17.389595,15.751873 C 17.282195,15.5175 17.261556,15.405518 17.261556,15.057124 C 17.261556,14.513192 17.334635,14.388926 18.065418,13.690204 C 18.542171,13.234363 18.69884,13.116589 19.068718,12.935967 C 19.53921,12.70622 20.089957,12.543969 20.56982,12.493753 C 20.806609,12.468975 20.910126,12.481577 21.071472,12.554829 C 21.464099,12.733081 21.870536,13.34952 21.871506,13.768231 C 21.872026,13.994849 21.470156,14.838488 21.149205,15.284531 C 20.646272,15.983473 19.511554,16.713936 18.802368,16.795274 C 18.584765,16.820233 18.512699,16.803979 18.258638,16.67266 z M 24.557389,15.189648 C 24.307944,14.929695 24.301321,14.804108 24.525658,14.587719 C 24.783222,14.339277 25.39655,14.185999 25.541188,14.333934 C 25.771185,14.569166 25.241107,15.39917 24.860867,15.39917 C 24.803334,15.39917 24.67032,15.30734 24.557389,15.189648 z M 16.242693,13.869018 C 16.185558,13.806817 16.138812,13.717623 16.138812,13.670805 C 16.138812,13.455042 16.777445,13.073239 16.926592,13.199839 C 16.966297,13.233542 16.998788,13.310326 16.998788,13.370478 C 16.998788,13.486276 16.800344,13.817311 16.670158,13.918676 C 16.547181,14.014436 16.355847,13.992209 16.242693,13.869018 z M 21.809242,12.525732 C 21.60498,12.307669 21.664979,12.026664 21.97227,11.762209 C 22.096944,11.654913 22.162826,11.63441 22.344252,11.646447 L 22.564726,11.66107 L 22.553899,11.847062 C 22.513881,12.534511 22.138197,12.876902 21.809242,12.525732 z"
       style="fill:#2e3436;fill-opacity:1;stroke:none;stroke-width:0.30000000999999998;stroke-miterlimit:4;stroke-dasharray:none;stroke-opacity:1;opacity:1" />
  </g>
</svg>
