<?xml version="1.0" encoding="UTF-8" standalone="no"?>
<!-- Created with Inkscape (http://www.inkscape.org/) -->
<svg
   xmlns:dc="http://purl.org/dc/elements/1.1/"
   xmlns:cc="http://creativecommons.org/ns#"
   xmlns:rdf="http://www.w3.org/1999/02/22-rdf-syntax-ns#"
   xmlns:svg="http://www.w3.org/2000/svg"
   xmlns="http://www.w3.org/2000/svg"
   xmlns:sodipodi="http://sodipodi.sourceforge.net/DTD/sodipodi-0.dtd"
   xmlns:inkscape="http://www.inkscape.org/namespaces/inkscape"
   width="1600px"
   height="1200px"
   id="svg2236"
   sodipodi:version="0.32"
   inkscape:version="0.46"
   sodipodi:docbase="/mnt/sda8/files/art/wallpapers/_new/svg"
   sodipodi:docname="background.svg"
   inkscape:output_extension="org.inkscape.output.svg.inkscape"
   inkscape:export-filename="/usr/share/fluxbox/backgrounds/wolvix-dark-flag.png"
   inkscape:export-xdpi="90"
   inkscape:export-ydpi="90">
  <defs
     id="defs2238">
    <inkscape:perspective
       sodipodi:type="inkscape:persp3d"
       inkscape:vp_x="0 : 600 : 1"
       inkscape:vp_y="0 : 1000 : 0"
       inkscape:vp_z="1600 : 600 : 1"
       inkscape:persp3d-origin="800 : 400 : 1"
       id="perspective10" />
  </defs>
  <sodipodi:namedview
     id="base"
     pagecolor="#ffffff"
     bordercolor="#666666"
     borderopacity="1.0"
     inkscape:pageopacity="0.0"
     inkscape:pageshadow="2"
     inkscape:zoom="0.75916667"
     inkscape:cx="800"
     inkscape:cy="600"
     inkscape:current-layer="layer1"
     inkscape:document-units="px"
     showgrid="false"
     inkscape:window-width="1600"
     inkscape:window-height="1111"
     inkscape:window-x="0"
     inkscape:window-y="27"
     inkscape:snap-intersection-line-segments="true">
    <inkscape:grid
       type="xygrid"
       id="grid2387"
       visible="true"
       enabled="true" />
  </sodipodi:namedview>
  <metadata
     id="metadata2241">
    <rdf:RDF>
      <cc:Work
         rdf:about="">
        <dc:format>image/svg+xml</dc:format>
        <dc:type
           rdf:resource="http://purl.org/dc/dcmitype/StillImage" />
      </cc:Work>
    </rdf:RDF>
  </metadata>
  <g
     id="layer1"
     inkscape:label="Layer 1"
     inkscape:groupmode="layer">
    <rect
       style="fill:#2e3436;fill-opacity:0.94117647;stroke-width:1.46800005;stroke-miterlimit:4;stroke-dasharray:none"
       id="rect7670"
       width="1600"
       height="1200"
       x="0"
       y="0" />
    <g
       id="g2383"
       transform="matrix(0.8593749,0,0,0.8593749,-537.49992,84.375051)">
      <path
         sodipodi:nodetypes="csssssssssssssssccccccssssssssssscssssssssssccsssssssssssccssc"
         id="path3166"
         d="M 1128.7191,336.19306 C 1129.0236,336.20403 1129.3392,336.27096 1129.6767,336.32078 C 1138.9428,337.689 1150.4361,353.46947 1150.4361,364.80836 C 1150.4361,380.54945 1164.7012,397.25612 1178.0934,397.25612 C 1184.7477,397.25606 1190.5338,394.76896 1191.8261,391.37973 C 1194.4836,384.41288 1204.9201,383.44086 1204.9201,390.16614 C 1204.9201,392.73995 1200.2227,401.6709 1194.5086,409.96694 C 1187.3345,420.38333 1183.5355,431.68429 1182.3088,446.56645 C 1180.7539,465.43577 1181.7254,469.4833 1190.1655,478.69481 C 1201.4419,491.00166 1212.6278,518.00902 1212.7124,533.24278 C 1212.7455,539.11609 1214.268,546.30554 1216.0979,549.21117 C 1217.9533,552.15705 1217.911,561.40863 1215.9703,570.09779 C 1213.9815,579.00462 1213.9183,590.99461 1215.8427,598.07438 C 1219.7438,612.42713 1215.7992,627.00537 1201.9181,649.23707 C 1190.4503,667.60416 1191.5912,685.68549 1206.4531,719.49794 C 1211.7386,731.52314 1218.8947,752.26383 1222.294,765.61456 C 1229.5423,794.08288 1251.6682,819.84289 1271.7315,823.99494 C 1275.9916,827.83344 1259.2923,836.92169 1264.2791,840.58097 C 1265.957,840.85989 1223.7092,840.00503 1254.2335,838.14091 C 1226.8836,859.43295 1219.6063,809.31224 1225.15,876.87193 C 1127.5069,862.26428 1072.8924,869.17104 932.22089,833.04903 L 858.47039,747.73002 C 859.11535,747.01454 859.88153,746.70806 860.76951,746.70806 C 863.97691,746.70801 866.5817,747.92461 866.58228,749.39074 C 866.5817,752.20676 889.3844,762.7359 905.03397,767.14756 C 914.74143,769.88377 914.96299,767.46331 907.07789,740.7039 C 905.99793,737.03813 908.74713,730.43906 913.14585,726.01302 C 917.53181,721.59968 921.06633,716.2841 921.06633,714.13253 C 921.06633,711.98096 923.73491,710.17235 926.94289,710.1724 C 930.15029,710.17235 932.75507,708.3218 932.75507,706.02059 C 932.75507,703.71926 936.62309,702.39495 941.37793,703.08242 C 948.82398,704.15902 951.19444,700.89774 958.49606,679.83248 C 963.15868,666.3806 973.05406,646.13818 980.53258,634.80168 C 993.76935,614.73703 1001.9056,606.67648 1062.4182,553.68233 C 1078.3885,539.69696 1091.6131,526.09578 1091.8004,523.40627 C 1091.9872,520.71681 1093.9522,518.48804 1096.1434,518.48804 C 1098.3353,518.48798 1101.7758,514.09442 1103.8081,508.71538 C 1105.841,503.33635 1109.0989,498.94267 1111.09,498.94273 C 1113.0812,498.94267 1113.805,495.45339 1112.6868,491.15014 C 1110.2705,481.85279 1108.9632,481.64962 1095.1215,488.91459 C 1075.4252,499.25303 1076.2042,479.43379 1096.782,447.01358 C 1103.575,436.31205 1109.4643,420.81056 1110.5791,410.86118 C 1111.6515,401.28909 1114.9905,391.46592 1117.9242,389.01646 C 1121.4088,386.1066 1123.2898,376.02834 1123.2898,359.95399 C 1123.2898,340.5825 1124.1551,336.02759 1128.7191,336.19306 z M 1154.9711,698.48355 C 1153.1447,698.48349 1147.1034,702.39321 1141.6212,707.23424 C 1136.1402,712.07533 1127.0139,720.02214 1121.3096,724.86329 C 1115.6053,729.70426 1111.92,733.67778 1113.1978,733.67784 C 1114.4755,733.67778 1111.1109,740.76834 1105.6607,749.4546 C 1100.211,758.14091 1096.807,766.98435 1098.1236,769.12762 C 1099.4402,771.27084 1106.9019,772.54759 1114.6669,771.93807 C 1126.8046,770.9849 1129.4905,772.37411 1134.0841,781.83844 C 1137.0236,787.89324 1142.341,793.77374 1145.9011,794.86867 C 1149.4611,795.96353 1155.416,798.41142 1159.059,800.36173 C 1168.3494,805.3361 1171.261,798.63246 1166.4679,783.4353 C 1163.0662,772.64602 1159.6198,739.39803 1158.548,707.23424 C 1158.3862,702.39315 1156.797,698.4836 1154.9711,698.48355 z M 1189.0798,749.32688 C 1184.9275,749.32682 1186.6728,784.90038 1191.1875,792.24985 C 1195.4679,799.2178 1208.8166,796.8935 1208.8166,789.18391 C 1208.8166,779.38492 1193.921,749.32676 1189.0798,749.32688 z"
         style="fill:#d3d7cf;fill-opacity:1;stroke:none;stroke-width:4;stroke-miterlimit:4;stroke-dasharray:none;stroke-opacity:1" />
      <path
         id="path4662"
         d="M 1119.9304,279.99998 C 1117.4051,279.99998 1114.9604,280.08025 1112.4484,280.13854 C 1259.2464,292.63482 1374.6003,415.83039 1374.6003,565.8454 C 1374.6003,724.15128 1246.0909,852.66081 1087.7851,852.66081 C 932.04689,852.66081 805.3215,728.22723 801.247,573.46614 C 800.52722,582.21782 800,590.99455 800,599.93079 C 800,776.56665 943.29484,920.00004 1119.9304,920.00004 C 1296.5665,920.00004 1440,776.56665 1440,599.93079 C 1440,423.29482 1296.5665,279.99998 1119.9304,279.99998 z"
         style="fill:#888a85;fill-opacity:1;stroke:none" />
    </g>
    <rect
       style="opacity:1;fill:#2e3436;fill-opacity:1;fill-rule:nonzero;stroke:none;stroke-width:7.19999981;stroke-linejoin:miter;stroke-miterlimit:4;stroke-dasharray:none;stroke-opacity:1"
       id="rect2384"
       width="270"
       height="140"
       x="980"
       y="590"
       ry="4.5916667" />
  </g>
</svg>
