<?xml version="1.0" encoding="UTF-8" standalone="no"?>
<!-- Created with Inkscape (http://www.inkscape.org/) -->
<svg
   xmlns:dc="http://purl.org/dc/elements/1.1/"
   xmlns:cc="http://creativecommons.org/ns#"
   xmlns:rdf="http://www.w3.org/1999/02/22-rdf-syntax-ns#"
   xmlns:svg="http://www.w3.org/2000/svg"
   xmlns="http://www.w3.org/2000/svg"
   xmlns:sodipodi="http://sodipodi.sourceforge.net/DTD/sodipodi-0.dtd"
   xmlns:inkscape="http://www.inkscape.org/namespaces/inkscape"
   width="1024px"
   height="768px"
   id="svg2160"
   sodipodi:version="0.32"
   inkscape:version="0.46"
   sodipodi:docbase="/mnt/sda8/files/art/slim-theme/_new"
   sodipodi:docname="background.svg"
   inkscape:output_extension="org.inkscape.output.svg.inkscape"
   inkscape:export-filename="/home/wolven/wolvix-2.0.0/_files/art/slim/background.png"
   inkscape:export-xdpi="90"
   inkscape:export-ydpi="90">
  <defs
     id="defs2162">
    <inkscape:perspective
       sodipodi:type="inkscape:persp3d"
       inkscape:vp_x="0 : 384 : 1"
       inkscape:vp_y="0 : 1000 : 0"
       inkscape:vp_z="1024 : 384 : 1"
       inkscape:persp3d-origin="512 : 256 : 1"
       id="perspective18" />
  </defs>
  <sodipodi:namedview
     id="base"
     pagecolor="#ffffff"
     bordercolor="#666666"
     borderopacity="1.0"
     inkscape:pageopacity="0.0"
     inkscape:pageshadow="2"
     inkscape:zoom="1"
     inkscape:cx="640.42271"
     inkscape:cy="349.33234"
     inkscape:current-layer="layer1"
     inkscape:document-units="px"
     showgrid="false"
     inkscape:window-width="1600"
     inkscape:window-height="1107"
     inkscape:window-x="0"
     inkscape:window-y="31">
    <inkscape:grid
       type="xygrid"
       id="grid3281"
       visible="true"
       enabled="true" />
  </sodipodi:namedview>
  <metadata
     id="metadata2165">
    <rdf:RDF>
      <cc:Work
         rdf:about="">
        <dc:format>image/svg+xml</dc:format>
        <dc:type
           rdf:resource="http://purl.org/dc/dcmitype/StillImage" />
      </cc:Work>
    </rdf:RDF>
  </metadata>
  <g
     id="layer1"
     inkscape:label="Layer 1"
     inkscape:groupmode="layer">
    <rect
       style="fill:#2e3436;fill-opacity:1"
       id="rect2168"
       width="1024"
       height="768"
       x="0"
       y="0" />
    <rect
       style="opacity:1;fill:#1a2022;fill-opacity:1"
       id="rect2283"
       width="1024"
       height="32"
       x="0"
       y="736" />
    <rect
       style="opacity:1;fill:#1a2022;fill-opacity:1"
       id="rect7031"
       width="1024"
       height="24"
       x="0"
       y="0" />
    <path
       sodipodi:nodetypes="csssssssssssssssccccccssssssssssscssssssssssccsssssssssssccssc"
       id="path3285"
       d="M 310.97543,172.95443 C 311.21907,172.96323 311.4717,173.01675 311.74182,173.05663 C 319.15434,174.15121 328.34917,186.77556 328.34902,195.84669 C 328.34917,208.43953 339.76097,221.8049 350.47489,221.80489 C 355.79831,221.80486 360.42712,219.81516 361.46103,217.10379 C 363.58707,211.53029 371.93622,210.75266 371.93637,216.13292 C 371.93622,218.19196 368.17845,225.33672 363.60719,231.97354 C 357.86794,240.30666 354.82866,249.34744 353.84725,261.25316 C 352.60321,276.34861 353.38072,279.58664 360.13248,286.95586 C 369.1535,296.80133 378.10241,318.40722 378.17027,330.59424 C 378.19642,335.29285 379.41446,341.0444 380.87859,343.36892 C 382.36298,345.72564 382.32881,353.12691 380.77639,360.07824 C 379.18553,367.2037 379.13484,376.7957 380.67419,382.45951 C 383.79522,393.94171 380.63936,405.6043 369.53465,423.38965 C 360.36041,438.08331 361.273,452.54841 373.16274,479.59832 C 377.39112,489.21852 383.11581,505.81106 385.83525,516.49166 C 391.63402,539.26632 409.33464,559.87429 425.38555,563.19596 C 428.79356,566.26676 415.43385,573.53733 419.42365,576.46476 C 420.76595,576.68792 386.96771,576.00403 411.38704,574.5127 C 389.50718,591.54634 383.68523,551.44976 388.12012,605.49753 C 310.00576,593.81143 266.31436,599.33682 153.77705,570.43923 L 94.776495,502.18399 C 95.292396,501.6116 95.905414,501.36644 96.61605,501.36642 C 99.181784,501.36638 101.26562,502.33968 101.26596,503.51256 C 101.26547,505.7654 119.50766,514.1887 132.02743,517.71803 C 139.79314,519.90698 139.97056,517.97065 133.6626,496.56312 C 132.79858,493.63049 134.99787,488.35122 138.51705,484.81041 C 142.02579,481.27974 144.85332,477.02727 144.85332,475.30603 C 144.85315,473.58477 146.98819,472.13789 149.55441,472.13791 C 152.1203,472.13788 154.20449,470.65743 154.20431,468.81648 C 154.20449,466.97539 157.29885,465.91597 161.10257,466.46594 C 167.05947,467.3272 168.9556,464.7182 174.79705,447.86597 C 178.52735,437.10445 186.44333,420.91055 192.42622,411.84132 C 203.01586,395.78961 209.52477,389.34116 257.93487,346.94585 C 270.71089,335.75756 281.29087,324.87663 281.44032,322.72502 C 281.59011,320.57341 283.16198,318.79045 284.91504,318.79042 C 286.66842,318.79037 289.42088,315.27551 291.04689,310.97229 C 292.67306,306.66909 295.27935,303.15412 296.87216,303.15418 C 298.46529,303.15414 299.04431,300.36269 298.14971,296.92012 C 296.21646,289.4822 295.1706,289.3197 284.09747,295.13166 C 268.34022,303.40243 268.96354,287.54703 285.42602,261.61085 C 290.86032,253.04965 295.57187,240.64842 296.46337,232.68893 C 297.32133,225.03124 299.99286,217.17273 302.33965,215.21314 C 305.12727,212.88527 306.63196,204.82266 306.63196,191.96318 C 306.63196,176.46601 307.32427,172.82206 310.97543,172.95443 z M 331.97695,462.78682 C 330.51609,462.78679 325.68273,465.91456 321.29738,469.78737 C 316.91237,473.66024 309.61153,480.01771 305.04796,483.89062 C 300.48471,487.7634 297.5362,490.94221 298.55851,490.94226 C 299.58048,490.94223 296.88884,496.61466 292.52867,503.56367 C 288.16885,510.51273 285.44582,517.58746 286.4992,519.3021 C 287.55223,521.01667 293.52172,522.03804 299.73368,521.55044 C 309.4441,520.78792 311.59253,521.8993 315.26772,529.47075 C 317.61909,534.31456 321.87312,539.01896 324.72108,539.89491 C 327.56889,540.77083 332.33277,542.72914 335.24728,544.2894 C 342.6799,548.26887 345.00887,542.90597 341.17473,530.74822 C 338.45301,522.11682 335.69629,495.51843 334.83849,469.78737 C 334.70931,465.91453 333.43781,462.78685 331.97695,462.78682 z M 359.26387,503.46147 C 355.94203,503.46143 357.33864,531.92031 360.95006,537.79986 C 364.37441,543.37425 375.05332,541.51478 375.05332,535.34712 C 375.05365,527.50794 363.13691,503.46138 359.26387,503.46147 z"
       style="opacity:0;fill:#eeeeec;fill-opacity:1;stroke:none;stroke-width:3;stroke-miterlimit:4;stroke-dasharray:none;stroke-opacity:1" />
    <g
       id="g3190"
       transform="matrix(0.9375,0,0,0.9375,18.999999,23.999995)">
      <path
         sodipodi:nodetypes="csssssssssssssssccccccssssssssssscssssssssssccsssssssssssccssc"
         id="path3166"
         d="M 310.97543,172.95443 C 311.21907,172.96323 311.4717,173.01675 311.74182,173.05663 C 319.15434,174.15121 328.34917,186.77556 328.34902,195.84669 C 328.34917,208.43953 339.76097,221.8049 350.47489,221.80489 C 355.79831,221.80486 360.42712,219.81516 361.46103,217.10379 C 363.58707,211.53029 371.93622,210.75266 371.93637,216.13292 C 371.93622,218.19196 368.17845,225.33672 363.60719,231.97354 C 357.86794,240.30666 354.82866,249.34744 353.84725,261.25316 C 352.60321,276.34861 353.38072,279.58664 360.13248,286.95586 C 369.1535,296.80133 378.10241,318.40722 378.17027,330.59424 C 378.19642,335.29285 379.41446,341.0444 380.87859,343.36892 C 382.36298,345.72564 382.32881,353.12691 380.77639,360.07824 C 379.18553,367.2037 379.13484,376.7957 380.67419,382.45951 C 383.79522,393.94171 380.63936,405.6043 369.53465,423.38965 C 360.36041,438.08331 361.273,452.54841 373.16274,479.59832 C 377.39112,489.21852 383.11581,505.81106 385.83525,516.49166 C 391.63402,539.26632 409.33464,559.87429 425.38555,563.19596 C 428.79356,566.26676 415.43385,573.53733 419.42365,576.46476 C 420.76595,576.68792 386.96771,576.00403 411.38704,574.5127 C 389.50718,591.54634 383.68523,551.44976 388.12012,605.49753 C 310.00576,593.81143 266.31436,599.33682 153.77705,570.43923 L 94.776495,502.18399 C 95.292396,501.6116 95.905414,501.36644 96.61605,501.36642 C 99.181784,501.36638 101.26562,502.33968 101.26596,503.51256 C 101.26547,505.7654 119.50766,514.1887 132.02743,517.71803 C 139.79314,519.90698 139.97056,517.97065 133.6626,496.56312 C 132.79858,493.63049 134.99787,488.35122 138.51705,484.81041 C 142.02579,481.27974 144.85332,477.02727 144.85332,475.30603 C 144.85315,473.58477 146.98819,472.13789 149.55441,472.13791 C 152.1203,472.13788 154.20449,470.65743 154.20431,468.81648 C 154.20449,466.97539 157.29885,465.91597 161.10257,466.46594 C 167.05947,467.3272 168.9556,464.7182 174.79705,447.86597 C 178.52735,437.10445 186.44333,420.91055 192.42622,411.84132 C 203.01586,395.78961 209.52477,389.34116 257.93487,346.94585 C 270.71089,335.75756 281.29087,324.87663 281.44032,322.72502 C 281.59011,320.57341 283.16198,318.79045 284.91504,318.79042 C 286.66842,318.79037 289.42088,315.27551 291.04689,310.97229 C 292.67306,306.66909 295.27935,303.15412 296.87216,303.15418 C 298.46529,303.15414 299.04431,300.36269 298.14971,296.92012 C 296.21646,289.4822 295.1706,289.3197 284.09747,295.13166 C 268.34022,303.40243 268.96354,287.54703 285.42602,261.61085 C 290.86032,253.04965 295.57187,240.64842 296.46337,232.68893 C 297.32133,225.03124 299.99286,217.17273 302.33965,215.21314 C 305.12727,212.88527 306.63196,204.82266 306.63196,191.96318 C 306.63196,176.46601 307.32427,172.82206 310.97543,172.95443 z M 331.97695,462.78682 C 330.51609,462.78679 325.68273,465.91456 321.29738,469.78737 C 316.91237,473.66024 309.61153,480.01771 305.04796,483.89062 C 300.48471,487.7634 297.5362,490.94221 298.55851,490.94226 C 299.58048,490.94223 296.88884,496.61466 292.52867,503.56367 C 288.16885,510.51273 285.44582,517.58746 286.4992,519.3021 C 287.55223,521.01667 293.52172,522.03804 299.73368,521.55044 C 309.4441,520.78792 311.59253,521.8993 315.26772,529.47075 C 317.61909,534.31456 321.87312,539.01896 324.72108,539.89491 C 327.56889,540.77083 332.33277,542.72914 335.24728,544.2894 C 342.6799,548.26887 345.00887,542.90597 341.17473,530.74822 C 338.45301,522.11682 335.69629,495.51843 334.83849,469.78737 C 334.70931,465.91453 333.43781,462.78685 331.97695,462.78682 z M 359.26387,503.46147 C 355.94203,503.46143 357.33864,531.92031 360.95006,537.79986 C 364.37441,543.37425 375.05332,541.51478 375.05332,535.34712 C 375.05365,527.50794 363.13691,503.46138 359.26387,503.46147 z"
         style="opacity:1;fill:#eeeeec;fill-opacity:1;stroke:none;stroke-width:3;stroke-miterlimit:4;stroke-dasharray:none;stroke-opacity:1" />
      <path
         id="path4662"
         d="M 303.94469,127.99998 C 301.92421,127.99998 299.96838,128.06419 297.95884,128.11084 C 415.39754,138.10783 507.68056,236.66429 507.68056,356.67632 C 507.68056,483.321 404.87272,586.12864 278.22816,586.12864 C 153.63767,586.12864 52.257291,486.58175 48.997705,362.77289 C 48.421991,369.77424 48.000001,376.79561 48.000001,383.94461 C 48.000001,525.25333 162.63608,640.00003 303.94469,640.00003 C 445.25333,640.00003 560.00002,525.25333 560.00002,383.94461 C 560.00002,242.63584 445.25333,127.99998 303.94469,127.99998 z"
         style="opacity:1;fill:#888a85;fill-opacity:1;stroke:none;stroke-width:3;stroke-miterlimit:4;stroke-dasharray:none;stroke-opacity:1" />
    </g>
    <rect
       style="opacity:1;fill:#1a2022;stroke:none;stroke-opacity:1;stroke-width:2;stroke-miterlimit:4;stroke-dasharray:none;fill-opacity:1"
       id="rect3143"
       width="320"
       height="128"
       x="640"
       y="320"
       ry="9.9760647" />
    <text
       xml:space="preserve"
       style="font-size:12px;font-style:normal;font-variant:normal;font-weight:bold;font-stretch:normal;text-align:start;line-height:125%;writing-mode:lr-tb;text-anchor:start;fill:#eeeeec;fill-opacity:1;stroke:none;stroke-width:1px;stroke-linecap:butt;stroke-linejoin:miter;stroke-opacity:1;font-family:DejaVu Sans"
       x="698.34277"
       y="342.11719"
       id="text5083"
       sodipodi:linespacing="125%"><tspan
         sodipodi:role="line"
         id="tspan2176"
         x="698.34277"
         y="342.11719">Welcome to Wolvix GNU/Linux</tspan></text>
    <path
       id="path3283"
       d="M 303.94469,127.99998 C 301.92421,127.99998 299.96838,128.06419 297.95884,128.11084 C 415.39754,138.10783 507.68056,236.66429 507.68056,356.67632 C 507.68056,483.321 404.87272,586.12864 278.22816,586.12864 C 153.63767,586.12864 52.257291,486.58175 48.997705,362.77289 C 48.421991,369.77424 48.000001,376.79561 48.000001,383.94461 C 48.000001,525.25333 162.63608,640.00003 303.94469,640.00003 C 445.25333,640.00003 560.00002,525.25333 560.00002,383.94461 C 560.00002,242.63584 445.25333,127.99998 303.94469,127.99998 z"
       style="opacity:0;fill:#888a85;fill-opacity:1;stroke:none;stroke-opacity:1;stroke-width:3;stroke-miterlimit:4;stroke-dasharray:none" />
  </g>
</svg>
