<?xml version="1.0" encoding="UTF-8" standalone="no"?>
<!-- Created with Inkscape (http://www.inkscape.org/) -->
<svg
   xmlns:dc="http://purl.org/dc/elements/1.1/"
   xmlns:cc="http://web.resource.org/cc/"
   xmlns:rdf="http://www.w3.org/1999/02/22-rdf-syntax-ns#"
   xmlns:svg="http://www.w3.org/2000/svg"
   xmlns="http://www.w3.org/2000/svg"
   xmlns:sodipodi="http://sodipodi.sourceforge.net/DTD/sodipodi-0.dtd"
   xmlns:inkscape="http://www.inkscape.org/namespaces/inkscape"
   width="250"
   height="237.50003"
   id="svg2244"
   sodipodi:version="0.32"
   inkscape:version="0.45.1"
   sodipodi:docbase="/mnt/sda8/files/art/splash"
   sodipodi:docname="wolvix-splash.svg"
   inkscape:output_extension="org.inkscape.output.svg.inkscape"
   inkscape:export-filename="/mnt/sda8/files/art/logos/final/png/gray/wolvix_button_gray_light.png"
   inkscape:export-xdpi="20.249998"
   inkscape:export-ydpi="20.249998"
   version="1.0">
  <defs
     id="defs2246" />
  <sodipodi:namedview
     id="base"
     pagecolor="#ffffff"
     bordercolor="#666666"
     borderopacity="1.0"
     gridtolerance="10000"
     guidetolerance="10"
     objecttolerance="10"
     inkscape:pageopacity="0.0"
     inkscape:pageshadow="2"
     inkscape:zoom="1"
     inkscape:cx="130.07642"
     inkscape:cy="96.174456"
     inkscape:document-units="px"
     inkscape:current-layer="layer1"
     showgrid="false"
     inkscape:window-width="1600"
     inkscape:window-height="1113"
     inkscape:window-x="0"
     inkscape:window-y="25" />
  <metadata
     id="metadata2249">
    <rdf:RDF>
      <cc:Work
         rdf:about="">
        <dc:format>image/svg+xml</dc:format>
        <dc:type
           rdf:resource="http://purl.org/dc/dcmitype/StillImage" />
      </cc:Work>
    </rdf:RDF>
  </metadata>
  <g
     inkscape:label="Layer 1"
     inkscape:groupmode="layer"
     id="layer1"
     transform="translate(-225.91436,-414.47678)">
    <rect
       style="fill:#eeeeec;fill-opacity:1;stroke:#000000;stroke-width:1.14470541;stroke-miterlimit:4;stroke-dasharray:none;stroke-opacity:1"
       id="rect5106"
       width="248.8553"
       height="236.35533"
       x="226.48671"
       y="415.04913"
       ry="21.641958" />
    <path
       style="fill:#2e3436;fill-opacity:1;stroke:none;stroke-width:4;stroke-miterlimit:4;stroke-dasharray:none;stroke-opacity:1"
       d="M 353.0431,440.69577 C 353.11746,440.69846 353.19455,440.71479 353.27699,440.72696 C 355.53911,441.061 358.34515,444.91364 358.3451,447.68194 C 358.34515,451.52496 361.82775,455.60375 365.09738,455.60375 C 366.72196,455.60374 368.13456,454.99653 368.45009,454.16909 C 369.0989,452.46819 371.64686,452.23088 371.64691,453.8728 C 371.64686,454.50117 370.50008,456.68158 369.10504,458.70698 C 367.35356,461.25004 366.42605,464.00907 366.12654,467.6424 C 365.74689,472.24917 365.98417,473.23734 368.04464,475.48625 C 370.79764,478.49084 373.52863,485.08444 373.54934,488.80362 C 373.55732,490.23753 373.92904,491.99276 374.37586,492.70215 C 374.82886,493.42136 374.81843,495.68005 374.34467,497.80143 C 373.85918,499.97595 373.84371,502.90319 374.31348,504.63165 C 375.26594,508.13574 374.30285,511.69488 370.91396,517.12254 C 368.1142,521.60669 368.3927,526.02109 372.02117,534.27606 C 373.31156,537.21192 375.0586,542.27556 375.88851,545.53502 C 377.65815,552.48529 383.05995,558.77435 387.9583,559.78804 C 388.99834,560.72517 384.92128,562.94397 386.13888,563.83736 C 386.54851,563.90546 376.23411,563.69675 383.6863,563.24163 C 377.00909,568.43989 375.23238,556.20338 376.58579,572.69746 C 352.74718,569.13114 339.41363,570.81736 305.06996,561.99851 L 287.06442,541.16866 C 287.22186,540.99398 287.40894,540.91917 287.62581,540.91916 C 288.40881,540.91915 289.04475,541.21618 289.04485,541.57411 C 289.0447,542.26162 294.61178,544.83221 298.43251,545.90928 C 300.80241,546.57729 300.85656,545.98637 298.93152,539.45331 C 298.66784,538.55834 299.33901,536.94724 300.41298,535.86667 C 301.48376,534.78919 302.34666,533.49144 302.34666,532.96616 C 302.3466,532.44087 302.99817,531.99932 303.78132,531.99933 C 304.56436,531.99932 305.20041,531.54752 305.20035,530.98571 C 305.20041,530.42385 306.14473,530.10054 307.30554,530.26838 C 309.12344,530.53121 309.70209,529.73501 311.48476,524.59212 C 312.62315,521.30796 315.03892,516.36598 316.86475,513.59827 C 320.09645,508.69968 322.08282,506.73176 336.85641,493.79374 C 340.75534,490.37935 343.98409,487.05875 344.0297,486.40213 C 344.07541,485.74551 344.55511,485.20139 345.0901,485.20138 C 345.62519,485.20137 346.46518,484.12872 346.9614,482.81548 C 347.45766,481.50225 348.25304,480.42956 348.73913,480.42958 C 349.22531,480.42957 349.40201,479.57769 349.12901,478.5271 C 348.53902,476.25723 348.21985,476.20763 344.8406,477.9813 C 340.03187,480.50534 340.22209,475.66666 345.24604,467.75156 C 346.90446,465.13889 348.34231,461.35434 348.61437,458.92529 C 348.8762,456.58835 349.69149,454.19013 350.40767,453.59211 C 351.25839,452.8817 351.71758,450.42118 351.71758,446.49678 C 351.71758,441.76742 351.92886,440.65538 353.0431,440.69577 z M 359.45226,529.1456 C 359.00644,529.14559 357.53142,530.10011 356.19311,531.282 C 354.85491,532.4639 352.62687,534.40405 351.23418,535.58597 C 349.84159,536.76785 348.94177,537.73794 349.25376,537.73796 C 349.56564,537.73795 348.74422,539.46904 347.4136,541.58971 C 346.08309,543.71039 345.25208,545.86943 345.57355,546.3927 C 345.89491,546.91594 347.71665,547.22764 349.61239,547.07884 C 352.57578,546.84613 353.23143,547.1853 354.35301,549.49592 C 355.07059,550.97414 356.36882,552.4098 357.23794,552.67712 C 358.10702,552.94443 359.56085,553.54206 360.45028,554.01821 C 362.71854,555.23265 363.42928,553.59603 362.2592,549.88577 C 361.4286,547.25168 360.58731,539.13449 360.32553,531.282 C 360.28611,530.1001 359.89808,529.14561 359.45226,529.1456 z M 367.77957,541.55852 C 366.76582,541.55851 367.19203,550.24347 368.29415,552.03776 C 369.33918,553.73893 372.59813,553.17147 372.59813,551.28925 C 372.59823,548.89692 368.96152,541.55849 367.77957,541.55852 z "
       id="path3166"
       sodipodi:nodetypes="csssssssssssssssccccccssssssssssscssssssssssccsssssssssssccssc" />
    <path
       style="opacity:1;fill:#888a85;fill-opacity:1;stroke:none"
       d="M 350.89749,426.97676 C 350.28089,426.97676 349.68402,426.99636 349.07076,427.01059 C 384.9102,430.06143 413.07275,460.13848 413.07275,496.76324 C 413.07275,535.41214 381.69828,566.78654 343.04943,566.78654 C 305.02743,566.78654 274.08859,536.40724 273.09384,498.62377 C 272.91815,500.76041 272.78937,502.90317 272.78937,505.08487 C 272.78937,548.20887 307.77353,583.22678 350.89749,583.22678 C 394.02147,583.22678 429.03938,548.20887 429.03938,505.08487 C 429.03938,461.96085 394.02147,426.97676 350.89749,426.97676 z "
       id="path4662" />
    <path
       style="fill:#2e3436;fill-opacity:1;stroke:none"
       d="M 414.80635,583.54053 C 414.74716,583.55722 414.6844,583.60079 414.617,583.65879 C 414.28459,583.94471 414.2304,584.25079 414.4514,584.48655 C 414.80726,584.86622 415.21269,584.49662 415.25595,583.75339 L 415.25595,583.56418 L 415.01939,583.54053 C 414.92118,583.53402 414.86555,583.52383 414.80635,583.54053 z M 413.10256,584.4629 C 412.58345,584.5172 412.00234,584.68752 411.4934,584.93591 C 411.0933,585.13119 410.92064,585.27084 410.40487,585.76367 C 409.61437,586.51912 409.52937,586.64192 409.52937,587.23001 C 409.52937,587.60667 409.5551,587.73342 409.67129,587.98682 C 409.85761,588.39318 410.23237,588.781 410.61783,588.98014 C 410.89271,589.12213 410.95039,589.14903 411.18573,589.12204 C 411.95301,589.0341 413.19743,588.22217 413.74143,587.46651 C 414.08871,586.98425 414.5229,586.07964 414.52236,585.83462 C 414.5213,585.38193 414.07156,584.72657 413.64679,584.53385 C 413.47231,584.45466 413.3587,584.43611 413.10256,584.4629 z M 409.07971,585.19606 C 408.83935,585.18656 408.32252,585.5359 408.32252,585.74002 C 408.32252,585.79064 408.35539,585.88564 408.41716,585.95287 C 408.53958,586.08607 408.75739,586.10371 408.89043,586.00017 C 409.03129,585.89058 409.2453,585.53413 409.24538,585.40892 C 409.24538,585.34389 409.2173,585.25615 409.17435,585.21971 C 409.15423,585.2026 409.11401,585.19742 409.07971,585.19606 z M 407.23399,586.30764 C 406.86879,586.3191 406.48986,586.39081 406.19274,586.54414 C 405.36103,586.97332 404.92586,587.79868 404.96222,588.86188 C 404.97815,589.32619 404.98832,589.41193 405.12781,589.64235 C 405.24795,589.84054 405.36832,589.93358 405.64851,590.09171 C 406.12171,590.35885 406.31493,590.34571 406.85536,590.02076 C 407.32127,589.74062 408.05098,589.03287 408.29885,588.60173 C 408.70776,587.89054 408.8521,587.1292 408.63004,586.757 C 408.43993,586.43814 407.8425,586.28852 407.23399,586.30764 z M 418.2849,586.37859 C 418.0192,586.37031 417.59466,586.53189 417.38572,586.73335 C 417.14302,586.9673 417.13953,587.09085 417.40933,587.37191 C 417.53151,587.49915 417.67837,587.60841 417.74068,587.60841 C 418.15194,587.60841 418.72311,586.70386 418.47418,586.44954 C 418.4351,586.40955 418.37347,586.38134 418.2849,586.37859 z M 416.20248,587.41921 C 415.39862,587.56932 413.92767,588.43045 413.31559,589.14569 C 412.86486,589.67228 412.66686,590.33133 412.81857,590.80123 C 412.93992,591.17688 413.28417,591.49022 413.7651,591.65264 C 414.05312,591.74985 414.38052,591.69599 414.92467,591.48709 C 415.62114,591.21966 415.93405,591.01752 416.60479,590.35187 C 417.39058,589.57206 417.48036,589.36657 417.48036,588.64903 C 417.48036,588.18676 417.46723,588.13855 417.33829,587.93952 C 417.1629,587.66846 416.81509,587.45737 416.4864,587.41921 C 416.40367,587.40959 416.3173,587.39776 416.20248,587.41921 z M 344.28853,588.83823 L 344.28853,635.42965 L 354.70058,635.42965 L 354.70058,588.83823 L 344.28853,588.83823 z M 406.50041,591.08503 C 406.2618,591.07753 405.98821,591.09715 405.64851,591.17963 C 404.70744,591.40809 404.07017,591.87203 403.73176,592.57501 C 403.40474,593.25422 403.28696,594.26004 403.49513,594.60895 C 403.64138,594.85418 403.85964,594.92803 404.5127,595.01101 C 404.83236,595.05163 405.18261,595.14114 405.31717,595.20021 C 405.6369,595.34051 405.9536,595.67925 406.2401,596.16988 C 406.45176,596.53241 406.50064,596.56004 406.80801,596.71384 C 407.25327,596.93662 407.55601,597.26129 407.84918,597.80176 C 408.1233,598.30716 408.36783,598.55072 408.63004,598.62953 C 409.19393,598.79892 410.14775,598.42427 410.7599,597.80176 C 411.08389,597.47222 411.23704,597.15208 411.46973,596.14623 C 411.57013,595.71241 411.70735,595.25683 411.89571,594.8218 C 412.05531,594.45311 412.22091,594.00129 412.25066,593.82848 C 412.3343,593.34351 412.25613,592.77791 412.06139,592.3858 C 411.84699,591.95426 411.60952,591.80511 410.66526,591.53439 L 409.9316,591.34519 L 409.5057,591.46344 C 409.08198,591.57628 409.04844,591.56655 408.74844,591.48709 C 408.57585,591.44139 408.23821,591.41628 408.01493,591.41614 C 407.68153,591.41595 407.54971,591.36375 407.21024,591.22693 C 406.95964,591.12588 406.73894,591.09252 406.50041,591.08503 z M 417.52765,591.36884 C 417.47088,591.36892 417.41054,591.37147 417.31469,591.39249 C 416.59128,591.55108 416.24111,592.05266 416.62847,592.3858 C 416.81835,592.54917 416.97454,592.54773 417.19645,592.40945 C 417.4009,592.28199 417.49395,592.15233 417.62228,591.77089 C 417.7195,591.48213 417.6978,591.36858 417.52765,591.36884 z M 416.01313,592.26755 C 415.91925,592.26697 415.81155,592.27204 415.68193,592.2912 C 414.8424,592.41528 414.17303,592.73168 413.69422,593.21357 C 413.11023,593.80113 412.83648,594.411 412.72393,595.46037 C 412.69251,595.75331 412.7001,595.82765 412.81857,596.07528 C 412.96899,596.38941 413.06507,596.47718 413.3628,596.64289 C 413.52953,596.73568 413.60619,596.73636 413.83606,596.71384 C 414.32747,596.66568 414.78882,596.4818 415.27962,596.14623 C 416.61207,595.23518 417.27037,593.52819 416.62847,592.62231 C 416.4467,592.36584 416.29507,592.26927 416.01313,592.26755 z M 318.49509,601.13648 C 312.83902,601.13648 308.44201,602.52145 305.24342,605.63007 C 302.06433,608.73868 300.51065,613.13797 300.51068,618.63782 C 300.51068,624.13774 302.06433,628.53696 305.24342,631.64558 C 308.44201,634.75419 312.83902,636.13916 318.49509,636.13916 C 324.13162,636.13916 328.58721,634.75419 331.74678,631.64558 C 334.92578,628.53696 336.47946,624.13767 336.47954,618.63782 C 336.47954,613.13797 334.92586,608.73868 331.74678,605.63007 C 328.58713,602.52145 324.13162,601.13648 318.49509,601.13648 z M 244.66435,601.84599 L 253.41992,635.42965 L 264.7785,635.42965 L 270.22115,612.25219 L 275.90044,635.42965 L 287.25901,635.42965 L 295.77794,601.84599 L 285.60255,601.84599 L 280.1599,624.78694 L 274.71725,601.84599 L 265.96168,601.84599 L 260.28239,625.02345 L 254.83974,601.84599 L 244.66435,601.84599 z M 360.6165,601.84599 L 373.63152,635.42965 L 384.9901,635.42965 L 398.00512,601.84599 L 387.35644,601.84599 L 379.31081,625.02345 L 371.02847,601.84599 L 360.6165,601.84599 z M 403.92104,601.84599 L 403.92104,635.42965 L 414.33309,635.42965 L 414.33309,601.84599 L 403.92104,601.84599 z M 420.95891,601.84599 L 432.79076,618.16481 L 420.24901,635.42965 L 431.37096,635.42965 L 438.70669,624.78694 L 446.04241,635.42965 L 457.16436,635.42965 L 444.85924,618.16481 L 456.69109,601.84599 L 445.56915,601.84599 L 438.70669,611.77919 L 432.08086,601.84599 L 420.95891,601.84599 z M 318.49509,608.70463 C 320.777,608.70463 322.49187,609.59245 323.70108,611.30617 C 324.91035,613 325.59415,615.42953 325.59422,618.63782 C 325.59422,621.84611 324.91035,624.25574 323.70108,625.96946 C 322.49187,627.66329 320.77692,628.57102 318.49509,628.57102 C 316.17414,628.57102 314.51779,627.66329 313.28908,625.96946 C 312.07984,624.25574 311.39595,621.84604 311.39598,618.63782 C 311.39597,615.42961 312.07984,613 313.28908,611.30617 C 314.51779,609.59245 316.17414,608.70463 318.49509,608.70463 z "
       id="rect5593" />
  </g>
</svg>
