<?xml version="1.0" encoding="UTF-8" standalone="no"?>
<!-- Created with Inkscape (http://www.inkscape.org/) -->
<svg
   xmlns:dc="http://purl.org/dc/elements/1.1/"
   xmlns:cc="http://creativecommons.org/ns#"
   xmlns:rdf="http://www.w3.org/1999/02/22-rdf-syntax-ns#"
   xmlns:svg="http://www.w3.org/2000/svg"
   xmlns="http://www.w3.org/2000/svg"
   xmlns:sodipodi="http://sodipodi.sourceforge.net/DTD/sodipodi-0.dtd"
   xmlns:inkscape="http://www.inkscape.org/namespaces/inkscape"
   width="24.000000pt"
   height="24.000000pt"
   id="svg2775"
   sodipodi:version="0.32"
   inkscape:version="0.46"
   sodipodi:docbase="/home/pinuz/Desktop/newcursor/misc"
   sodipodi:docname="Wait07.svg"
   inkscape:export-filename="/home/pinuz/Desktop/newcursor/Source/svg/Wait.png"
   inkscape:export-xdpi="72.000000"
   inkscape:export-ydpi="72.000000"
   inkscape:output_extension="org.inkscape.output.svg.inkscape">
  <defs
     id="defs3">
    <inkscape:perspective
       sodipodi:type="inkscape:persp3d"
       inkscape:vp_x="0 : 15 : 1"
       inkscape:vp_y="0 : 1000 : 0"
       inkscape:vp_z="30 : 15 : 1"
       inkscape:persp3d-origin="15 : 10 : 1"
       id="perspective3798" />
    <defs
       id="defs77" />
    <sodipodi:namedview
       id="namedview3361"
       inkscape:zoom="1.51182741"
       inkscape:cx="257.292189"
       inkscape:cy="340.724418"
       inkscape:window-width="1076"
       inkscape:window-height="847"
       inkscape:window-x="0"
       inkscape:window-y="0" />
  </defs>
  <sodipodi:namedview
     id="base"
     pagecolor="#ffffff"
     bordercolor="#666666"
     borderopacity="1.0"
     inkscape:pageopacity="0.0"
     inkscape:pageshadow="2"
     inkscape:zoom="13.126292"
     inkscape:cx="-1.9598865"
     inkscape:cy="3.125935"
     inkscape:current-layer="layer2"
     showgrid="true"
     inkscape:grid-bbox="false"
     inkscape:window-width="1600"
     inkscape:window-height="1111"
     inkscape:window-x="0"
     inkscape:window-y="27">
    <inkscape:grid
       id="GridFromPre046Settings"
       type="xygrid"
       originx="0px"
       originy="0.0000000pt"
       spacingx="1.0000000pt"
       spacingy="1.0000000pt"
       color="#0000ff"
       empcolor="#0000ff"
       opacity="0.2"
       empopacity="0.4"
       empspacing="5" />
  </sodipodi:namedview>
  <metadata
     id="metadata4">
    <rdf:RDF>
      <cc:Work
         rdf:about="">
        <dc:format>image/svg+xml</dc:format>
        <dc:type
           rdf:resource="http://purl.org/dc/dcmitype/StillImage" />
      </cc:Work>
    </rdf:RDF>
  </metadata>
  <g
     id="layer1"
     inkscape:label="shadow"
     inkscape:groupmode="layer">
    <path
       sodipodi:type="arc"
       style="opacity:0.25;fill:#000000;fill-opacity:1;fill-rule:evenodd;stroke:#000000;stroke-width:1.12221515;stroke-linecap:round;stroke-linejoin:round;stroke-miterlimit:4;stroke-opacity:1"
       id="path2737"
       sodipodi:cx="21.898998"
       sodipodi:cy="20.909849"
       sodipodi:rx="6.8864775"
       sodipodi:ry="6.8864775"
       d="M 28.785476,20.909849 A 6.8864775,6.8864775 0 1 1 15.012521,20.909849 A 6.8864775,6.8864775 0 1 1 28.785476,20.909849 z"
       transform="matrix(1.935136,0,0,1.935136,-26.78964,-24.87553)" />
  </g>
  <g
     inkscape:groupmode="layer"
     id="layer2"
     inkscape:label="cursor">
    <path
       sodipodi:type="arc"
       style="fill:#ffffff;fill-opacity:1;fill-rule:evenodd;stroke:#4b4b4b;stroke-width:0.9735688;stroke-linecap:round;stroke-linejoin:round;stroke-miterlimit:4;stroke-opacity:1"
       id="path2742"
       sodipodi:cx="21.898998"
       sodipodi:cy="20.909849"
       sodipodi:rx="6.8864775"
       sodipodi:ry="6.8864775"
       d="M 28.785476,20.909849 A 6.8864775,6.8864775 0 1 1 15.012521,20.909849 A 6.8864775,6.8864775 0 1 1 28.785476,20.909849 z"
       transform="matrix(1.935136,0,0,1.935136,-28.10928,-26.19514)" />
    <path
       id="path4816"
       d="M 11.165984,24.214377 C 10.81958,24.110253 10.515864,23.779313 10.153842,23.111531 C 9.7666779,22.397384 9.3652095,21.982198 8.7771694,21.687827 C 8.3712555,21.484625 8.3075566,21.421224 8.0280581,20.942198 C 7.6497911,20.293913 7.2359612,19.862875 6.8138233,19.677484 C 6.6361208,19.599452 6.1452551,19.491671 5.7230023,19.437981 C 4.8606794,19.328344 4.5994523,19.221015 4.406288,18.896992 C 4.1314379,18.435961 4.283708,17.117673 4.7154751,16.220212 C 5.1623565,15.291336 6.0063494,14.676558 7.2491127,14.374683 C 8.1465109,14.1567 8.6269198,14.171806 9.2890594,14.438844 C 9.7373439,14.619624 9.9310349,14.659101 10.371232,14.659354 C 10.66613,14.65954 11.093857,14.7091 11.321756,14.769499 C 11.717918,14.874492 11.761798,14.872467 12.321256,14.723383 L 12.906409,14.567459 L 13.858054,14.840442 C 15.105091,15.198153 15.432763,15.396862 15.71584,15.967071 C 15.973046,16.485175 16.066256,17.220784 15.955891,17.861585 C 15.916566,18.089929 15.711936,18.675338 15.501158,19.162507 C 15.25245,19.737314 15.046217,20.35829 14.913654,20.931507 C 14.606297,22.260543 14.429079,22.685798 14.001166,23.121226 C 13.192817,23.943761 11.91049,24.438193 11.165984,24.214377 z M 17.41103,21.567626 C 17.017811,21.348665 16.919833,21.24369 16.721276,20.828621 C 16.564762,20.501436 16.549486,20.406564 16.590976,20.019484 C 16.739609,18.632932 17.084681,17.821462 17.855821,17.04511 C 18.488273,16.408372 19.382866,15.996981 20.491499,15.833043 C 21.176519,15.73175 21.419314,15.816432 21.73934,16.268275 C 22.58711,17.465227 21.725332,19.734161 19.965714,20.93794 C 19.317604,21.381325 18.70935,21.619105 18.0605,21.682733 C 17.756897,21.712506 17.6312,21.690233 17.41103,21.567626 z M 21.750265,15.944881 C 21.238752,15.50467 21.677299,14.86263 22.632632,14.653087 C 23.138971,14.542021 23.206906,14.622615 23.035773,15.131354 C 22.866234,15.635353 22.745095,15.82064 22.475023,15.989056 C 22.182076,16.17175 22.001046,16.160713 21.750265,15.944881 z M 17.957044,14.9848 C 17.321811,14.770188 16.854211,14.352227 16.694043,13.85586 C 16.493692,13.23497 16.75302,12.369998 17.34814,11.674205 C 18.271925,10.594143 20.689329,9.2792236 21.564325,9.3808816 C 21.998286,9.4312976 22.453271,9.7105396 22.685013,10.068707 C 22.85518,10.331692 22.871172,10.413861 22.871172,11.024683 C 22.871172,11.972773 22.731943,12.238212 21.694193,13.268593 C 20.808365,14.148126 20.400151,14.426862 19.48037,14.780212 C 18.761836,15.056246 18.337302,15.113265 17.957044,14.9848 z M 7.2415025,12.929848 C 6.8715305,12.720908 6.7175412,12.583732 6.5589838,12.321853 C 6.3746469,12.0174 6.3519023,11.915747 6.3309195,11.302243 C 6.2828694,9.8974166 6.866901,8.8009436 7.9652783,8.2338603 C 9.0116985,7.693606 10.762071,7.8553689 11.16391,8.5294676 C 11.457077,9.0212776 11.288093,10.00136 10.748092,10.941077 C 10.420729,11.510754 9.4603912,12.468197 8.8450877,12.838343 C 8.1313499,13.267708 7.8664879,13.282825 7.2415025,12.929848 z M 13.784794,11.452934 C 13.275764,11.189808 12.789361,10.674453 12.543304,10.137524 C 12.389875,9.8027046 12.360391,9.6427306 12.360391,9.1450246 C 12.360391,8.3679786 12.46479,8.190456 13.508766,7.1922817 C 14.189841,6.5410802 14.413654,6.3728317 14.942052,6.1148003 C 15.614183,5.7865903 16.400964,5.5548031 17.086483,5.483066 C 17.424753,5.4476688 17.572635,5.4656717 17.803128,5.5703174 C 18.364025,5.8249631 18.944649,6.7055903 18.946035,7.3037489 C 18.946777,7.6274889 18.372677,8.8326876 17.914176,9.4698916 C 17.195701,10.468381 15.574675,11.5119 14.561552,11.628097 C 14.250691,11.663752 14.147738,11.640533 13.784794,11.452934 z M 22.783011,9.3343446 C 22.42666,8.9629836 22.417198,8.7835736 22.73768,8.4744456 C 23.105629,8.1195289 23.981812,7.9005603 24.188437,8.111896 C 24.517005,8.4479416 23.75975,9.6336626 23.21655,9.6336626 C 23.13436,9.6336626 22.94434,9.5024756 22.783011,9.3343446 z M 10.904873,7.4477303 C 10.823251,7.3588717 10.756471,7.2314518 10.756471,7.1645689 C 10.756471,6.856336 11.668805,6.3109031 11.881872,6.4917603 C 11.938593,6.5399074 11.985009,6.6495989 11.985009,6.7355303 C 11.985009,6.900956 11.701517,7.3738632 11.515537,7.5186703 C 11.339856,7.6554703 11.066521,7.6237174 10.904873,7.4477303 z M 18.857085,5.5287503 C 18.565283,5.2172316 18.650996,4.8157959 19.089983,4.4380031 C 19.268089,4.2847231 19.362206,4.2554331 19.621386,4.2726288 L 19.936349,4.2935188 L 19.920882,4.5592217 C 19.863713,5.5412917 19.327022,6.0304217 18.857085,5.5287503 z"
       style="opacity:0.56;fill:#2e3436;fill-opacity:1;stroke:none;stroke-width:0.30000000999999998;stroke-miterlimit:4;stroke-dasharray:none;stroke-opacity:1" />
  </g>
</svg>
