<?xml version="1.0" encoding="UTF-8" standalone="no"?>
<!-- Created with Inkscape (http://www.inkscape.org/) -->
<svg
   xmlns:dc="http://purl.org/dc/elements/1.1/"
   xmlns:cc="http://web.resource.org/cc/"
   xmlns:rdf="http://www.w3.org/1999/02/22-rdf-syntax-ns#"
   xmlns:svg="http://www.w3.org/2000/svg"
   xmlns="http://www.w3.org/2000/svg"
   xmlns:xlink="http://www.w3.org/1999/xlink"
   xmlns:sodipodi="http://sodipodi.sourceforge.net/DTD/sodipodi-0.dtd"
   xmlns:inkscape="http://www.inkscape.org/namespaces/inkscape"
   inkscape:export-ydpi="90.000000"
   inkscape:export-xdpi="90.000000"
   inkscape:export-filename="/home/jimmac/Desktop/wi-fi.png"
   width="48px"
   height="48px"
   id="svg11300"
   sodipodi:version="0.32"
   inkscape:version="0.44.1"
   sodipodi:docbase="/root"
   sodipodi:docname="tango-menu-square4.svg">
  <defs
     id="defs3">
    <linearGradient
       id="linearGradient3719">
      <stop
         style="stop-color:white;stop-opacity:1;"
         offset="0"
         id="stop3721" />
      <stop
         id="stop3729"
         offset="0.5"
         style="stop-color:#fefefe;stop-opacity:1;" />
      <stop
         style="stop-color:#1d1d1d;stop-opacity:1;"
         offset="1"
         id="stop3723" />
    </linearGradient>
    <linearGradient
       id="linearGradient2933">
      <stop
         style="stop-color:#babdb6;stop-opacity:1;"
         offset="0"
         id="stop2935" />
      <stop
         style="stop-color:#2e3436;stop-opacity:1;"
         offset="1"
         id="stop2937" />
    </linearGradient>
    <linearGradient
       id="linearGradient11508"
       inkscape:collect="always">
      <stop
         id="stop11510"
         offset="0"
         style="stop-color:#000000;stop-opacity:1;" />
      <stop
         id="stop11512"
         offset="1"
         style="stop-color:#000000;stop-opacity:0;" />
    </linearGradient>
    <radialGradient
       inkscape:collect="always"
       xlink:href="#linearGradient11508"
       id="radialGradient1348"
       gradientUnits="userSpaceOnUse"
       gradientTransform="matrix(1.000000,0.000000,0.000000,0.338462,-1.435476e-15,29.48178)"
       cx="30.203562"
       cy="44.565483"
       fx="30.203562"
       fy="44.565483"
       r="6.5659914" />
    <radialGradient
       inkscape:collect="always"
       xlink:href="#linearGradient2933"
       id="radialGradient2939"
       cx="25.457863"
       cy="35.596233"
       fx="25.457863"
       fy="35.596233"
       r="20.530962"
       gradientUnits="userSpaceOnUse"
       gradientTransform="matrix(2.128185,-1.727173e-9,2.422814e-16,2.128254,-29.01906,-39.91779)" />
    <radialGradient
       inkscape:collect="always"
       xlink:href="#linearGradient3719"
       id="radialGradient4616"
       cx="24.826731"
       cy="31.28652"
       fx="24.826731"
       fy="31.28652"
       r="15"
       gradientUnits="userSpaceOnUse"
       gradientTransform="matrix(2.877966,5.674335e-3,-5.665686e-3,2.873605,-46.1419,-54.70125)" />
  </defs>
  <sodipodi:namedview
     stroke="#3465a4"
     fill="#729fcf"
     id="base"
     pagecolor="#ffffff"
     bordercolor="#666666"
     borderopacity="0.25490196"
     inkscape:pageopacity="0.0"
     inkscape:pageshadow="2"
     inkscape:zoom="7.6145833"
     inkscape:cx="23.04788"
     inkscape:cy="29.135665"
     inkscape:current-layer="layer1"
     showgrid="true"
     inkscape:grid-bbox="true"
     inkscape:document-units="px"
     inkscape:showpageshadow="false"
     inkscape:window-width="1280"
     inkscape:window-height="937"
     inkscape:window-x="0"
     inkscape:window-y="25" />
  <metadata
     id="metadata4">
    <rdf:RDF>
      <cc:Work
         rdf:about="">
        <dc:format>image/svg+xml</dc:format>
        <dc:type
           rdf:resource="http://purl.org/dc/dcmitype/StillImage" />
        <dc:creator>
          <cc:Agent>
            <dc:title>Jakub Steiner</dc:title>
          </cc:Agent>
        </dc:creator>
        <dc:source>http://jimmac.musichall.cz</dc:source>
        <cc:license
           rdf:resource="http://creativecommons.org/licenses/by-sa/2.0/" />
        <dc:title>Accessibility</dc:title>
        <dc:subject>
          <rdf:Bag>
            <rdf:li>accessibility</rdf:li>
            <rdf:li>assist</rdf:li>
          </rdf:Bag>
        </dc:subject>
      </cc:Work>
      <cc:License
         rdf:about="http://creativecommons.org/licenses/by-sa/2.0/">
        <cc:permits
           rdf:resource="http://web.resource.org/cc/Reproduction" />
        <cc:permits
           rdf:resource="http://web.resource.org/cc/Distribution" />
        <cc:requires
           rdf:resource="http://web.resource.org/cc/Notice" />
        <cc:requires
           rdf:resource="http://web.resource.org/cc/Attribution" />
        <cc:permits
           rdf:resource="http://web.resource.org/cc/DerivativeWorks" />
        <cc:requires
           rdf:resource="http://web.resource.org/cc/ShareAlike" />
      </cc:License>
    </rdf:RDF>
  </metadata>
  <g
     id="layer1"
     inkscape:label="Layer 1"
     inkscape:groupmode="layer">
    <path
       sodipodi:type="arc"
       style="opacity:0.40641710;color:#000000;fill:url(#radialGradient1348);fill-opacity:1.0000000;fill-rule:evenodd;stroke:none;stroke-width:2.8141584;stroke-linecap:butt;stroke-linejoin:miter;marker:none;marker-start:none;marker-mid:none;marker-end:none;stroke-miterlimit:10.000000;stroke-dasharray:none;stroke-dashoffset:0.0000000;stroke-opacity:1.0000000;visibility:visible;display:inline;overflow:visible"
       id="path11530"
       sodipodi:cx="30.203562"
       sodipodi:cy="44.565483"
       sodipodi:rx="6.5659914"
       sodipodi:ry="2.2223356"
       d="M 36.769553 44.565483 A 6.5659914 2.2223356 0 1 1  23.637570,44.565483 A 6.5659914 2.2223356 0 1 1  36.769553 44.565483 z"
       transform="matrix(2.460049,0.000000,0.000000,2.460049,-49.40946,-67.96374)" />
    <rect
       ry="5.4548240"
       rx="5.4548240"
       y="3.5233452"
       x="4.4147282"
       height="40.061924"
       width="40.061924"
       id="rect11518"
       style="opacity:1.0000000;color:#000000;fill:url(#radialGradient2939);fill-opacity:1.0;fill-rule:evenodd;stroke:#2e3436;stroke-width:1.0000000;stroke-linecap:butt;stroke-linejoin:bevel;marker:none;marker-start:none;marker-mid:none;marker-end:none;stroke-miterlimit:10.000000;stroke-dasharray:none;stroke-dashoffset:0.0000000;stroke-opacity:1;visibility:visible;display:inline;overflow:visible" />
    <rect
       style="opacity:1;color:#000000;fill:none;fill-opacity:1;fill-rule:evenodd;stroke:#ffffff;stroke-width:2.00000215;stroke-linecap:butt;stroke-linejoin:bevel;marker:none;marker-start:none;marker-mid:none;marker-end:none;stroke-miterlimit:10;stroke-dasharray:none;stroke-dashoffset:0;stroke-opacity:1;visibility:visible;display:inline;overflow:visible"
       id="rect11528"
       width="37.100636"
       height="37.100636"
       x="5.8954034"
       y="5.0040197"
       rx="3.9067502"
       ry="3.9067502" />
    <path
       id="path4618"
       d="M 20.346587,38.492359 C 19.826979,38.336167 19.371407,37.839765 18.828376,36.83809 C 18.247627,35.766869 17.645422,35.144093 16.763365,34.702537 C 16.154494,34.397729 16.058947,34.302632 15.639699,33.584089 C 15.072298,32.611662 14.451554,31.965105 13.818344,31.68702 C 13.551795,31.569966 12.815497,31.408297 12.182115,31.327766 C 10.888634,31.16331 10.496794,31.002321 10.207043,30.516283 C 9.7947658,29.824735 10.023174,27.847301 10.670827,26.501117 C 11.341145,25.107799 12.607137,24.18563 14.471281,23.732816 C 15.817376,23.405844 16.53799,23.428503 17.531198,23.829056 C 18.203625,24.100229 18.494163,24.159439 19.154457,24.159828 C 19.596803,24.160104 20.238393,24.234444 20.580247,24.325038 C 21.174487,24.482531 21.240305,24.479493 22.079496,24.255867 L 22.957221,24.021983 L 24.384695,24.431456 C 26.255248,24.968025 26.746754,25.266087 27.171367,26.121399 C 27.557176,26.898556 27.696993,28.001968 27.531449,28.963171 C 27.472459,29.305684 27.165511,30.183803 26.849348,30.914554 C 26.476281,31.776766 26.166938,32.708222 25.968088,33.568049 C 25.507049,35.561608 25.241226,36.199493 24.599362,36.852633 C 23.38684,38.086437 21.463344,38.828078 20.346587,38.492359 z M 29.714149,34.522228 C 29.124323,34.193788 28.97736,34.036327 28.679522,33.41373 C 28.444751,32.922949 28.421836,32.780639 28.484074,32.20002 C 28.707021,30.120192 29.224632,28.902986 30.381334,27.738454 C 31.330021,26.783355 32.671904,26.166266 34.334859,25.920357 C 35.362383,25.768417 35.726581,25.895438 36.20662,26.573208 C 37.478277,28.368634 36.185605,31.772034 33.546181,33.577703 C 32.574014,34.242781 31.661635,34.59945 30.688357,34.694892 C 30.232952,34.739551 30.044414,34.706138 29.714149,34.522228 z M 36.223,26.088112 C 35.455734,25.4278 36.113552,24.46474 37.546553,24.150427 C 38.306059,23.983824 38.40797,24.10472 38.151267,24.867826 C 37.896961,25.623823 37.71525,25.901754 37.310143,26.15438 C 36.870725,26.428418 36.599177,26.411861 36.223,26.088112 z M 30.533175,24.647994 C 29.580324,24.326077 28.878924,23.699132 28.638672,22.95458 C 28.338145,22.02325 28.727139,20.725796 29.619822,19.6821 C 31.005493,18.062006 34.631599,16.089627 35.944094,16.242117 C 36.595042,16.317737 37.277514,16.736604 37.625127,17.273853 C 37.880377,17.668333 37.904373,17.791588 37.904373,18.707816 C 37.904373,20.129951 37.695521,20.528114 36.138899,22.073686 C 34.81016,23.392985 34.197837,23.811088 32.818162,24.34111 C 31.740362,24.755162 31.10356,24.840685 30.533175,24.647994 z M 14.459863,21.565569 C 13.904908,21.252154 13.673922,21.04639 13.436091,20.653576 C 13.159574,20.196887 13.125463,20.044414 13.093991,19.12416 C 13.021921,17.016917 13.897965,15.372209 15.54553,14.521585 C 17.115156,13.711202 19.740718,13.953846 20.343477,14.964998 C 20.783227,15.702713 20.529749,17.17283 19.71975,18.582407 C 19.228705,19.436924 17.788197,20.873087 16.865241,21.428307 C 15.794637,22.072359 15.397339,22.095027 14.459863,21.565569 z M 24.274802,19.350195 C 23.511258,18.955507 22.781652,18.182474 22.412573,17.377077 C 22.182426,16.874852 22.138198,16.634891 22.138198,15.888328 C 22.138198,14.722763 22.294794,14.456478 23.860753,12.959218 C 24.882372,11.982411 25.21809,11.730042 26.010689,11.343 C 27.018882,10.850679 28.199053,10.503006 29.227333,10.395396 C 29.734737,10.342299 29.956561,10.369301 30.302301,10.526271 C 31.143642,10.908235 32.014582,12.229181 32.01666,13.126419 C 32.017774,13.612025 31.156624,15.419818 30.468869,16.37563 C 29.391162,17.873365 26.959619,19.438645 25.439931,19.612942 C 24.973643,19.666426 24.819217,19.631598 24.274802,19.350195 z M 37.772119,16.172309 C 37.237598,15.615269 37.223408,15.346155 37.70412,14.882463 C 38.256049,14.350086 39.570324,14.021634 39.880264,14.33864 C 40.37312,14.842708 39.237226,16.621289 38.422435,16.621289 C 38.299151,16.621289 38.014121,16.424508 37.772119,16.172309 z M 19.954918,13.342388 C 19.832487,13.209104 19.732322,13.017971 19.732322,12.917651 C 19.732322,12.455298 21.100815,11.637146 21.420418,11.908434 C 21.505501,11.980653 21.575122,12.145195 21.575122,12.274088 C 21.575122,12.522227 21.149882,13.231587 20.870912,13.448806 C 20.607393,13.654004 20.197394,13.606369 19.954918,13.342388 z M 31.883239,10.463917 C 31.445534,9.9966464 31.574097,9.3944854 32.232581,8.8278034 C 32.499737,8.5978824 32.640916,8.5539494 33.029687,8.5797374 L 33.502129,8.6110774 L 33.47893,9.0096304 C 33.393176,10.482733 32.588141,11.216428 31.883239,10.463917 z "
       style="fill:black;fill-opacity:0.71372549;stroke:none;stroke-width:2;stroke-miterlimit:4;stroke-dasharray:none;stroke-opacity:1" />
    <path
       id="path4816"
       d="M 19.821279,37.919172 C 19.301671,37.76298 18.846099,37.266578 18.303068,36.264903 C 17.722319,35.193682 17.120114,34.570906 16.238057,34.12935 C 15.629186,33.824542 15.533639,33.729445 15.114391,33.010902 C 14.54699,32.038475 13.926246,31.391918 13.293036,31.113833 C 13.026487,30.996779 12.290189,30.83511 11.656807,30.754579 C 10.363326,30.590123 9.9714862,30.429134 9.6817352,29.943096 C 9.269458,29.251548 9.4978662,27.274114 10.145519,25.92793 C 10.815837,24.534612 12.081829,23.612443 13.945973,23.159629 C 15.292068,22.832657 16.012682,22.855316 17.00589,23.255869 C 17.678317,23.527042 17.968855,23.586252 18.629149,23.586641 C 19.071495,23.586917 19.713085,23.661257 20.054939,23.751851 C 20.649179,23.909344 20.714997,23.906306 21.554188,23.68268 L 22.431913,23.448796 L 23.859387,23.858269 C 25.72994,24.394838 26.221446,24.6929 26.646059,25.548212 C 27.031868,26.325369 27.171685,27.428781 27.006141,28.389984 C 26.947151,28.732497 26.640203,29.610616 26.32404,30.341367 C 25.950973,31.203579 25.64163,32.135035 25.44278,32.994862 C 24.981741,34.988421 24.715918,35.626306 24.074054,36.279446 C 22.861532,37.51325 20.938036,38.254891 19.821279,37.919172 z M 29.188841,33.949041 C 28.599015,33.620601 28.452052,33.46314 28.154214,32.840543 C 27.919443,32.349762 27.896528,32.207452 27.958766,31.626833 C 28.181713,29.547005 28.699324,28.329799 29.856026,27.165267 C 30.804713,26.210168 32.146596,25.593079 33.809551,25.34717 C 34.837075,25.19523 35.201273,25.322251 35.681312,26.000021 C 36.952969,27.795447 35.660297,31.198847 33.020873,33.004516 C 32.048706,33.669594 31.136327,34.026263 30.163049,34.121705 C 29.707644,34.166364 29.519106,34.132951 29.188841,33.949041 z M 35.697692,25.514925 C 34.930426,24.854613 35.588244,23.891553 37.021245,23.57724 C 37.780751,23.410637 37.882662,23.531533 37.625959,24.294639 C 37.371653,25.050636 37.189942,25.328567 36.784835,25.581193 C 36.345417,25.855231 36.073869,25.838674 35.697692,25.514925 z M 30.007867,24.074807 C 29.055016,23.75289 28.353616,23.125945 28.113364,22.381393 C 27.812837,21.450063 28.201831,20.152609 29.094514,19.108913 C 30.480185,17.488819 34.106291,15.51644 35.418786,15.66893 C 36.069734,15.74455 36.752206,16.163417 37.099819,16.700666 C 37.355069,17.095146 37.379065,17.218401 37.379065,18.134629 C 37.379065,19.556764 37.170213,19.954927 35.613591,21.500499 C 34.284852,22.819798 33.672529,23.237901 32.292854,23.767923 C 31.215054,24.181975 30.578252,24.267498 30.007867,24.074807 z M 13.934555,20.992382 C 13.3796,20.678967 13.148614,20.473203 12.910783,20.080389 C 12.634266,19.6237 12.600155,19.471227 12.568683,18.550973 C 12.496613,16.44373 13.372657,14.799022 15.020222,13.948398 C 16.589848,13.138015 19.21541,13.380659 19.818169,14.391811 C 20.257919,15.129526 20.004441,16.599643 19.194442,18.00922 C 18.703397,18.863737 17.262889,20.2999 16.339933,20.85512 C 15.269329,21.499172 14.872031,21.52184 13.934555,20.992382 z M 23.749494,18.777008 C 22.98595,18.38232 22.256344,17.609287 21.887265,16.80389 C 21.657118,16.301665 21.61289,16.061704 21.61289,15.315141 C 21.61289,14.149576 21.769486,13.883291 23.335445,12.386031 C 24.357064,11.409224 24.692782,11.156855 25.485381,10.769813 C 26.493574,10.277492 27.673745,9.9298185 28.702025,9.8222085 C 29.209429,9.7691117 29.431253,9.7961138 29.776993,9.9530835 C 30.618334,10.335048 31.489274,11.655994 31.491352,12.553232 C 31.492466,13.038838 30.631316,14.846631 29.943561,15.802443 C 28.865854,17.300178 26.434311,18.865458 24.914623,19.039755 C 24.448335,19.093239 24.293909,19.058411 23.749494,18.777008 z M 37.246811,15.599122 C 36.71229,15.042082 36.6981,14.772968 37.178812,14.309276 C 37.730741,13.776899 39.045016,13.448447 39.354956,13.765453 C 39.847812,14.269521 38.711918,16.048102 37.897127,16.048102 C 37.773843,16.048102 37.488813,15.851321 37.246811,15.599122 z M 19.42961,12.769201 C 19.307179,12.635917 19.207014,12.444784 19.207014,12.344464 C 19.207014,11.882111 20.575507,11.063959 20.89511,11.335247 C 20.980193,11.407466 21.049814,11.572008 21.049814,11.700901 C 21.049814,11.94904 20.624574,12.6584 20.345604,12.875619 C 20.082085,13.080817 19.672086,13.033182 19.42961,12.769201 z M 31.357931,9.8907295 C 30.920226,9.4234592 31.048789,8.8212981 31.707273,8.2546163 C 31.974429,8.0246952 32.115608,7.9807615 32.504379,8.0065495 L 32.976821,8.0378899 L 32.953622,8.4364431 C 32.867868,9.909546 32.062833,10.643241 31.357931,9.8907295 z "
       style="fill:url(#radialGradient4616);fill-opacity:1.0;stroke:none;stroke-width:2;stroke-miterlimit:4;stroke-dasharray:none;stroke-opacity:1" />
  </g>
</svg>
