<?xml version="1.00000" encoding="UTF-8" standalone="no"?>

<svg xmlns:svg="http://www.w3.org/2000/svg" xmlns="http://www.w3.org/2000/svg" xmlns:xlink="http://www.w3.org/1999/xlink" version="1.00000" width="128.455" height="126.576" ><defs id="defs1929"><linearGradient id="linearGradient9113"><stop style="stop-color:#4c2076;stop-opacity:1" offset="0"
/><stop style="stop-color:#4c2076;stop-opacity:0" offset="1"
/></linearGradient><linearGradient id="linearGradient4767"><stop style="stop-color:white;stop-opacity:1" offset="0"
/><stop style="stop-color:#fa7000;stop-opacity:1" offset="0.500"
/><stop style="stop-color:white;stop-opacity:0.941" offset="1"
/></linearGradient><linearGradient id="linearGradient3874"><stop style="stop-color:#f8750e;stop-opacity:1" offset="0"
/><stop style="stop-color:#f8750e;stop-opacity:0" offset="1"
/></linearGradient><linearGradient id="linearGradient3866"><stop style="stop-color:#f8750e;stop-opacity:1" offset="0"
/><stop style="stop-color:#f8750e;stop-opacity:0" offset="1"
/></linearGradient><linearGradient id="linearGradient76064"><stop style="stop-color:white;stop-opacity:1" offset="0"
/><stop style="stop-color:#f8750e;stop-opacity:1" offset="1"
/></linearGradient><linearGradient id="linearGradient66178"><stop style="stop-color:#ebf73a;stop-opacity:1" offset="0"
/><stop style="stop-color:#0cf70b;stop-opacity:0.989" offset="1"
/></linearGradient><linearGradient id="linearGradient60752"><stop style="stop-color:white;stop-opacity:1" offset="0"
/><stop style="stop-color:white;stop-opacity:0" offset="1"
/></linearGradient><linearGradient id="linearGradient60744"><stop style="stop-color:aqua;stop-opacity:1" offset="0"
/><stop style="stop-color:aqua;stop-opacity:0" offset="1"
/></linearGradient><linearGradient id="linearGradient60726"><stop style="stop-color:white;stop-opacity:1" offset="0"
/><stop style="stop-color:black;stop-opacity:0" offset="1"
/></linearGradient><linearGradient x1="276.368" y1="432.761" x2="584.959" y2="532.752" id="linearGradient60750" xlink:href="#linearGradient60744" gradientUnits="userSpaceOnUse" /><linearGradient x1="297.464" y1="220.261" x2="351.770" y2="290.603" id="linearGradient60773" xlink:href="#linearGradient60752" gradientUnits="userSpaceOnUse" /><linearGradient x1="216.755" y1="275.697" x2="411.502" y2="245.736" id="linearGradient61675" xlink:href="#linearGradient60726" gradientUnits="userSpaceOnUse" /><linearGradient x1="685.802" y1="455.148" x2="760.674" y2="520.659" id="linearGradient66196" xlink:href="#linearGradient66178" gradientUnits="userSpaceOnUse" /><linearGradient x1="685.802" y1="455.148" x2="760.674" y2="520.659" id="linearGradient66198" xlink:href="#linearGradient66178" gradientUnits="userSpaceOnUse" /><linearGradient x1="996.065" y1="779.445" x2="981.906" y2="913.307" id="linearGradient3872" xlink:href="#linearGradient3866" gradientUnits="userSpaceOnUse" gradientTransform="matrix(0.135,0,0,0.135,-9.022,-9.971)" /><linearGradient x1="929.495" y1="801.653" x2="850.040" y2="963.098" id="linearGradient3880" xlink:href="#linearGradient3874" gradientUnits="userSpaceOnUse" gradientTransform="matrix(0.135,0,0,0.135,-9.022,-9.971)" /><linearGradient x1="731.742" y1="589.602" x2="356.964" y2="808.616" id="linearGradient4773" xlink:href="#linearGradient4767" gradientUnits="userSpaceOnUse" gradientTransform="matrix(0.135,0,0,0.135,-9.022,-9.971)" /><linearGradient x1="511.707" y1="708.950" x2="310.868" y2="793.852" id="linearGradient11877" xlink:href="#linearGradient76064" gradientUnits="userSpaceOnUse" gradientTransform="matrix(0.135,0,0,0.135,-9.022,-9.971)" /><linearGradient x1="511.707" y1="708.950" x2="310.868" y2="793.852" id="linearGradient12770" xlink:href="#linearGradient76064" gradientUnits="userSpaceOnUse" gradientTransform="matrix(0.135,0,0,0.135,-9.022,-9.971)" /><linearGradient x1="511.707" y1="708.950" x2="310.868" y2="793.852" id="linearGradient18096" xlink:href="#linearGradient76064" gradientUnits="userSpaceOnUse" gradientTransform="matrix(0.135,0,0,0.135,-9.022,-9.971)" /><linearGradient x1="140.034" y1="667.937" x2="210.5009447" y2="667.937" id="linearGradient18989" xlink:href="#linearGradient76064" gradientUnits="userSpaceOnUse" gradientTransform="matrix(0.135,0,0,0.135,-9.022,-9.971)" /><linearGradient x1="665.448" y1="245.431" x2="561.000004193" y2="177.738" id="linearGradient19890" xlink:href="#linearGradient4767" gradientUnits="userSpaceOnUse" gradientTransform="matrix(0.135,0,0,0.135,-9.022,-9.971)" /><linearGradient x1="601.772" y1="256.043" x2="520.886" y2="217.608" id="linearGradient20785" xlink:href="#linearGradient4767" gradientUnits="userSpaceOnUse" gradientTransform="matrix(0.135,0,0,0.135,-9.022,-9.971)" /><linearGradient x1="-52.920" y1="292.802" x2="815.748" y2="522.150" id="linearGradient2902" xlink:href="#linearGradient76064" gradientUnits="userSpaceOnUse" gradientTransform="matrix(0.135,0,0,0.135,-9.022,-9.971)" /><linearGradient x1="648.403" y1="315.670" x2="243.149" y2="523.334" id="linearGradient9119" xlink:href="#linearGradient9113" gradientUnits="userSpaceOnUse" gradientTransform="matrix(0.135,0,0,0.135,-9.022,-9.971)" /><linearGradient x1="648.403" y1="315.670" x2="243.149" y2="523.334" id="linearGradient9127" xlink:href="#linearGradient3866" gradientUnits="userSpaceOnUse" gradientTransform="matrix(0.135,0,0,0.135,-9.022,-9.971)" /><linearGradient x1="615.662" y1="318.205" x2="13.738" y2="573.300" id="linearGradient10028" xlink:href="#linearGradient3866" gradientUnits="userSpaceOnUse" gradientTransform="matrix(0.135,0,0,0.135,-9.022,-9.971)" /></defs><path d="M 56.402,93.610 C 58.639,98.908 61.996,103.087 65.228,107.391 C 67.215,126.222 55.933,129.432 45.081,123.005 C 43.050,121.802 40.50094495,119.874 39.466,117.412 C 38.735,115.817 39.549,113.637 38.052,112.501 C 43.613,105.649 49.604,99.226 56.402,93.610 z " style=";fill:#f8750e;stroke:none;stroke-width:1;stroke-linecap:round;stroke-linejoin:round;"
/><path d="M 31.161,92.603 C 37.469,87.727 44.545,84.111 52.298,81.609 C 54.694,83.468 56.477,85.776 56.208,89.584 C 50.200,95.353 44.331,102.617 38.633,111.689 C 38.803,107.323 36.358,100.995 31.161,92.603 z " style=";fill:#f8750e;stroke:none;stroke-width:1;stroke-linecap:round;stroke-linejoin:round;"
/><path d="M 52.917,62.485 C 63.339,54.460 70.740,44.115 67.938,25.941 C 78.525,22.285 89.147,21.0000099163 99.837,24.857 C 114.527,21.383 121.113,29.181 126.871,42.155 C 127.257,43.025 127.639,43.918 128.019,44.832 C 127.259,50.735 126.662,56.577 126.682,62.562 C 126.692,65.248 127.413,67.993 127.283,70.733 C 127.171,73.096 127.507,75.480 127.062,77.912 C 126.778,79.467 125.695,81.0000065393 125.542,82.616 C 124.738,89.410 120.5002815,93.454 116.971,97.815 C 111.000008098,105.036 101.731,110.917 92.404,116.528 C 82.884,113.136 73.643,108.909 65.151,102.436 L 52.453,68.060 C 51.914,66.202 52.458,64.343 52.917,62.485 z " style=";fill:#f8750e;stroke:#8df4f4;stroke-width:0.135;stroke-linecap:round;stroke-linejoin:round;"
/><path d="M 92.249,116.063 L 92.714,90.203 L 93.023,81.377 L 101.000007558,78.744 C 97.971,72.550 95.409,66.356 93.952,60.162 C 93.917,44.878 95.158,32.601 100.456,24.702 C 94.192,22.368 79.819,20.655 68.093,26.405 C 70.776,44.312 64.829,55.562 53.072,62.330 C 52.281,64.145 51.620,65.993 52.453,68.215 L 65.305,102.901 C 74.066,109.451 83.241,113.100 92.404,116.837" style=";fill:url(#linearGradient2902);fill-rule:nonzero;stroke:none;stroke-width:1;stroke-linecap:round;stroke-linejoin:round;"
/><path d="M 743.176,459.651 A 77.241,98.888 0 1 1 742.982,457.936" transform="matrix(0.135,0,0,0.135,-12.210,-7.846)" style=";fill:white;stroke:black;stroke-width:8;stroke-linecap:square;"
/><g transform="translate(-478.501,-479.513)"
/><g transform="translate(-478.501,-479.513)" style=""
/><path d="M 743.176,459.651 A 77.241,98.888 0 1 1 742.982,457.936" transform="matrix(0.135,0,0,0.135,20.924,-8.045)" style=";fill:white;stroke:black;stroke-width:8;stroke-linecap:square;"
/><path d="M 756.177,510.745 A 54.118,73.797 0 1 1 756.041,509.464" transform="matrix(0.135,0,0,0.135,15.944,-11.166)" style=";fill:url(#linearGradient66196);stroke:#004c00;stroke-width:8;stroke-linecap:square;stroke-linejoin:round;"
/><path d="M 756.177,510.745 A 54.118,73.797 0 1 1 756.041,509.464" transform="matrix(0.135,0,0,0.135,-16.858,-10.901)" style=";fill:url(#linearGradient66198);stroke:#004c00;stroke-width:8;stroke-linecap:square;stroke-linejoin:round;"
/><path d="M 85.532,78.494 C 86.450,79.736 88.512,80.916 89.782,80.751 C 91.662,80.108 93.628,81.702 93.367,81.946 C 93.972,80.893 95.025,80.261 96.687,80.618 C 99.022,80.348 100.5000631,79.738 101.000006985,78.759 L 101.203,78.560" style="fill:none;stroke:black;stroke-width:1.000007972491;stroke-linecap:round;"
/><path d="M 80.945,95.197 L 83.113,99.610 L 85.010,95.662 L 80.945,95.197 z " style=";fill:#fff6ff;stroke:none;stroke-width:1;stroke-linecap:round;stroke-linejoin:round;"
/><path d="M 93.367,81.814 L 93.158,85.933 L 92.969,89.649 C 86.880,97.714 81.219,97.195 75.838,91.110 L 75.838,91.110" style="fill:none;stroke:black;stroke-width:1.000007972491;stroke-linecap:butt;"
/><path d="M 102.121,95.584 L 105.953,94.539 L 103.747,98.913 L 102.121,95.584 z " style=";fill:#fff6ff;stroke:none;stroke-width:1;stroke-linecap:round;stroke-linejoin:round;"
/><path d="M 92.703,89.782 C 97.736,96.617 103.386,97.593 109.835,90.977 L 109.835,90.977" style="fill:none;stroke:black;stroke-width:1.000007972491;stroke-linecap:butt;"
/><path d="M 74.111,93.500 C 74.555,91.833 75.538,90.346 78.095,89.383 L 78.095,89.383" style="fill:none;stroke:black;stroke-width:1.000007972491;stroke-linecap:round;"
/><path d="M 107.976,89.516 C 109.962,89.890 111.000007159,91.192 111.296,92.969" style="fill:none;stroke:black;stroke-width:1.000007972491;stroke-linecap:round;"
/><path d="M 80.760,94.815 L 83.162,99.600 L 84.964,95.567" style="fill:none;stroke:black;stroke-width:1.000009811711;stroke-linecap:butt;"
/><path d="M 106.050,94.231 L 103.659,98.879 L 101.933,95.293" style="fill:none;stroke:black;stroke-width:1.000007972491;stroke-linecap:butt;"
/><path d="M 92.172,22.844 C 82.447,13.451 70.740,7.626 55.860,7.514 L 60.970,13.088 C 73.733,14.328 77.857,18.580 81.952,22.844 L 92.172,22.844 z " style=";fill:#f8750e;fill-rule:nonzero;stroke:none;stroke-width:1;stroke-linecap:round;stroke-linejoin:round;"
/><path d="M 55.917,7.910 C 73.451,6.989 83.193,15.326 92.836,22.983" style="fill:none;stroke:black;stroke-width:1.000007972491;stroke-linecap:butt;"
/><path d="M 61.0000046995,13.166 L 65.073,19.205 C 68.589,19.923 71.131,21.713 72.583,24.702 L 78.158,22.999 C 75.066,18.258 69.300,15.015 61.0000046995,13.166 z " style=";fill:#f8750e;fill-rule:nonzero;stroke:none;stroke-width:1;stroke-linecap:round;stroke-linejoin:round;"
/><path d="M 77.926,23.153 C 76.072,19.078 70.50065385,16.995 66.699,14.017 C 71.986,16.346 77.870,16.788 82.029,22.689 L 77.926,23.153 z " style=";fill:url(#linearGradient19890);fill-rule:nonzero;stroke:none;stroke-width:1;stroke-linecap:round;stroke-linejoin:round;"
/><path d="M 81.946,22.717 C 76.186,15.729 64.836,12.872 60.433,12.359 C 63.925,13.406 75.549,17.519 78.162,23.082" style="fill:none;stroke:black;stroke-width:1.000007972491;stroke-linecap:butt;"
/><path d="M 111.000002994,80.618 C 120.392,90.861 116.435,111.592 96.820,126.036 C 107.450,120.934 123.222,106.080 117.006,80.486 L 117.006,80.486" style="fill:none;stroke:black;stroke-width:1.000007972491;stroke-linecap:round;"
/><path d="M 119.264,82.212 C 129.334,95.690 121.666,110.033 118.068,124.177 C 123.315,113.321 133.403,95.796 123.115,78.759" style="fill:none;stroke:black;stroke-width:1.000007972491;stroke-linecap:round;"
/><path d="M 56.634,93.068 L 60.737,90.048 L 71.499,119.857 C 68.101,123.124 64.575,124.483 60.970,124.657 C 63.900,120.851 67.455,117.883 64.609,106.308 C 61.104,102.155 57.526,98.025 56.634,93.068 z " style=";fill:#803300;fill-rule:nonzero;stroke:none;stroke-width:1;stroke-linecap:round;stroke-linejoin:round;"
/><path d="M 65.346,102.398 C 73.772,109.151 82.954,113.380 92.438,116.608 C 100.721,111.698 107.223,108.262 115.280,99.078 L 115.014,101.468" style="fill:none;stroke:black;stroke-width:1.000007972491;stroke-linecap:butt;"
/><path d="M 118.068,96.555 C 119.242,95.327 120.104,93.760 120.957,92.639 C 121.743,91.605 122.276,89.948 122.849,88.985 L 122.716,88.719" style="fill:none;stroke:black;stroke-width:1.000007972491;stroke-linecap:butt;"
/><path d="M 30.619,87.416 L 28.219,87.261 L 22.644,90.203 C 5.528,112.557 6.629,96.376 10.721,73.867 C 5.507,61.368 3.420,50.50031293 20.322,68.369 L 25.664,66.589 L 34.413,67.750 L 37.974,73.170 L 39.833,78.280 L 34.413,81.686 L 30.619,87.416 z " style=";fill:#f8750e;fill-opacity:0.941;fill-rule:nonzero;stroke:none;stroke-width:1;stroke-linecap:round;stroke-linejoin:round;"
/><path d="M 65.073,18.895 C 68.740,20.469 70.745,22.596 72.583,24.779 L 67.473,26.095 L 65.073,18.895 z " style=";fill:url(#linearGradient20785);fill-rule:nonzero;stroke:none;stroke-width:1;stroke-linecap:round;stroke-linejoin:round;"
/><path d="M 34.338,67.629 L 34.557,63.031 C 34.306,61.719 33.800,62.599 33.101,62.825 C 32.489,63.023 31.729,62.489 30.864,62.605 C 28.984,62.856 26.607,61.581 24.175,60.777 C 17.144,58.454 9.877,49.919 8.544,46.505 C 6.961,42.448 6.884,37.919 6.797,34.680 C 6.118,9.430 34.809,-0.766 47.594,9.809 C 48.472,10.50035483 45.751,9.008 47.364,9.607 C 52.974,11.691 58.528,18.630 60.065,23.406 C 60.50058895,24.940 61.253,26.025 61.808,28.434 C 62.541,31.619 63.818,36.720 62.107,40.217 C 60.50004515,43.492 60.482,47.757 58.146,50.466 C 56.563,52.302 55.401,54.448 53.720,55.731 C 51.301,57.577 48.629,58.338 49.010,59.746 L 50.324,63.907 C 84.508,42.758 66.336,-4.315 27.330,1.00000563926 C -18.159,15.293 1.548,68.440 34.338,67.629 z " style=";fill:#009957;fill-rule:nonzero;stroke:none;stroke-width:1;stroke-linecap:round;stroke-linejoin:round;"
/><path d="M 489.669,581.654 A 240.5007906,242.055 0 1 1 577.895,555.855" transform="matrix(0.141,0,0,0.138,-31.576,-13.081)" style=";fill:none;stroke:black;stroke-width:7.725;stroke-linecap:butt;"
/><path d="M 125.439,83.341 C 128.472,76.657 127.200,69.375 126.568,62.690 C 126.333,55.349 128.117,50.664 127.896,45.028 C 123.532,37.830 122.270,21.112 99.742,24.709 C 88.379,21.186 77.063,22.168 67.471,26.436" style="fill:none;stroke:black;stroke-width:1.000007972491;stroke-linecap:butt;"
/><path d="M 59.344,86.642 L 56.866,80.215 L 51.756,81.686 C 54.233,82.808 56.299,84.581 56.324,89.584 L 59.344,86.642 z " style=";fill:#803300;fill-rule:nonzero;stroke:none;stroke-width:1;stroke-linecap:round;stroke-linejoin:round;"
/><path d="M 56.847,80.618 L 58.972,86.329" style="fill:none;stroke:black;stroke-width:1.000007972491;stroke-linecap:butt;"
/><path d="M 60.50065475,90.313 L 71.455,119.928 C 69.596,122.414 62.425,125.143 60.50065475,124.443" style="fill:none;stroke:black;stroke-width:1.000007972491;stroke-linecap:butt;"
/><path d="M 37.510,72.473 L 31.703,63.105 C 40.119,63.577 46.347,60.988 51.679,57.143 L 52.840,68.679 C 48.303,70.361 46.152,73.777 37.510,72.473 z " style=";fill:#009957;fill-rule:nonzero;stroke:none;stroke-width:1;stroke-linecap:round;stroke-linejoin:round;"
/><path d="M 46.104,80.50025073 C 49.330,78.778 52.556,77.108 55.782,76.576 L 52.763,68.369 C 48.217,71.0000044953 43.877,74.236 37.742,72.937 C 39.070,75.868 40.409,78.788 41.536,81.919 L 43.239,82.151 C 41.523,75.715 41.846,73.778 46.104,80.50025073 z " style=";fill:#803300;fill-rule:nonzero;stroke:none;stroke-width:1;stroke-linecap:round;stroke-linejoin:round;"
/><path d="M 33.740,67.604 C 35.741,68.824 36.928,71.674 38.255,74.244 L 41.376,82.146" style="fill:none;stroke:black;stroke-width:1.000007972491;stroke-linecap:butt;"
/><path d="M 37.458,72.783 C 41.490,73.168 46.458,72.741 52.597,68.600" style="fill:none;stroke:black;stroke-width:1.000007972491;stroke-linecap:butt;"
/><path d="M 39.368,78.357 C 30.342,83.121 30.732,87.466 30.735,91.829 L 42.039,83.080 L 39.368,78.357 z " style=";fill:#f8750e;stroke:none;stroke-width:1;stroke-linecap:round;stroke-linejoin:round;"
/><path d="M 39.450,78.361 C 33.318,81.592 29.747,85.847 30.685,91.907" style="fill:none;stroke:black;stroke-width:1.000007972491;stroke-linecap:butt;"
/><path d="M 31.0000083595,92.903 C 32.966,98.493 39.731,102.612 38.255,113.155" style="fill:none;stroke:black;stroke-width:1.000007972491;stroke-linecap:butt;"
/><path d="M 38.388,113.022 C 38.873,128.133 70.148,134.245 65.241,107.982 C 64.445,103.721 56.529,99.023 56.714,92.969" style="fill:none;stroke:black;stroke-width:1.000007972491;stroke-linecap:butt;"
/><path d="M 56.117,89.715 C 56.927,86.224 54.867,83.144 51.801,81.415" style="fill:none;stroke:black;stroke-width:1.000007972491;stroke-linecap:butt;"
/><path d="M 43.169,105.851 C 47.529,106.328 50.867,103.226 54.589,101.468 C 51.398,106.181 48.249,109.580 41.176,110.764 L 40.645,110.897" style="fill:url(#linearGradient18096);stroke:black;stroke-width:1.000007972491;stroke-linecap:round;stroke-linejoin:round;"
/><path d="M 43.169,116.873 C 49.100,118.116 55.032,114.274 60.964,109.569 C 57.493,114.827 53.735,119.823 46.090,121.256" style="fill:url(#linearGradient12770);stroke:black;stroke-width:1.000007972491;stroke-linecap:round;stroke-linejoin:round;"
/><path d="M 37.856,81.548 C 40.198,83.200 42.087,82.142 44.098,81.814" style="fill:none;stroke:black;stroke-width:1.000007972491;stroke-linecap:round;stroke-linejoin:round;"
/><path d="M 42.903,81.946 C 42.345,79.722 41.691,77.885 42.372,76.369 C 44.164,76.944 45.122,78.981 45.559,80.486" style="fill:#a40;stroke:black;stroke-width:1.000007972491;stroke-linecap:round;stroke-linejoin:round;"
/><path d="M 30.758,87.297 C 26.984,87.354 30.082,86.279 22.939,90.042 C 3.818,112.834 7.845,95.676 10.854,74.106 C 3.873,59.662 6.179,54.525 16.362,63.685 C 17.477,64.688 19.380,66.957 20.484,68.498 C 20.747,68.866 19.305,68.569 19.619,68.926 C 23.162,67.598 21.258,68.683 25.598,66.264" style="fill:none;stroke:black;stroke-width:1.000007972491;stroke-linecap:round;stroke-linejoin:round;"
/><path d="M 17.834,69.660 C 16.850,66.119 12.708,64.472 9.383,62.335 C 12.292,65.177 15.319,67.086 16.332,71.350 C 13.767,69.349 12.089,68.679 10.50009795,68.157 L 15.768,73.416 C 14.655,74.841 12.012,78.720 11.449,81.492 C 13.433,80.120 15.033,77.594 16.520,74.731 C 15.301,80.50081503 12.835,84.304 10.50009795,89.943 C 13.907,86.619 15.617,83.906 16.520,80.50052753 C 17.218,87.341 14.109,92.701 10.885,98.019 C 14.041,95.180 17.619,92.315 19.712,84.497" style="fill:url(#linearGradient18989);stroke:#9a3200;stroke-width:1.000007972491;stroke-linecap:round;stroke-linejoin:round;"
/><path d="M 72.518,24.444 C 70.726,22.043 67.995,20.252 65.081,18.866" style="fill:none;stroke:black;stroke-width:1.000007972491;stroke-linecap:round;stroke-linejoin:round;"
/><path d="M 30.50041655,62.640 C 34.472,62.536 37.403,63.049 40.50081555,62.329 C 56.425,58.741 63.673,46.671 62.286,28.960 C 61.678,29.733 60.871,29.196 60.031,29.719 C 59.108,30.294 58.146,31.925 57.364,32.711 C 56.277,33.804 55.830,35.762 54.900,36.944 C 46.893,47.119 39.559,57.287 30.619,63.105" style=";fill:url(#linearGradient9127);fill-rule:nonzero;stroke:url(#linearGradient9119);stroke-width:0.135;stroke-linecap:round;stroke-linejoin:round;"
/><path d="M 39.931,54.592 C 9.987,50.900 37.584,33.597 47.681,18.056 C 49.182,15.747 50.360,13.543 50.839,11.359 C 53.967,13.733 57.020,16.207 59.102,19.975 L 62.146,28.652 C 60.940,30.061 58.843,30.50054993 57.574,31.938 C 56.378,33.239 56.007,35.427 54.964,36.834 C 48.950,44.945 45.462,49.471 39.931,54.592 z " style=";fill:url(#linearGradient10028);fill-rule:nonzero;stroke:none;stroke-width:1;stroke-linecap:round;stroke-linejoin:round;"
/><g transform="matrix(0.135,0,0,0.135,-8.928,-10.159)" id="g60734"><path d="M 514.849,520.436 A 208.730,211.513 0 1 1 518.791,518.388" transform="translate(-98.799,-1.392)" style=";fill:url(#linearGradient60750);stroke:black;stroke-width:8;stroke-linecap:square;"
/><path d="M 288.706,537.493 C 421.325,472.356 474.824,300.5005909 524.608,286.656 L 524.608,286.656" style="fill:none;stroke:black;stroke-width:8;stroke-linecap:round;stroke-linejoin:round;"
/><g id="g11800"><g id="g11807"><path d="M 508.955,294.348 C 486.632,264.637 448.896,258.429 411.297,249.086 C 442.010,269.421 479.002,289.756 490.014,310.092" style="fill:none;stroke:black;stroke-width:8;stroke-linecap:round;stroke-linejoin:round;"
/><path d="M 471.564,333.215 C 434.073,293.832 407.275,294.704 379.810,290.412 C 410.948,309.769 439.883,330.679 460.495,355.354 L 458.527,357.322" style="fill:none;stroke:black;stroke-width:8;stroke-linecap:round;stroke-linejoin:round;"
/><path d="M 442.046,379.461 C 407.933,336.809 381.533,344.458 352.259,335.675 C 381.406,355.868 417.495,370.622 427.040,400.616" style="fill:none;stroke:black;stroke-width:8;stroke-linecap:round;stroke-linejoin:round;"
/><path d="M 407.361,422.263 C 394.849,399.657 355.716,391.344 322.740,378.969 C 350.672,401.928 383.810,420.951 391.617,443.911" style="fill:none;stroke:black;stroke-width:8;stroke-linecap:round;stroke-linejoin:round;"
/><path d="M 494.442,209.235 C 477.077,204.145 458.700,210.017 447.211,214.401 C 466.701,222.276 496.633,232.358 509.693,239.738" style="fill:none;stroke:black;stroke-width:8;stroke-linecap:round;stroke-linejoin:round;"
/></g></g><path d="M 443.899,160.026 C 327.836,377.203 152.454,424.790 343.709,475.905 L 360.5004726,478.507" style="fill:none;stroke:black;stroke-width:8;stroke-linecap:round;stroke-linejoin:round;"
/></g><path d="M 232.246,369.597 A 141.241,132.892 0 0 1 445.073,208.326" transform="matrix(0.171,0,0,0.179,-26.962,-22.040)" style=";fill:url(#linearGradient60773);stroke:url(#linearGradient61675);stroke-width:6.171;stroke-linecap:round;stroke-linejoin:round;"
/><path d="M 707.206,527.899 A 29.027,41.326 0 1 1 707.134,527.182" transform="matrix(0.135,0,0,0.135,-13.670,-8.245)" style=";fill:#122e09;stroke:#004c00;stroke-width:8;stroke-linecap:square;"
/><path d="M 702.385,476.293 A 18.203,22.631 0 1 1 702.339,475.900" transform="matrix(0.105,8.488e-2,-8.488e-2,0.105,50.091,-53.398)" style=";fill:#fdfdff;stroke:#004c00;stroke-width:8;stroke-linecap:square;"
/><path d="M 707.206,527.899 A 29.027,41.326 0 1 1 707.134,527.182" transform="matrix(0.135,0,0,0.135,19.198,-8.776)" style=";fill:#122e09;stroke:#004c00;stroke-width:8;stroke-linecap:square;"
/><path d="M 702.385,476.293 A 18.203,22.631 0 1 1 702.339,475.900" transform="matrix(0.105,8.488e-2,-8.488e-2,0.105,81.897,-54.328)" style=";fill:white;stroke:#004c00;stroke-width:8;stroke-linecap:square;"
/><path d="M 68.401,74.244 C 48.737,75.319 36.189,86.422 24.178,98.281 C 37.341,86.681 51.657,79.180 68.002,78.892 C 51.350,92.071 43.631,104.825 34.005,117.670 C 39.800,110.113 45.840,102.866 52.673,96.624 C 58.577,91.230 65.074,86.587 72.518,83.142 L 71.522,83.606" style="fill:url(#linearGradient4773);fill-rule:nonzero;stroke:#1a1a1a;stroke-width:1.000007972491;stroke-linecap:round;"
/><path d="M 52.996,62.292 C 52.167,64.151 51.798,66.541 52.730,68.401 L 55.917,76.634" style="fill:none;stroke:black;stroke-width:1.000007972491;stroke-linecap:butt;"
/><path d="M 125.439,83.341 C 128.472,76.657 127.200,69.375 126.568,62.690 C 126.333,55.349 128.117,50.664 127.896,45.028 C 123.532,37.830 122.270,21.112 99.742,24.709 C 88.379,21.186 77.063,22.168 67.471,26.436" style="fill:none;stroke:black;stroke-width:1.000007972491;stroke-linecap:butt;"
/><path d="M 119.264,82.212 C 129.334,95.690 121.666,110.033 118.068,124.177 C 123.315,113.321 133.403,95.796 123.115,78.759" style="fill:url(#linearGradient3872);stroke:black;stroke-width:1.000007972491;stroke-linecap:round;"
/><path d="M 118.068,96.555 C 119.242,95.327 120.104,93.760 120.957,92.639 C 121.743,91.605 122.276,89.948 122.849,88.985 L 122.716,88.719" style="fill:none;stroke:black;stroke-width:1.000007972491;stroke-linecap:butt;"
/><path d="M 111.000002994,80.618 C 120.392,90.861 116.435,111.592 96.820,126.036 C 107.450,120.934 123.222,106.080 117.006,80.486 L 117.006,80.486" style="fill:url(#linearGradient3880);stroke:black;stroke-width:1.000007972491;stroke-linecap:round;"
/><path d="M 65.346,102.398 C 73.772,109.151 82.954,113.380 92.438,116.608 C 100.721,111.698 107.223,108.262 115.280,99.078 L 115.014,101.468" style="fill:none;stroke:black;stroke-width:1.000007972491;stroke-linecap:butt;"
/><path d="M 65.305,102.591 L 60.660,90.823" style="fill:#004c00;stroke:black;stroke-width:1.000007972491;stroke-linecap:round;stroke-linejoin:round;"
/><path d="M 50.440,63.259 C 63.069,57.600 71.0000084345,44.635 67.783,25.786 L 67.628,25.941" style="fill:none;stroke:black;stroke-width:1.000007972491;stroke-linecap:round;stroke-linejoin:round;"
/><path d="M 33.474,93.235 C 36.571,94.385 39.559,93.786 42.505,92.526 C 45.188,91.379 47.836,89.683 50.50001195,88.259 C 50.801,88.099 51.102,87.942 51.402,87.790 C 47.901,92.478 43.723,96.489 37.060,98.015" style=";fill:url(#linearGradient11877);stroke:black;stroke-width:1.000007972491;stroke-linecap:round;stroke-linejoin:round;"
/><path d="M 9.482,54.123 C -8.656,29.081 11.935,-6.229 46.723,4.649 L 46.723,4.687" style=";fill:none;fill-rule:nonzero;stroke:#4cca76;stroke-width:1.000007972491;stroke-linecap:round;stroke-linejoin:round;"
/></svg>
